SplineFontDB: 3.2
FontName: Reijima-Light
FullName: Reijima Light
FamilyName: Reijima Light
Weight: Light
Copyright: Copyright (c) 2019 by Coji Morishita. All rights reserved.
Version: 1.000
ItalicAngle: 0
UnderlinePosition: -100
UnderlineWidth: 50
Ascent: 860
Descent: 140
InvalidEm: 0
LayerCount: 2
Layer: 0 0 "Back" 1
Layer: 1 0 "Fore" 0
FSType: 8
OS2Version: 0
OS2_WeightWidthSlopeOnly: 0
OS2_UseTypoMetrics: 0
CreationTime: 1707357830
ModificationTime: 1707357830
OS2TypoAscent: 0
OS2TypoAOffset: 1
OS2TypoDescent: 0
OS2TypoDOffset: 1
OS2TypoLinegap: 0
OS2WinAscent: 0
OS2WinAOffset: 1
OS2WinDescent: 0
OS2WinDOffset: 1
HheadAscent: 0
HheadAOffset: 1
HheadDescent: 0
HheadDOffset: 1
OS2Vendor: 'PfEd'
DEI: 91125
Encoding: UnicodeFull
Compacted: 1
UnicodeInterp: none
NameList: AGL For New Fonts
DisplaySize: -48
AntiAlias: 1
FitToEm: 0
WinInfo: 0 27 9
BeginPrivate: 3
BlueValues 24 [-10 0 520 530 730 750 ]
OtherBlues 12 [-220 -220 ]
BlueShift 1 9
EndPrivate
BeginChars: 1114125 955

StartChar: .notdef
Encoding: 1114112 -1 0
Width: 500
LayerCount: 2
Fore
SplineSet
410 -140 m 1
 93 -140 l 1
 93 860 l 1
 410 860 l 1
 410 -140 l 1
168 793 m 1
 168 760 l 1
 233 760 l 1
 233 723 l 1
 167 723 l 1
 167 690 l 1
 333 690 l 1
 333 723 l 1
 267 723 l 1
 267 760 l 1
 333 760 l 1
 333 793 l 1
 168 793 l 1
167 664 m 1
 167 560 l 1
 333 560 l 1
 333 594 l 1
 267 594 l 1
 267 664 l 1
 167 664 l 1
233 594 m 1
 200 594 l 1
 200 630 l 1
 233 630 l 1
 233 594 l 1
167 533 m 1
 167 500 l 1
 233 500 l 1
 233 463 l 1
 167 463 l 1
 167 430 l 1
 267 430 l 1
 267 500 l 1
 333 500 l 1
 333 533 l 1
 167 533 l 1
300 473 m 1
 300 407 l 1
 167 407 l 1
 167 373 l 1
 333 373 l 1
 333 473 l 1
 300 473 l 1
233 351 m 1
 233 295 l 1
 267 295 l 1
 267 318 l 1
 300 318 l 1
 300 271 l 1
 200 271 l 1
 200 351 l 1
 167 351 l 1
 167 238 l 1
 333 238 l 1
 333 351 l 1
 233 351 l 1
167 178 m 1
 167 65 l 1
 333 65 l 1
 333 178 l 1
 167 178 l 1
300 98 m 1
 200 98 l 1
 200 145 l 1
 300 145 l 1
 300 98 l 1
167 42 m 1
 167 9 l 1
 237 9 l 1
 167 -38 l 1
 167 -71 l 1
 333 -71 l 1
 333 -38 l 1
 231 -38 l 1
 301 9 l 1
 333 9 l 1
 333 42 l 1
 167 42 l 1
EndSplineSet
EndChar

StartChar: A
Encoding: 65 65 2
Width: 657
Flags: W
LayerCount: 2
Fore
SplineSet
585 0 m 1
 503 219 l 1
 153 219 l 1
 71 0 l 1
 17 0 l 1
 293 730 l 1
 363 730 l 1
 640 0 l 1
 585 0 l 1
170 266 m 1
 486 266 l 1
 329 686 l 1
 327 686 l 1
 170 266 l 1
EndSplineSet
EndChar

StartChar: Aacute
Encoding: 193 193 3
Width: 657
Flags: W
LayerCount: 2
Fore
SplineSet
585 0 m 1
 503 219 l 1
 153 219 l 1
 71 0 l 1
 17 0 l 1
 293 730 l 1
 363 730 l 1
 640 0 l 1
 585 0 l 1
170 266 m 1
 486 266 l 1
 329 686 l 1
 327 686 l 1
 170 266 l 1
299 770 m 1
 247 770 l 1
 360 980 l 1
 421 980 l 1
 299 770 l 1
EndSplineSet
EndChar

StartChar: Abreve
Encoding: 258 258 4
Width: 657
Flags: W
LayerCount: 2
Fore
SplineSet
585 0 m 1
 503 219 l 1
 153 219 l 1
 71 0 l 1
 17 0 l 1
 293 730 l 1
 363 730 l 1
 640 0 l 1
 585 0 l 1
170 266 m 1
 486 266 l 1
 329 686 l 1
 327 686 l 1
 170 266 l 1
210 836 m 0
 178 860 159 893 154 934 c 1
 206 934 l 1
 211 905 225 882 246 865 c 0
 268 848 295 840 328 840 c 0
 361 840 388 848 410 865 c 0
 431 882 445 905 450 934 c 1
 502 934 l 1
 497 893 478 860 446 836 c 0
 414 810 375 798 328 798 c 0
 281 798 242 810 210 836 c 0
EndSplineSet
EndChar

StartChar: uni1EAE
Encoding: 7854 7854 5
Width: 657
Flags: W
LayerCount: 2
Fore
SplineSet
585 0 m 1
 503 219 l 1
 153 219 l 1
 71 0 l 1
 17 0 l 1
 293 730 l 1
 363 730 l 1
 640 0 l 1
 585 0 l 1
170 266 m 1
 486 266 l 1
 329 686 l 1
 327 686 l 1
 170 266 l 1
210 836 m 0
 178 860 159 893 154 934 c 1
 206 934 l 1
 211 905 225 882 246 865 c 0
 268 848 295 840 328 840 c 0
 361 840 388 848 410 865 c 0
 431 882 445 905 450 934 c 1
 502 934 l 1
 497 893 478 860 446 836 c 0
 414 810 375 798 328 798 c 0
 281 798 242 810 210 836 c 0
299 920 m 1
 247 920 l 1
 360 1130 l 1
 421 1130 l 1
 299 920 l 1
EndSplineSet
EndChar

StartChar: uni1EB6
Encoding: 7862 7862 6
Width: 657
Flags: W
LayerCount: 2
Fore
SplineSet
585 0 m 1
 503 219 l 1
 153 219 l 1
 71 0 l 1
 17 0 l 1
 293 730 l 1
 363 730 l 1
 640 0 l 1
 585 0 l 1
170 266 m 1
 486 266 l 1
 329 686 l 1
 327 686 l 1
 170 266 l 1
287 -104 m 1
 369 -104 l 1
 369 -186 l 1
 287 -186 l 1
 287 -104 l 1
210 836 m 0
 178 860 159 893 154 934 c 1
 206 934 l 1
 211 905 225 882 246 865 c 0
 268 848 295 840 328 840 c 0
 361 840 388 848 410 865 c 0
 431 882 445 905 450 934 c 1
 502 934 l 1
 497 893 478 860 446 836 c 0
 414 810 375 798 328 798 c 0
 281 798 242 810 210 836 c 0
EndSplineSet
EndChar

StartChar: uni1EB0
Encoding: 7856 7856 7
Width: 657
Flags: W
LayerCount: 2
Fore
SplineSet
585 0 m 1
 503 219 l 1
 153 219 l 1
 71 0 l 1
 17 0 l 1
 293 730 l 1
 363 730 l 1
 640 0 l 1
 585 0 l 1
170 266 m 1
 486 266 l 1
 329 686 l 1
 327 686 l 1
 170 266 l 1
210 836 m 0
 178 860 159 893 154 934 c 1
 206 934 l 1
 211 905 225 882 246 865 c 0
 268 848 295 840 328 840 c 0
 361 840 388 848 410 865 c 0
 431 882 445 905 450 934 c 1
 502 934 l 1
 497 893 478 860 446 836 c 0
 414 810 375 798 328 798 c 0
 281 798 242 810 210 836 c 0
235 1130 m 1
 297 1130 l 1
 409 920 l 1
 358 920 l 1
 235 1130 l 1
EndSplineSet
EndChar

StartChar: uni1EB2
Encoding: 7858 7858 8
Width: 657
Flags: W
LayerCount: 2
Fore
SplineSet
406 862 m 0
 428 878 441 898 448 925 c 1
 399 925 l 1
 403 935 407 948 410 964 c 0
 413 980 415 994 415 1005 c 0
 415 1024 409 1036 396 1043 c 0
 383 1050 359 1053 323 1053 c 0
 285 1053 245 1048 203 1037 c 1
 196 1078 l 1
 243 1089 288 1095 332 1095 c 0
 383 1095 418 1090 438 1078 c 0
 457 1068 467 1048 467 1019 c 0
 467 1007 466 993 463 978 c 0
 460 962 457 947 453 934 c 1
 502 934 l 1
 497 893 478 860 446 836 c 0
 414 810 375 798 328 798 c 0
 281 798 242 810 210 836 c 0
 178 860 159 893 154 934 c 1
 206 934 l 1
 211 905 225 882 246 865 c 0
 268 848 295 840 328 840 c 0
 359 840 386 848 406 862 c 0
585 0 m 1
 503 219 l 1
 153 219 l 1
 71 0 l 1
 17 0 l 1
 293 730 l 1
 363 730 l 1
 640 0 l 1
 585 0 l 1
170 266 m 1
 486 266 l 1
 329 686 l 1
 327 686 l 1
 170 266 l 1
EndSplineSet
EndChar

StartChar: uni1EB4
Encoding: 7860 7860 9
Width: 657
Flags: W
LayerCount: 2
Fore
SplineSet
585 0 m 1
 503 219 l 1
 153 219 l 1
 71 0 l 1
 17 0 l 1
 293 730 l 1
 363 730 l 1
 640 0 l 1
 585 0 l 1
170 266 m 1
 486 266 l 1
 329 686 l 1
 327 686 l 1
 170 266 l 1
210 836 m 0
 178 860 159 893 154 934 c 1
 206 934 l 1
 211 905 225 882 246 865 c 0
 268 848 295 840 328 840 c 0
 361 840 388 848 410 865 c 0
 431 882 445 905 450 934 c 1
 502 934 l 1
 497 893 478 860 446 836 c 0
 414 810 375 798 328 798 c 0
 281 798 242 810 210 836 c 0
368 1002 m 0
 350 1012 331 1024 312 1040 c 0
 283 1066 257 1079 235 1079 c 0
 224 1079 215 1073 210 1061 c 0
 205 1049 202 1028 202 999 c 1
 154 999 l 1
 154 1084 181 1127 235 1127 c 0
 251 1127 268 1122 288 1114 c 0
 306 1104 325 1092 344 1076 c 0
 373 1050 399 1037 421 1037 c 0
 432 1037 441 1043 446 1055 c 0
 451 1067 454 1088 454 1117 c 1
 502 1117 l 1
 502 1032 475 989 421 989 c 0
 405 989 388 994 368 1002 c 0
EndSplineSet
EndChar

StartChar: Acircumflex
Encoding: 194 194 10
Width: 657
Flags: W
LayerCount: 2
Fore
SplineSet
585 0 m 1
 503 219 l 1
 153 219 l 1
 71 0 l 1
 17 0 l 1
 293 730 l 1
 363 730 l 1
 640 0 l 1
 585 0 l 1
170 266 m 1
 486 266 l 1
 329 686 l 1
 327 686 l 1
 170 266 l 1
286 980 m 1
 370 980 l 1
 516 770 l 1
 457 770 l 1
 329 954 l 1
 327 954 l 1
 199 770 l 1
 140 770 l 1
 286 980 l 1
EndSplineSet
EndChar

StartChar: uni1EA4
Encoding: 7844 7844 11
Width: 657
Flags: W
LayerCount: 2
Fore
SplineSet
585 0 m 1
 503 219 l 1
 153 219 l 1
 71 0 l 1
 17 0 l 1
 293 730 l 1
 363 730 l 1
 640 0 l 1
 585 0 l 1
170 266 m 1
 486 266 l 1
 329 686 l 1
 327 686 l 1
 170 266 l 1
286 980 m 1
 370 980 l 1
 516 770 l 1
 457 770 l 1
 329 954 l 1
 327 954 l 1
 199 770 l 1
 140 770 l 1
 286 980 l 1
469 950 m 1
 417 950 l 1
 530 1160 l 1
 591 1160 l 1
 469 950 l 1
EndSplineSet
EndChar

StartChar: uni1EAC
Encoding: 7852 7852 12
Width: 657
Flags: W
LayerCount: 2
Fore
SplineSet
585 0 m 1
 503 219 l 1
 153 219 l 1
 71 0 l 1
 17 0 l 1
 293 730 l 1
 363 730 l 1
 640 0 l 1
 585 0 l 1
170 266 m 1
 486 266 l 1
 329 686 l 1
 327 686 l 1
 170 266 l 1
287 -104 m 1
 369 -104 l 1
 369 -186 l 1
 287 -186 l 1
 287 -104 l 1
286 980 m 1
 370 980 l 1
 516 770 l 1
 457 770 l 1
 329 954 l 1
 327 954 l 1
 199 770 l 1
 140 770 l 1
 286 980 l 1
EndSplineSet
EndChar

StartChar: uni1EA6
Encoding: 7846 7846 13
Width: 657
Flags: W
LayerCount: 2
Fore
SplineSet
585 0 m 1
 503 219 l 1
 153 219 l 1
 71 0 l 1
 17 0 l 1
 293 730 l 1
 363 730 l 1
 640 0 l 1
 585 0 l 1
170 266 m 1
 486 266 l 1
 329 686 l 1
 327 686 l 1
 170 266 l 1
286 980 m 1
 370 980 l 1
 516 770 l 1
 457 770 l 1
 329 954 l 1
 327 954 l 1
 199 770 l 1
 140 770 l 1
 286 980 l 1
65 1160 m 1
 127 1160 l 1
 239 950 l 1
 188 950 l 1
 65 1160 l 1
EndSplineSet
EndChar

StartChar: uni1EA8
Encoding: 7848 7848 14
Width: 657
Flags: W
LayerCount: 2
Fore
SplineSet
585 0 m 1
 503 219 l 1
 153 219 l 1
 71 0 l 1
 17 0 l 1
 293 730 l 1
 363 730 l 1
 640 0 l 1
 585 0 l 1
170 266 m 1
 486 266 l 1
 329 686 l 1
 327 686 l 1
 170 266 l 1
286 980 m 1
 370 980 l 1
 516 770 l 1
 457 770 l 1
 329 954 l 1
 327 954 l 1
 199 770 l 1
 140 770 l 1
 286 980 l 1
460 977 m 0
 463 993 465 1007 465 1018 c 0
 465 1037 459 1049 446 1056 c 0
 433 1063 409 1066 373 1066 c 0
 335 1066 295 1061 253 1050 c 1
 246 1091 l 1
 293 1102 338 1108 382 1108 c 0
 433 1108 468 1102 488 1092 c 0
 507 1080 517 1061 517 1032 c 0
 517 1019 515 1003 512 985 c 0
 509 967 505 951 500 938 c 1
 449 938 l 1
 453 948 457 961 460 977 c 0
EndSplineSet
EndChar

StartChar: uni1EAA
Encoding: 7850 7850 15
Width: 657
Flags: W
LayerCount: 2
Fore
SplineSet
585 0 m 1
 503 219 l 1
 153 219 l 1
 71 0 l 1
 17 0 l 1
 293 730 l 1
 363 730 l 1
 640 0 l 1
 585 0 l 1
170 266 m 1
 486 266 l 1
 329 686 l 1
 327 686 l 1
 170 266 l 1
286 980 m 1
 370 980 l 1
 516 770 l 1
 457 770 l 1
 329 954 l 1
 327 954 l 1
 199 770 l 1
 140 770 l 1
 286 980 l 1
368 1002 m 0
 350 1012 331 1024 312 1040 c 0
 283 1066 257 1079 235 1079 c 0
 224 1079 215 1073 210 1061 c 0
 205 1049 202 1028 202 999 c 1
 154 999 l 1
 154 1084 181 1127 235 1127 c 0
 251 1127 268 1122 288 1114 c 0
 306 1104 325 1092 344 1076 c 0
 373 1050 399 1037 421 1037 c 0
 432 1037 441 1043 446 1055 c 0
 451 1067 454 1088 454 1117 c 1
 502 1117 l 1
 502 1032 475 989 421 989 c 0
 405 989 388 994 368 1002 c 0
EndSplineSet
EndChar

StartChar: uni0200
Encoding: 512 512 16
Width: 657
Flags: W
LayerCount: 2
Fore
SplineSet
585 0 m 1
 503 219 l 1
 153 219 l 1
 71 0 l 1
 17 0 l 1
 293 730 l 1
 363 730 l 1
 640 0 l 1
 585 0 l 1
170 266 m 1
 486 266 l 1
 329 686 l 1
 327 686 l 1
 170 266 l 1
132 980 m 1
 194 980 l 1
 306 770 l 1
 255 770 l 1
 132 980 l 1
327 980 m 1
 389 980 l 1
 501 770 l 1
 450 770 l 1
 327 980 l 1
EndSplineSet
EndChar

StartChar: Adieresis
Encoding: 196 196 17
Width: 657
Flags: W
LayerCount: 2
Fore
SplineSet
585 0 m 1
 503 219 l 1
 153 219 l 1
 71 0 l 1
 17 0 l 1
 293 730 l 1
 363 730 l 1
 640 0 l 1
 585 0 l 1
170 266 m 1
 486 266 l 1
 329 686 l 1
 327 686 l 1
 170 266 l 1
165 916 m 1
 247 916 l 1
 247 834 l 1
 165 834 l 1
 165 916 l 1
410 916 m 1
 491 916 l 1
 491 834 l 1
 410 834 l 1
 410 916 l 1
EndSplineSet
EndChar

StartChar: uni1EA0
Encoding: 7840 7840 18
Width: 657
Flags: W
LayerCount: 2
Fore
SplineSet
585 0 m 1
 503 219 l 1
 153 219 l 1
 71 0 l 1
 17 0 l 1
 293 730 l 1
 363 730 l 1
 640 0 l 1
 585 0 l 1
170 266 m 1
 486 266 l 1
 329 686 l 1
 327 686 l 1
 170 266 l 1
287 -104 m 1
 369 -104 l 1
 369 -186 l 1
 287 -186 l 1
 287 -104 l 1
EndSplineSet
EndChar

StartChar: Agrave
Encoding: 192 192 19
Width: 657
Flags: W
LayerCount: 2
Fore
SplineSet
585 0 m 1
 503 219 l 1
 153 219 l 1
 71 0 l 1
 17 0 l 1
 293 730 l 1
 363 730 l 1
 640 0 l 1
 585 0 l 1
170 266 m 1
 486 266 l 1
 329 686 l 1
 327 686 l 1
 170 266 l 1
235 980 m 1
 297 980 l 1
 409 770 l 1
 358 770 l 1
 235 980 l 1
EndSplineSet
EndChar

StartChar: uni1EA2
Encoding: 7842 7842 20
Width: 657
Flags: W
LayerCount: 2
Fore
SplineSet
585 0 m 1
 503 219 l 1
 153 219 l 1
 71 0 l 1
 17 0 l 1
 293 730 l 1
 363 730 l 1
 640 0 l 1
 585 0 l 1
170 266 m 1
 486 266 l 1
 329 686 l 1
 327 686 l 1
 170 266 l 1
407 847 m 0
 410 863 412 877 412 888 c 0
 412 907 406 919 393 926 c 0
 380 933 356 936 320 936 c 0
 282 936 242 931 200 920 c 1
 193 961 l 1
 240 972 285 978 329 978 c 0
 380 978 415 972 434 962 c 0
 454 950 464 931 464 902 c 0
 464 889 462 873 459 855 c 0
 456 837 452 821 447 808 c 1
 396 808 l 1
 400 818 404 831 407 847 c 0
EndSplineSet
EndChar

StartChar: uni0202
Encoding: 514 514 21
Width: 657
Flags: W
LayerCount: 2
Fore
SplineSet
585 0 m 1
 503 219 l 1
 153 219 l 1
 71 0 l 1
 17 0 l 1
 293 730 l 1
 363 730 l 1
 640 0 l 1
 585 0 l 1
170 266 m 1
 486 266 l 1
 329 686 l 1
 327 686 l 1
 170 266 l 1
446 914 m 0
 478 890 497 857 502 816 c 1
 450 816 l 1
 445 845 431 868 410 885 c 0
 388 902 361 910 328 910 c 0
 295 910 268 902 246 885 c 0
 225 868 211 845 206 816 c 1
 154 816 l 1
 159 857 178 890 210 914 c 0
 242 940 281 952 328 952 c 0
 375 952 414 940 446 914 c 0
EndSplineSet
EndChar

StartChar: Amacron
Encoding: 256 256 22
Width: 657
Flags: W
LayerCount: 2
Fore
SplineSet
585 0 m 1
 503 219 l 1
 153 219 l 1
 71 0 l 1
 17 0 l 1
 293 730 l 1
 363 730 l 1
 640 0 l 1
 585 0 l 1
170 266 m 1
 486 266 l 1
 329 686 l 1
 327 686 l 1
 170 266 l 1
154 896 m 1
 503 896 l 1
 503 854 l 1
 154 854 l 1
 154 896 l 1
EndSplineSet
EndChar

StartChar: Aogonek
Encoding: 260 260 23
Width: 657
Flags: W
LayerCount: 2
Fore
SplineSet
727 -198 m 1
 695 -212 660 -219 622 -219 c 0
 573 -219 537 -210 516 -192 c 0
 494 -175 483 -153 483 -127 c 0
 483 -103 492 -80 508 -56 c 0
 526 -34 550 -12 582 9 c 1
 503 219 l 1
 153 219 l 1
 71 0 l 1
 17 0 l 1
 293 730 l 1
 363 730 l 1
 640 0 l 1
 605 -19 578 -40 558 -60 c 0
 540 -82 530 -102 530 -121 c 0
 530 -141 539 -155 557 -164 c 0
 575 -173 598 -177 625 -177 c 0
 658 -177 689 -171 716 -158 c 1
 727 -198 l 1
170 266 m 1
 486 266 l 1
 329 686 l 1
 327 686 l 1
 170 266 l 1
EndSplineSet
EndChar

StartChar: Aring
Encoding: 197 197 24
Width: 657
Flags: W
LayerCount: 2
Fore
SplineSet
503 219 m 1
 153 219 l 1
 71 0 l 1
 17 0 l 1
 288 718 l 1
 261 727 238 743 221 766 c 0
 204 789 195 816 195 845 c 0
 195 869 201 891 213 912 c 0
 225 932 241 948 262 960 c 0
 282 972 304 978 328 978 c 0
 353 978 375 972 396 960 c 0
 416 948 432 932 444 912 c 0
 456 891 462 869 462 845 c 0
 462 815 453 788 436 765 c 0
 419 742 396 726 368 718 c 1
 640 0 l 1
 585 0 l 1
 503 219 l 1
262 779 m 0
 281 761 303 752 328 752 c 0
 354 752 376 761 394 779 c 0
 413 797 422 819 422 845 c 0
 422 871 413 893 394 911 c 0
 376 929 354 938 328 938 c 0
 303 938 281 929 262 911 c 0
 244 893 235 871 235 845 c 0
 235 819 244 797 262 779 c 0
170 266 m 1
 486 266 l 1
 329 686 l 1
 327 686 l 1
 170 266 l 1
EndSplineSet
EndChar

StartChar: Aringacute
Encoding: 506 506 25
Width: 657
Flags: W
LayerCount: 2
Fore
SplineSet
503 219 m 1
 153 219 l 1
 71 0 l 1
 17 0 l 1
 288 718 l 1
 261 727 238 743 221 766 c 0
 204 789 195 816 195 845 c 0
 195 867 200 888 210 906 c 0
 220 926 233 941 250 953 c 1
 360 1157 l 1
 421 1157 l 1
 317 978 l 1
 328 978 l 2
 353 978 375 972 396 960 c 0
 416 948 432 932 444 912 c 0
 456 891 462 869 462 845 c 0
 462 815 453 788 436 765 c 0
 419 742 396 726 368 718 c 1
 640 0 l 1
 585 0 l 1
 503 219 l 1
262 779 m 0
 281 761 303 752 328 752 c 0
 354 752 376 761 394 779 c 0
 413 797 422 819 422 845 c 0
 422 871 413 893 394 911 c 0
 376 929 354 938 328 938 c 0
 303 938 281 929 262 911 c 0
 244 893 235 871 235 845 c 0
 235 819 244 797 262 779 c 0
170 266 m 1
 486 266 l 1
 329 686 l 1
 327 686 l 1
 170 266 l 1
EndSplineSet
EndChar

StartChar: Atilde
Encoding: 195 195 26
Width: 657
Flags: W
LayerCount: 2
Fore
SplineSet
585 0 m 1
 503 219 l 1
 153 219 l 1
 71 0 l 1
 17 0 l 1
 293 730 l 1
 363 730 l 1
 640 0 l 1
 585 0 l 1
170 266 m 1
 486 266 l 1
 329 686 l 1
 327 686 l 1
 170 266 l 1
368 820 m 0
 350 828 331 841 312 857 c 0
 283 883 257 896 235 896 c 0
 224 896 215 890 210 878 c 0
 205 866 202 845 202 816 c 1
 154 816 l 1
 154 901 181 944 235 944 c 0
 251 944 268 940 288 930 c 0
 306 922 325 909 344 893 c 0
 373 867 399 854 421 854 c 0
 432 854 441 860 446 872 c 0
 451 884 454 905 454 934 c 1
 502 934 l 1
 502 849 475 806 421 806 c 0
 405 806 388 810 368 820 c 0
EndSplineSet
EndChar

StartChar: AE
Encoding: 198 198 27
Width: 822
Flags: W
LayerCount: 2
Fore
SplineSet
753 684 m 1
 461 684 l 1
 461 410 l 1
 733 410 l 1
 733 365 l 1
 461 365 l 1
 461 46 l 1
 753 46 l 1
 753 0 l 1
 412 0 l 1
 412 219 l 1
 173 219 l 1
 72 0 l 1
 17 0 l 1
 359 730 l 1
 753 730 l 1
 753 684 l 1
195 266 m 1
 412 266 l 1
 412 687 l 1
 390 687 l 1
 195 266 l 1
EndSplineSet
EndChar

StartChar: AEacute
Encoding: 508 508 28
Width: 822
Flags: W
LayerCount: 2
Fore
SplineSet
753 684 m 1
 461 684 l 1
 461 410 l 1
 733 410 l 1
 733 365 l 1
 461 365 l 1
 461 46 l 1
 753 46 l 1
 753 0 l 1
 412 0 l 1
 412 219 l 1
 173 219 l 1
 72 0 l 1
 17 0 l 1
 359 730 l 1
 753 730 l 1
 753 684 l 1
195 266 m 1
 412 266 l 1
 412 687 l 1
 390 687 l 1
 195 266 l 1
417 770 m 1
 365 770 l 1
 478 980 l 1
 539 980 l 1
 417 770 l 1
EndSplineSet
EndChar

StartChar: B
Encoding: 66 66 29
Width: 624
Flags: W
LayerCount: 2
Fore
SplineSet
542 328 m 0
 572 296 587 255 587 202 c 0
 587 133 562 82 512 50 c 0
 463 16 386 0 283 0 c 2
 90 0 l 1
 90 730 l 1
 282 730 l 2
 372 730 439 716 484 686 c 0
 528 658 550 613 550 554 c 0
 550 511 538 475 514 448 c 0
 490 421 455 402 408 391 c 1
 408 389 l 1
 468 379 513 358 542 328 c 0
140 684 m 1
 140 410 l 1
 283 410 l 2
 357 410 412 421 447 444 c 0
 482 466 500 501 500 548 c 0
 500 595 482 629 448 651 c 0
 412 673 358 684 283 684 c 2
 140 684 l 1
475 84 m 0
 516 110 536 150 536 205 c 0
 536 260 516 301 474 326 c 0
 434 352 370 365 283 365 c 2
 140 365 l 1
 140 46 l 1
 283 46 l 2
 370 46 434 59 475 84 c 0
EndSplineSet
EndChar

StartChar: C
Encoding: 67 67 30
Width: 686
Flags: W
LayerCount: 2
Fore
SplineSet
213 36 m 0
 159 67 118 110 88 166 c 0
 60 223 45 289 45 365 c 0
 45 441 60 507 89 564 c 0
 118 620 160 663 214 694 c 0
 267 725 330 740 403 740 c 0
 490 740 567 718 632 675 c 1
 610 634 l 1
 549 674 480 694 405 694 c 0
 342 694 288 680 241 654 c 0
 194 626 158 588 133 539 c 0
 108 490 95 432 95 365 c 0
 95 298 108 240 133 191 c 0
 158 142 194 104 241 76 c 0
 288 50 342 36 405 36 c 0
 480 36 549 56 610 96 c 1
 632 55 l 1
 567 12 490 -10 403 -10 c 0
 330 -10 267 5 213 36 c 0
EndSplineSet
EndChar

StartChar: Cacute
Encoding: 262 262 31
Width: 686
Flags: W
LayerCount: 2
Fore
SplineSet
213 36 m 0
 159 67 118 110 88 166 c 0
 60 223 45 289 45 365 c 0
 45 441 60 507 89 564 c 0
 118 620 160 663 214 694 c 0
 267 725 330 740 403 740 c 0
 490 740 567 718 632 675 c 1
 610 634 l 1
 549 674 480 694 405 694 c 0
 342 694 288 680 241 654 c 0
 194 626 158 588 133 539 c 0
 108 490 95 432 95 365 c 0
 95 298 108 240 133 191 c 0
 158 142 194 104 241 76 c 0
 288 50 342 36 405 36 c 0
 480 36 549 56 610 96 c 1
 632 55 l 1
 567 12 490 -10 403 -10 c 0
 330 -10 267 5 213 36 c 0
350 770 m 1
 298 770 l 1
 411 980 l 1
 472 980 l 1
 350 770 l 1
EndSplineSet
EndChar

StartChar: Ccaron
Encoding: 268 268 32
Width: 686
Flags: W
LayerCount: 2
Fore
SplineSet
213 36 m 0
 159 67 118 110 88 166 c 0
 60 223 45 289 45 365 c 0
 45 441 60 507 89 564 c 0
 118 620 160 663 214 694 c 0
 267 725 330 740 403 740 c 0
 490 740 567 718 632 675 c 1
 610 634 l 1
 549 674 480 694 405 694 c 0
 342 694 288 680 241 654 c 0
 194 626 158 588 133 539 c 0
 108 490 95 432 95 365 c 0
 95 298 108 240 133 191 c 0
 158 142 194 104 241 76 c 0
 288 50 342 36 405 36 c 0
 480 36 549 56 610 96 c 1
 632 55 l 1
 567 12 490 -10 403 -10 c 0
 330 -10 267 5 213 36 c 0
192 980 m 1
 251 980 l 1
 379 796 l 1
 381 796 l 1
 509 980 l 1
 568 980 l 1
 422 770 l 1
 338 770 l 1
 192 980 l 1
EndSplineSet
EndChar

StartChar: Ccedilla
Encoding: 199 199 33
Width: 686
Flags: W
LayerCount: 2
Fore
SplineSet
632 55 m 1
 572 16 504 -6 427 -9 c 1
 477 -48 502 -87 502 -128 c 0
 502 -154 491 -176 470 -194 c 0
 448 -211 412 -220 363 -220 c 0
 324 -220 289 -213 257 -199 c 1
 268 -159 l 1
 297 -172 327 -178 360 -178 c 0
 387 -178 410 -174 428 -165 c 0
 446 -156 455 -142 455 -122 c 0
 455 -103 446 -84 430 -65 c 0
 412 -46 388 -27 357 -8 c 1
 293 -2 238 17 190 50 c 0
 144 82 108 125 82 178 c 0
 58 232 45 294 45 365 c 0
 45 441 60 507 89 564 c 0
 118 620 160 663 214 694 c 0
 267 725 330 740 403 740 c 0
 490 740 567 718 632 675 c 1
 610 634 l 1
 549 674 480 694 405 694 c 0
 342 694 288 680 241 654 c 0
 194 626 158 588 133 539 c 0
 108 490 95 432 95 365 c 0
 95 298 108 240 133 191 c 0
 158 142 194 104 241 76 c 0
 288 50 342 36 405 36 c 0
 480 36 549 56 610 96 c 1
 632 55 l 1
EndSplineSet
EndChar

StartChar: Ccircumflex
Encoding: 264 264 34
Width: 686
Flags: W
LayerCount: 2
Fore
SplineSet
213 36 m 0
 159 67 118 110 88 166 c 0
 60 223 45 289 45 365 c 0
 45 441 60 507 89 564 c 0
 118 620 160 663 214 694 c 0
 267 725 330 740 403 740 c 0
 490 740 567 718 632 675 c 1
 610 634 l 1
 549 674 480 694 405 694 c 0
 342 694 288 680 241 654 c 0
 194 626 158 588 133 539 c 0
 108 490 95 432 95 365 c 0
 95 298 108 240 133 191 c 0
 158 142 194 104 241 76 c 0
 288 50 342 36 405 36 c 0
 480 36 549 56 610 96 c 1
 632 55 l 1
 567 12 490 -10 403 -10 c 0
 330 -10 267 5 213 36 c 0
338 980 m 1
 422 980 l 1
 568 770 l 1
 509 770 l 1
 381 954 l 1
 379 954 l 1
 251 770 l 1
 192 770 l 1
 338 980 l 1
EndSplineSet
EndChar

StartChar: Cdotaccent
Encoding: 266 266 35
Width: 686
Flags: W
LayerCount: 2
Fore
SplineSet
213 36 m 0
 159 67 118 110 88 166 c 0
 60 223 45 289 45 365 c 0
 45 441 60 507 89 564 c 0
 118 620 160 663 214 694 c 0
 267 725 330 740 403 740 c 0
 490 740 567 718 632 675 c 1
 610 634 l 1
 549 674 480 694 405 694 c 0
 342 694 288 680 241 654 c 0
 194 626 158 588 133 539 c 0
 108 490 95 432 95 365 c 0
 95 298 108 240 133 191 c 0
 158 142 194 104 241 76 c 0
 288 50 342 36 405 36 c 0
 480 36 549 56 610 96 c 1
 632 55 l 1
 567 12 490 -10 403 -10 c 0
 330 -10 267 5 213 36 c 0
339 916 m 1
 421 916 l 1
 421 834 l 1
 339 834 l 1
 339 916 l 1
EndSplineSet
EndChar

StartChar: D
Encoding: 68 68 36
Width: 676
Flags: W
LayerCount: 2
Fore
SplineSet
262 730 m 2
 385 730 477 699 539 638 c 0
 601 577 632 486 632 365 c 0
 632 244 601 153 539 92 c 0
 477 31 385 0 262 0 c 2
 90 0 l 1
 90 730 l 1
 262 730 l 2
502 125 m 0
 555 178 581 258 581 365 c 0
 581 472 555 552 502 605 c 0
 450 658 371 684 264 684 c 2
 140 684 l 1
 140 46 l 1
 264 46 l 2
 371 46 450 72 502 125 c 0
EndSplineSet
EndChar

StartChar: uni01C4
Encoding: 452 452 37
Width: 1263
Flags: W
LayerCount: 2
Fore
SplineSet
262 730 m 2
 385 730 477 699 539 638 c 0
 601 577 632 486 632 365 c 0
 632 244 601 153 539 92 c 0
 477 31 385 0 262 0 c 2
 90 0 l 1
 90 730 l 1
 262 730 l 2
502 125 m 0
 555 178 581 258 581 365 c 0
 581 472 555 552 502 605 c 0
 450 658 371 684 264 684 c 2
 140 684 l 1
 140 46 l 1
 264 46 l 2
 371 46 450 72 502 125 c 0
701 46 m 1
 1129 682 l 1
 1129 684 l 1
 701 684 l 1
 701 730 l 1
 1191 730 l 1
 1191 684 l 1
 763 48 l 1
 763 46 l 1
 1191 46 l 1
 1191 0 l 1
 701 0 l 1
 701 46 l 1
758 980 m 1
 817 980 l 1
 945 796 l 1
 947 796 l 1
 1075 980 l 1
 1134 980 l 1
 988 770 l 1
 904 770 l 1
 758 980 l 1
EndSplineSet
EndChar

StartChar: Eth
Encoding: 208 208 38
Width: 725
Flags: W
LayerCount: 2
Fore
SplineSet
587 638 m 0
 649 577 680 486 680 365 c 0
 680 244 649 153 587 92 c 0
 525 31 433 0 310 0 c 2
 139 0 l 1
 139 343 l 1
 29 343 l 1
 29 387 l 1
 139 387 l 1
 139 730 l 1
 310 730 l 2
 433 730 525 699 587 638 c 0
552 125 m 0
 604 178 630 258 630 365 c 0
 630 472 604 552 552 605 c 0
 499 658 420 684 313 684 c 2
 188 684 l 1
 188 387 l 1
 442 387 l 1
 442 343 l 1
 188 343 l 1
 188 46 l 1
 313 46 l 2
 420 46 499 72 552 125 c 0
EndSplineSet
EndChar

StartChar: Dcaron
Encoding: 270 270 39
Width: 676
Flags: W
LayerCount: 2
Fore
SplineSet
262 730 m 2
 385 730 477 699 539 638 c 0
 601 577 632 486 632 365 c 0
 632 244 601 153 539 92 c 0
 477 31 385 0 262 0 c 2
 90 0 l 1
 90 730 l 1
 262 730 l 2
502 125 m 0
 555 178 581 258 581 365 c 0
 581 472 555 552 502 605 c 0
 450 658 371 684 264 684 c 2
 140 684 l 1
 140 46 l 1
 264 46 l 2
 371 46 450 72 502 125 c 0
151 980 m 1
 210 980 l 1
 338 796 l 1
 340 796 l 1
 468 980 l 1
 527 980 l 1
 381 770 l 1
 297 770 l 1
 151 980 l 1
EndSplineSet
EndChar

StartChar: Dcroat
Encoding: 272 272 40
Width: 725
Flags: W
LayerCount: 2
Fore
SplineSet
587 638 m 0
 649 577 680 486 680 365 c 0
 680 244 649 153 587 92 c 0
 525 31 433 0 310 0 c 2
 139 0 l 1
 139 343 l 1
 29 343 l 1
 29 387 l 1
 139 387 l 1
 139 730 l 1
 310 730 l 2
 433 730 525 699 587 638 c 0
552 125 m 0
 604 178 630 258 630 365 c 0
 630 472 604 552 552 605 c 0
 499 658 420 684 313 684 c 2
 188 684 l 1
 188 387 l 1
 442 387 l 1
 442 343 l 1
 188 343 l 1
 188 46 l 1
 313 46 l 2
 420 46 499 72 552 125 c 0
EndSplineSet
EndChar

StartChar: uni01C5
Encoding: 453 453 41
Width: 1157
Flags: W
LayerCount: 2
Fore
SplineSet
262 730 m 2
 385 730 477 699 539 638 c 0
 601 577 632 486 632 365 c 0
 632 244 601 153 539 92 c 0
 477 31 385 0 262 0 c 2
 90 0 l 1
 90 730 l 1
 262 730 l 2
502 125 m 0
 555 178 581 258 581 365 c 0
 581 472 555 552 502 605 c 0
 450 658 371 684 264 684 c 2
 140 684 l 1
 140 46 l 1
 264 46 l 2
 371 46 450 72 502 125 c 0
718 43 m 1
 1042 475 l 1
 1042 477 l 1
 718 477 l 1
 718 520 l 1
 1104 520 l 1
 1104 477 l 1
 780 45 l 1
 780 43 l 1
 1104 43 l 1
 1104 0 l 1
 718 0 l 1
 718 43 l 1
724 770 m 1
 783 770 l 1
 911 586 l 1
 913 586 l 1
 1041 770 l 1
 1100 770 l 1
 954 560 l 1
 870 560 l 1
 724 770 l 1
EndSplineSet
EndChar

StartChar: E
Encoding: 69 69 42
Width: 590
Flags: W
LayerCount: 2
Fore
SplineSet
90 730 m 1
 522 730 l 1
 522 684 l 1
 140 684 l 1
 140 410 l 1
 502 410 l 1
 502 365 l 1
 140 365 l 1
 140 46 l 1
 522 46 l 1
 522 0 l 1
 90 0 l 1
 90 730 l 1
EndSplineSet
EndChar

StartChar: Eacute
Encoding: 201 201 43
Width: 590
Flags: W
LayerCount: 2
Fore
SplineSet
90 730 m 1
 522 730 l 1
 522 684 l 1
 140 684 l 1
 140 410 l 1
 502 410 l 1
 502 365 l 1
 140 365 l 1
 140 46 l 1
 522 46 l 1
 522 0 l 1
 90 0 l 1
 90 730 l 1
280 770 m 1
 228 770 l 1
 341 980 l 1
 402 980 l 1
 280 770 l 1
EndSplineSet
EndChar

StartChar: Ebreve
Encoding: 276 276 44
Width: 590
Flags: W
LayerCount: 2
Fore
SplineSet
90 730 m 1
 522 730 l 1
 522 684 l 1
 140 684 l 1
 140 410 l 1
 502 410 l 1
 502 365 l 1
 140 365 l 1
 140 46 l 1
 522 46 l 1
 522 0 l 1
 90 0 l 1
 90 730 l 1
192 836 m 0
 160 860 141 893 136 934 c 1
 188 934 l 1
 193 905 207 882 228 865 c 0
 250 848 277 840 310 840 c 0
 343 840 370 848 392 865 c 0
 413 882 427 905 432 934 c 1
 484 934 l 1
 479 893 460 860 428 836 c 0
 396 810 357 798 310 798 c 0
 263 798 224 810 192 836 c 0
EndSplineSet
EndChar

StartChar: Ecaron
Encoding: 282 282 45
Width: 590
Flags: W
LayerCount: 2
Fore
SplineSet
90 730 m 1
 522 730 l 1
 522 684 l 1
 140 684 l 1
 140 410 l 1
 502 410 l 1
 502 365 l 1
 140 365 l 1
 140 46 l 1
 522 46 l 1
 522 0 l 1
 90 0 l 1
 90 730 l 1
122 980 m 1
 181 980 l 1
 309 796 l 1
 311 796 l 1
 439 980 l 1
 498 980 l 1
 352 770 l 1
 268 770 l 1
 122 980 l 1
EndSplineSet
EndChar

StartChar: Ecircumflex
Encoding: 202 202 46
Width: 590
Flags: W
LayerCount: 2
Fore
SplineSet
90 730 m 1
 522 730 l 1
 522 684 l 1
 140 684 l 1
 140 410 l 1
 502 410 l 1
 502 365 l 1
 140 365 l 1
 140 46 l 1
 522 46 l 1
 522 0 l 1
 90 0 l 1
 90 730 l 1
268 980 m 1
 352 980 l 1
 498 770 l 1
 439 770 l 1
 311 954 l 1
 309 954 l 1
 181 770 l 1
 122 770 l 1
 268 980 l 1
EndSplineSet
EndChar

StartChar: uni1EBE
Encoding: 7870 7870 47
Width: 590
Flags: W
LayerCount: 2
Fore
SplineSet
90 730 m 1
 522 730 l 1
 522 684 l 1
 140 684 l 1
 140 410 l 1
 502 410 l 1
 502 365 l 1
 140 365 l 1
 140 46 l 1
 522 46 l 1
 522 0 l 1
 90 0 l 1
 90 730 l 1
268 980 m 1
 352 980 l 1
 498 770 l 1
 439 770 l 1
 311 954 l 1
 309 954 l 1
 181 770 l 1
 122 770 l 1
 268 980 l 1
451 950 m 1
 399 950 l 1
 512 1160 l 1
 573 1160 l 1
 451 950 l 1
EndSplineSet
EndChar

StartChar: uni1EC6
Encoding: 7878 7878 48
Width: 590
Flags: W
LayerCount: 2
Fore
SplineSet
90 730 m 1
 522 730 l 1
 522 684 l 1
 140 684 l 1
 140 410 l 1
 502 410 l 1
 502 365 l 1
 140 365 l 1
 140 46 l 1
 522 46 l 1
 522 0 l 1
 90 0 l 1
 90 730 l 1
269 -104 m 1
 351 -104 l 1
 351 -186 l 1
 269 -186 l 1
 269 -104 l 1
268 980 m 1
 352 980 l 1
 498 770 l 1
 439 770 l 1
 311 954 l 1
 309 954 l 1
 181 770 l 1
 122 770 l 1
 268 980 l 1
EndSplineSet
EndChar

StartChar: uni1EC0
Encoding: 7872 7872 49
Width: 590
Flags: W
LayerCount: 2
Fore
SplineSet
90 730 m 1
 522 730 l 1
 522 684 l 1
 140 684 l 1
 140 410 l 1
 502 410 l 1
 502 365 l 1
 140 365 l 1
 140 46 l 1
 522 46 l 1
 522 0 l 1
 90 0 l 1
 90 730 l 1
268 980 m 1
 352 980 l 1
 498 770 l 1
 439 770 l 1
 311 954 l 1
 309 954 l 1
 181 770 l 1
 122 770 l 1
 268 980 l 1
47 1160 m 1
 109 1160 l 1
 221 950 l 1
 170 950 l 1
 47 1160 l 1
EndSplineSet
EndChar

StartChar: uni1EC2
Encoding: 7874 7874 50
Width: 590
Flags: W
LayerCount: 2
Fore
SplineSet
90 730 m 1
 522 730 l 1
 522 684 l 1
 140 684 l 1
 140 410 l 1
 502 410 l 1
 502 365 l 1
 140 365 l 1
 140 46 l 1
 522 46 l 1
 522 0 l 1
 90 0 l 1
 90 730 l 1
268 980 m 1
 352 980 l 1
 498 770 l 1
 439 770 l 1
 311 954 l 1
 309 954 l 1
 181 770 l 1
 122 770 l 1
 268 980 l 1
442 977 m 0
 445 993 447 1007 447 1018 c 0
 447 1037 441 1049 428 1056 c 0
 415 1063 391 1066 355 1066 c 0
 317 1066 277 1061 235 1050 c 1
 228 1091 l 1
 275 1102 320 1108 364 1108 c 0
 415 1108 450 1102 470 1092 c 0
 489 1080 499 1061 499 1032 c 0
 499 1019 497 1003 494 985 c 0
 491 967 487 951 482 938 c 1
 431 938 l 1
 435 948 439 961 442 977 c 0
EndSplineSet
EndChar

StartChar: uni1EC4
Encoding: 7876 7876 51
Width: 590
Flags: W
LayerCount: 2
Fore
SplineSet
90 730 m 1
 522 730 l 1
 522 684 l 1
 140 684 l 1
 140 410 l 1
 502 410 l 1
 502 365 l 1
 140 365 l 1
 140 46 l 1
 522 46 l 1
 522 0 l 1
 90 0 l 1
 90 730 l 1
268 980 m 1
 352 980 l 1
 498 770 l 1
 439 770 l 1
 311 954 l 1
 309 954 l 1
 181 770 l 1
 122 770 l 1
 268 980 l 1
350 1002 m 0
 332 1012 313 1024 294 1040 c 0
 265 1066 239 1079 217 1079 c 0
 206 1079 197 1073 192 1061 c 0
 187 1049 184 1028 184 999 c 1
 136 999 l 1
 136 1084 163 1127 217 1127 c 0
 233 1127 250 1122 270 1114 c 0
 288 1104 307 1092 326 1076 c 0
 355 1050 381 1037 403 1037 c 0
 414 1037 423 1043 428 1055 c 0
 433 1067 436 1088 436 1117 c 1
 484 1117 l 1
 484 1032 457 989 403 989 c 0
 387 989 370 994 350 1002 c 0
EndSplineSet
EndChar

StartChar: uni0204
Encoding: 516 516 52
Width: 590
Flags: W
LayerCount: 2
Fore
SplineSet
90 730 m 1
 522 730 l 1
 522 684 l 1
 140 684 l 1
 140 410 l 1
 502 410 l 1
 502 365 l 1
 140 365 l 1
 140 46 l 1
 522 46 l 1
 522 0 l 1
 90 0 l 1
 90 730 l 1
114 980 m 1
 176 980 l 1
 288 770 l 1
 237 770 l 1
 114 980 l 1
309 980 m 1
 371 980 l 1
 483 770 l 1
 432 770 l 1
 309 980 l 1
EndSplineSet
EndChar

StartChar: Edieresis
Encoding: 203 203 53
Width: 590
Flags: W
LayerCount: 2
Fore
SplineSet
90 730 m 1
 522 730 l 1
 522 684 l 1
 140 684 l 1
 140 410 l 1
 502 410 l 1
 502 365 l 1
 140 365 l 1
 140 46 l 1
 522 46 l 1
 522 0 l 1
 90 0 l 1
 90 730 l 1
147 916 m 1
 229 916 l 1
 229 834 l 1
 147 834 l 1
 147 916 l 1
392 916 m 1
 473 916 l 1
 473 834 l 1
 392 834 l 1
 392 916 l 1
EndSplineSet
EndChar

StartChar: Edotaccent
Encoding: 278 278 54
Width: 590
Flags: W
LayerCount: 2
Fore
SplineSet
90 730 m 1
 522 730 l 1
 522 684 l 1
 140 684 l 1
 140 410 l 1
 502 410 l 1
 502 365 l 1
 140 365 l 1
 140 46 l 1
 522 46 l 1
 522 0 l 1
 90 0 l 1
 90 730 l 1
269 916 m 1
 351 916 l 1
 351 834 l 1
 269 834 l 1
 269 916 l 1
EndSplineSet
EndChar

StartChar: uni1EB8
Encoding: 7864 7864 55
Width: 590
Flags: W
LayerCount: 2
Fore
SplineSet
90 730 m 1
 522 730 l 1
 522 684 l 1
 140 684 l 1
 140 410 l 1
 502 410 l 1
 502 365 l 1
 140 365 l 1
 140 46 l 1
 522 46 l 1
 522 0 l 1
 90 0 l 1
 90 730 l 1
269 -104 m 1
 351 -104 l 1
 351 -186 l 1
 269 -186 l 1
 269 -104 l 1
EndSplineSet
EndChar

StartChar: Egrave
Encoding: 200 200 56
Width: 590
Flags: W
LayerCount: 2
Fore
SplineSet
90 730 m 1
 522 730 l 1
 522 684 l 1
 140 684 l 1
 140 410 l 1
 502 410 l 1
 502 365 l 1
 140 365 l 1
 140 46 l 1
 522 46 l 1
 522 0 l 1
 90 0 l 1
 90 730 l 1
217 980 m 1
 279 980 l 1
 391 770 l 1
 340 770 l 1
 217 980 l 1
EndSplineSet
EndChar

StartChar: uni1EBA
Encoding: 7866 7866 57
Width: 590
Flags: W
LayerCount: 2
Fore
SplineSet
90 730 m 1
 522 730 l 1
 522 684 l 1
 140 684 l 1
 140 410 l 1
 502 410 l 1
 502 365 l 1
 140 365 l 1
 140 46 l 1
 522 46 l 1
 522 0 l 1
 90 0 l 1
 90 730 l 1
388 847 m 0
 391 863 393 877 393 888 c 0
 393 907 387 919 374 926 c 0
 361 933 337 936 301 936 c 0
 263 936 223 931 181 920 c 1
 174 961 l 1
 221 972 266 978 310 978 c 0
 361 978 396 972 416 962 c 0
 435 950 445 931 445 902 c 0
 445 889 443 873 440 855 c 0
 437 837 433 821 428 808 c 1
 377 808 l 1
 381 818 385 831 388 847 c 0
EndSplineSet
EndChar

StartChar: uni0206
Encoding: 518 518 58
Width: 590
Flags: W
LayerCount: 2
Fore
SplineSet
90 730 m 1
 522 730 l 1
 522 684 l 1
 140 684 l 1
 140 410 l 1
 502 410 l 1
 502 365 l 1
 140 365 l 1
 140 46 l 1
 522 46 l 1
 522 0 l 1
 90 0 l 1
 90 730 l 1
428 914 m 0
 460 890 479 857 484 816 c 1
 432 816 l 1
 427 845 413 868 392 885 c 0
 370 902 343 910 310 910 c 0
 277 910 250 902 228 885 c 0
 207 868 193 845 188 816 c 1
 136 816 l 1
 141 857 160 890 192 914 c 0
 224 940 263 952 310 952 c 0
 357 952 396 940 428 914 c 0
EndSplineSet
EndChar

StartChar: Emacron
Encoding: 274 274 59
Width: 590
Flags: W
LayerCount: 2
Fore
SplineSet
90 730 m 1
 522 730 l 1
 522 684 l 1
 140 684 l 1
 140 410 l 1
 502 410 l 1
 502 365 l 1
 140 365 l 1
 140 46 l 1
 522 46 l 1
 522 0 l 1
 90 0 l 1
 90 730 l 1
136 896 m 1
 485 896 l 1
 485 854 l 1
 136 854 l 1
 136 896 l 1
EndSplineSet
EndChar

StartChar: Eogonek
Encoding: 280 280 60
Width: 590
Flags: W
LayerCount: 2
Fore
SplineSet
609 -198 m 1
 577 -212 542 -219 504 -219 c 0
 455 -219 419 -210 398 -192 c 0
 376 -175 365 -153 365 -127 c 0
 365 -105 372 -83 387 -62 c 0
 402 -41 423 -20 451 0 c 1
 90 0 l 1
 90 730 l 1
 522 730 l 1
 522 684 l 1
 140 684 l 1
 140 410 l 1
 502 410 l 1
 502 365 l 1
 140 365 l 1
 140 46 l 1
 522 46 l 1
 522 0 l 1
 487 -19 460 -40 440 -60 c 0
 422 -82 412 -102 412 -121 c 0
 412 -141 421 -155 439 -164 c 0
 457 -173 480 -177 507 -177 c 0
 540 -177 571 -171 598 -158 c 1
 609 -198 l 1
EndSplineSet
EndChar

StartChar: uni1EBC
Encoding: 7868 7868 61
Width: 590
Flags: W
LayerCount: 2
Fore
SplineSet
90 730 m 1
 522 730 l 1
 522 684 l 1
 140 684 l 1
 140 410 l 1
 502 410 l 1
 502 365 l 1
 140 365 l 1
 140 46 l 1
 522 46 l 1
 522 0 l 1
 90 0 l 1
 90 730 l 1
350 820 m 0
 332 828 313 841 294 857 c 0
 265 883 239 896 217 896 c 0
 206 896 197 890 192 878 c 0
 187 866 184 845 184 816 c 1
 136 816 l 1
 136 901 163 944 217 944 c 0
 233 944 250 940 270 930 c 0
 288 922 307 909 326 893 c 0
 355 867 381 854 403 854 c 0
 414 854 423 860 428 872 c 0
 433 884 436 905 436 934 c 1
 484 934 l 1
 484 849 457 806 403 806 c 0
 387 806 370 810 350 820 c 0
EndSplineSet
EndChar

StartChar: F
Encoding: 70 70 62
Width: 574
Flags: W
LayerCount: 2
Fore
SplineSet
90 730 m 1
 522 730 l 1
 522 684 l 1
 140 684 l 1
 140 405 l 1
 502 405 l 1
 502 359 l 1
 140 359 l 1
 140 0 l 1
 90 0 l 1
 90 730 l 1
EndSplineSet
EndChar

StartChar: G
Encoding: 71 71 63
Width: 776
Flags: W
LayerCount: 2
Fore
SplineSet
700 409 m 1
 700 45 l 1
 665 28 623 15 574 5 c 0
 526 -5 478 -10 431 -10 c 0
 351 -10 282 5 224 35 c 0
 166 65 122 108 91 164 c 0
 60 221 45 288 45 365 c 0
 45 442 60 509 91 566 c 0
 122 622 166 665 224 695 c 0
 282 725 351 740 431 740 c 0
 526 740 606 720 673 679 c 1
 652 639 l 1
 589 676 516 694 431 694 c 0
 325 694 242 665 184 608 c 0
 124 550 95 469 95 365 c 0
 95 261 124 180 184 122 c 0
 242 65 325 36 431 36 c 0
 470 36 508 40 547 47 c 0
 586 54 620 64 650 77 c 1
 650 364 l 1
 359 364 l 1
 359 409 l 1
 700 409 l 1
EndSplineSet
EndChar

StartChar: Gbreve
Encoding: 286 286 64
Width: 776
Flags: W
LayerCount: 2
Fore
SplineSet
700 409 m 1
 700 45 l 1
 665 28 623 15 574 5 c 0
 526 -5 478 -10 431 -10 c 0
 351 -10 282 5 224 35 c 0
 166 65 122 108 91 164 c 0
 60 221 45 288 45 365 c 0
 45 442 60 509 91 566 c 0
 122 622 166 665 224 695 c 0
 282 725 351 740 431 740 c 0
 526 740 606 720 673 679 c 1
 652 639 l 1
 589 676 516 694 431 694 c 0
 325 694 242 665 184 608 c 0
 124 550 95 469 95 365 c 0
 95 261 124 180 184 122 c 0
 242 65 325 36 431 36 c 0
 470 36 508 40 547 47 c 0
 586 54 620 64 650 77 c 1
 650 364 l 1
 359 364 l 1
 359 409 l 1
 700 409 l 1
290 836 m 0
 258 860 239 893 234 934 c 1
 286 934 l 1
 291 905 305 882 326 865 c 0
 348 848 375 840 408 840 c 0
 441 840 468 848 490 865 c 0
 511 882 525 905 530 934 c 1
 582 934 l 1
 577 893 558 860 526 836 c 0
 494 810 455 798 408 798 c 0
 361 798 322 810 290 836 c 0
EndSplineSet
EndChar

StartChar: Gcaron
Encoding: 486 486 65
Width: 776
Flags: W
LayerCount: 2
Fore
SplineSet
700 409 m 1
 700 45 l 1
 665 28 623 15 574 5 c 0
 526 -5 478 -10 431 -10 c 0
 351 -10 282 5 224 35 c 0
 166 65 122 108 91 164 c 0
 60 221 45 288 45 365 c 0
 45 442 60 509 91 566 c 0
 122 622 166 665 224 695 c 0
 282 725 351 740 431 740 c 0
 526 740 606 720 673 679 c 1
 652 639 l 1
 589 676 516 694 431 694 c 0
 325 694 242 665 184 608 c 0
 124 550 95 469 95 365 c 0
 95 261 124 180 184 122 c 0
 242 65 325 36 431 36 c 0
 470 36 508 40 547 47 c 0
 586 54 620 64 650 77 c 1
 650 364 l 1
 359 364 l 1
 359 409 l 1
 700 409 l 1
221 980 m 1
 280 980 l 1
 408 796 l 1
 410 796 l 1
 538 980 l 1
 597 980 l 1
 451 770 l 1
 367 770 l 1
 221 980 l 1
EndSplineSet
EndChar

StartChar: Gcircumflex
Encoding: 284 284 66
Width: 776
Flags: W
LayerCount: 2
Fore
SplineSet
700 409 m 1
 700 45 l 1
 665 28 623 15 574 5 c 0
 526 -5 478 -10 431 -10 c 0
 351 -10 282 5 224 35 c 0
 166 65 122 108 91 164 c 0
 60 221 45 288 45 365 c 0
 45 442 60 509 91 566 c 0
 122 622 166 665 224 695 c 0
 282 725 351 740 431 740 c 0
 526 740 606 720 673 679 c 1
 652 639 l 1
 589 676 516 694 431 694 c 0
 325 694 242 665 184 608 c 0
 124 550 95 469 95 365 c 0
 95 261 124 180 184 122 c 0
 242 65 325 36 431 36 c 0
 470 36 508 40 547 47 c 0
 586 54 620 64 650 77 c 1
 650 364 l 1
 359 364 l 1
 359 409 l 1
 700 409 l 1
367 980 m 1
 451 980 l 1
 597 770 l 1
 538 770 l 1
 410 954 l 1
 408 954 l 1
 280 770 l 1
 221 770 l 1
 367 980 l 1
EndSplineSet
EndChar

StartChar: uni0122
Encoding: 290 290 67
Width: 776
Flags: W
LayerCount: 2
Fore
SplineSet
700 409 m 1
 700 45 l 1
 665 28 623 15 574 5 c 0
 526 -5 478 -10 431 -10 c 0
 351 -10 282 5 224 35 c 0
 166 65 122 108 91 164 c 0
 60 221 45 288 45 365 c 0
 45 442 60 509 91 566 c 0
 122 622 166 665 224 695 c 0
 282 725 351 740 431 740 c 0
 526 740 606 720 673 679 c 1
 652 639 l 1
 589 676 516 694 431 694 c 0
 325 694 242 665 184 608 c 0
 124 550 95 469 95 365 c 0
 95 261 124 180 184 122 c 0
 242 65 325 36 431 36 c 0
 470 36 508 40 547 47 c 0
 586 54 620 64 650 77 c 1
 650 364 l 1
 359 364 l 1
 359 409 l 1
 700 409 l 1
373 -250 m 1
 321 -250 l 1
 434 -40 l 1
 495 -40 l 1
 373 -250 l 1
EndSplineSet
EndChar

StartChar: Gdotaccent
Encoding: 288 288 68
Width: 776
Flags: W
LayerCount: 2
Fore
SplineSet
700 409 m 1
 700 45 l 1
 665 28 623 15 574 5 c 0
 526 -5 478 -10 431 -10 c 0
 351 -10 282 5 224 35 c 0
 166 65 122 108 91 164 c 0
 60 221 45 288 45 365 c 0
 45 442 60 509 91 566 c 0
 122 622 166 665 224 695 c 0
 282 725 351 740 431 740 c 0
 526 740 606 720 673 679 c 1
 652 639 l 1
 589 676 516 694 431 694 c 0
 325 694 242 665 184 608 c 0
 124 550 95 469 95 365 c 0
 95 261 124 180 184 122 c 0
 242 65 325 36 431 36 c 0
 470 36 508 40 547 47 c 0
 586 54 620 64 650 77 c 1
 650 364 l 1
 359 364 l 1
 359 409 l 1
 700 409 l 1
367 916 m 1
 449 916 l 1
 449 834 l 1
 367 834 l 1
 367 916 l 1
EndSplineSet
EndChar

StartChar: H
Encoding: 72 72 69
Width: 705
Flags: W
LayerCount: 2
Fore
SplineSet
565 730 m 1
 615 730 l 1
 615 0 l 1
 565 0 l 1
 565 365 l 1
 140 365 l 1
 140 0 l 1
 90 0 l 1
 90 730 l 1
 140 730 l 1
 140 412 l 1
 565 412 l 1
 565 730 l 1
EndSplineSet
EndChar

StartChar: Hbar
Encoding: 294 294 70
Width: 772
Flags: W
LayerCount: 2
Fore
SplineSet
743 618 m 1
 743 574 l 1
 648 574 l 1
 648 0 l 1
 598 0 l 1
 598 365 l 1
 173 365 l 1
 173 0 l 1
 123 0 l 1
 123 574 l 1
 29 574 l 1
 29 618 l 1
 123 618 l 1
 123 730 l 1
 173 730 l 1
 173 618 l 1
 598 618 l 1
 598 730 l 1
 648 730 l 1
 648 618 l 1
 743 618 l 1
598 412 m 1
 598 574 l 1
 173 574 l 1
 173 412 l 1
 598 412 l 1
EndSplineSet
EndChar

StartChar: Hcircumflex
Encoding: 292 292 71
Width: 705
Flags: W
LayerCount: 2
Fore
SplineSet
565 730 m 1
 615 730 l 1
 615 0 l 1
 565 0 l 1
 565 365 l 1
 140 365 l 1
 140 0 l 1
 90 0 l 1
 90 730 l 1
 140 730 l 1
 140 412 l 1
 565 412 l 1
 565 730 l 1
311 980 m 1
 395 980 l 1
 541 770 l 1
 482 770 l 1
 354 954 l 1
 352 954 l 1
 224 770 l 1
 165 770 l 1
 311 980 l 1
EndSplineSet
EndChar

StartChar: I
Encoding: 73 73 72
Width: 250
Flags: W
LayerCount: 2
Fore
SplineSet
99 730 m 1
 150 730 l 1
 150 0 l 1
 99 0 l 1
 99 730 l 1
EndSplineSet
EndChar

StartChar: Iacute
Encoding: 205 205 73
Width: 250
Flags: W
LayerCount: 2
Fore
SplineSet
99 730 m 1
 150 730 l 1
 150 0 l 1
 99 0 l 1
 99 730 l 1
95 770 m 1
 43 770 l 1
 156 980 l 1
 217 980 l 1
 95 770 l 1
EndSplineSet
EndChar

StartChar: Ibreve
Encoding: 300 300 74
Width: 250
Flags: W
LayerCount: 2
Fore
SplineSet
99 730 m 1
 150 730 l 1
 150 0 l 1
 99 0 l 1
 99 730 l 1
7 836 m 0
 -25 860 -44 893 -49 934 c 1
 3 934 l 1
 8 905 22 882 44 865 c 0
 65 848 92 840 125 840 c 0
 158 840 185 848 206 865 c 0
 228 882 242 905 247 934 c 1
 299 934 l 1
 294 893 275 860 243 836 c 0
 211 810 172 798 125 798 c 0
 78 798 39 810 7 836 c 0
EndSplineSet
EndChar

StartChar: Icircumflex
Encoding: 206 206 75
Width: 250
Flags: W
LayerCount: 2
Fore
SplineSet
99 730 m 1
 150 730 l 1
 150 0 l 1
 99 0 l 1
 99 730 l 1
83 980 m 1
 167 980 l 1
 313 770 l 1
 254 770 l 1
 126 954 l 1
 124 954 l 1
 -4 770 l 1
 -63 770 l 1
 83 980 l 1
EndSplineSet
EndChar

StartChar: uni0208
Encoding: 520 520 76
Width: 250
Flags: W
LayerCount: 2
Fore
SplineSet
99 730 m 1
 150 730 l 1
 150 0 l 1
 99 0 l 1
 99 730 l 1
-71 980 m 1
 -9 980 l 1
 103 770 l 1
 52 770 l 1
 -71 980 l 1
124 980 m 1
 186 980 l 1
 298 770 l 1
 247 770 l 1
 124 980 l 1
EndSplineSet
EndChar

StartChar: Idieresis
Encoding: 207 207 77
Width: 250
Flags: W
LayerCount: 2
Fore
SplineSet
99 730 m 1
 150 730 l 1
 150 0 l 1
 99 0 l 1
 99 730 l 1
-38 916 m 1
 44 916 l 1
 44 834 l 1
 -38 834 l 1
 -38 916 l 1
207 916 m 1
 288 916 l 1
 288 834 l 1
 207 834 l 1
 207 916 l 1
EndSplineSet
EndChar

StartChar: Idotaccent
Encoding: 304 304 78
Width: 250
Flags: W
LayerCount: 2
Fore
SplineSet
99 730 m 1
 150 730 l 1
 150 0 l 1
 99 0 l 1
 99 730 l 1
84 916 m 1
 166 916 l 1
 166 834 l 1
 84 834 l 1
 84 916 l 1
EndSplineSet
EndChar

StartChar: uni1ECA
Encoding: 7882 7882 79
Width: 250
Flags: W
LayerCount: 2
Fore
SplineSet
99 730 m 1
 150 730 l 1
 150 0 l 1
 99 0 l 1
 99 730 l 1
84 -104 m 1
 166 -104 l 1
 166 -186 l 1
 84 -186 l 1
 84 -104 l 1
EndSplineSet
EndChar

StartChar: Igrave
Encoding: 204 204 80
Width: 250
Flags: W
LayerCount: 2
Fore
SplineSet
99 730 m 1
 150 730 l 1
 150 0 l 1
 99 0 l 1
 99 730 l 1
32 980 m 1
 94 980 l 1
 206 770 l 1
 155 770 l 1
 32 980 l 1
EndSplineSet
EndChar

StartChar: uni1EC8
Encoding: 7880 7880 81
Width: 250
Flags: W
LayerCount: 2
Fore
SplineSet
99 730 m 1
 150 730 l 1
 150 0 l 1
 99 0 l 1
 99 730 l 1
203 847 m 0
 206 863 208 877 208 888 c 0
 208 907 202 919 189 926 c 0
 176 933 152 936 116 936 c 0
 78 936 38 931 -4 920 c 1
 -11 961 l 1
 36 972 81 978 125 978 c 0
 176 978 211 972 230 962 c 0
 250 950 260 931 260 902 c 0
 260 889 258 873 255 855 c 0
 252 837 248 821 243 808 c 1
 192 808 l 1
 196 818 200 831 203 847 c 0
EndSplineSet
EndChar

StartChar: uni020A
Encoding: 522 522 82
Width: 250
Flags: W
LayerCount: 2
Fore
SplineSet
99 730 m 1
 150 730 l 1
 150 0 l 1
 99 0 l 1
 99 730 l 1
243 914 m 0
 275 890 294 857 299 816 c 1
 247 816 l 1
 242 845 228 868 206 885 c 0
 185 902 158 910 125 910 c 0
 92 910 65 902 44 885 c 0
 22 868 8 845 3 816 c 1
 -49 816 l 1
 -44 857 -25 890 7 914 c 0
 39 940 78 952 125 952 c 0
 172 952 211 940 243 914 c 0
EndSplineSet
EndChar

StartChar: Imacron
Encoding: 298 298 83
Width: 250
Flags: W
LayerCount: 2
Fore
SplineSet
99 730 m 1
 150 730 l 1
 150 0 l 1
 99 0 l 1
 99 730 l 1
-49 896 m 1
 300 896 l 1
 300 854 l 1
 -49 854 l 1
 -49 896 l 1
EndSplineSet
EndChar

StartChar: Iogonek
Encoding: 302 302 84
Width: 250
Flags: W
LayerCount: 2
Fore
SplineSet
238 -198 m 1
 206 -212 171 -219 133 -219 c 0
 84 -219 48 -210 26 -192 c 0
 5 -175 -6 -153 -6 -127 c 0
 -6 -103 3 -79 21 -55 c 0
 39 -31 65 -8 99 13 c 1
 99 730 l 1
 150 730 l 1
 150 0 l 1
 151 0 l 1
 116 -19 88 -40 70 -60 c 0
 50 -82 41 -102 41 -121 c 0
 41 -141 50 -155 68 -164 c 0
 86 -173 109 -177 136 -177 c 0
 169 -177 200 -171 227 -158 c 1
 238 -198 l 1
EndSplineSet
EndChar

StartChar: Itilde
Encoding: 296 296 85
Width: 250
Flags: W
LayerCount: 2
Fore
SplineSet
99 730 m 1
 150 730 l 1
 150 0 l 1
 99 0 l 1
 99 730 l 1
166 820 m 0
 146 828 128 841 109 857 c 0
 80 883 54 896 32 896 c 0
 21 896 12 890 7 878 c 0
 2 866 -1 845 -1 816 c 1
 -49 816 l 1
 -49 901 -22 944 32 944 c 0
 48 944 66 940 84 930 c 0
 104 922 122 909 141 893 c 0
 170 867 196 854 218 854 c 0
 229 854 238 860 243 872 c 0
 248 884 251 905 251 934 c 1
 299 934 l 1
 299 849 272 806 218 806 c 0
 202 806 184 810 166 820 c 0
EndSplineSet
EndChar

StartChar: J
Encoding: 74 74 86
Width: 555
Flags: W
LayerCount: 2
Fore
SplineSet
110 5 m 0
 74 15 41 29 12 48 c 1
 33 90 l 1
 59 73 89 59 122 50 c 0
 155 41 189 36 223 36 c 0
 291 36 342 56 374 96 c 0
 408 136 424 197 424 280 c 2
 424 730 l 1
 474 730 l 1
 474 280 l 2
 474 182 454 109 413 62 c 0
 372 14 310 -10 226 -10 c 0
 186 -10 148 -5 110 5 c 0
EndSplineSet
EndChar

StartChar: Jcircumflex
Encoding: 308 308 87
Width: 555
Flags: W
LayerCount: 2
Fore
SplineSet
110 5 m 0
 74 15 41 29 12 48 c 1
 33 90 l 1
 59 73 89 59 122 50 c 0
 155 41 189 36 223 36 c 0
 291 36 342 56 374 96 c 0
 408 136 424 197 424 280 c 2
 424 730 l 1
 474 730 l 1
 474 280 l 2
 474 182 454 109 413 62 c 0
 372 14 310 -10 226 -10 c 0
 186 -10 148 -5 110 5 c 0
236 980 m 1
 320 980 l 1
 466 770 l 1
 407 770 l 1
 279 954 l 1
 277 954 l 1
 149 770 l 1
 90 770 l 1
 236 980 l 1
EndSplineSet
EndChar

StartChar: K
Encoding: 75 75 88
Width: 621
Flags: W
LayerCount: 2
Fore
SplineSet
90 730 m 1
 140 730 l 1
 140 410 l 1
 142 410 l 1
 518 730 l 1
 585 730 l 1
 184 388 l 1
 595 0 l 1
 530 0 l 1
 142 367 l 1
 140 367 l 1
 140 0 l 1
 90 0 l 1
 90 730 l 1
EndSplineSet
EndChar

StartChar: uni0136
Encoding: 310 310 89
Width: 621
Flags: W
LayerCount: 2
Fore
SplineSet
90 730 m 1
 140 730 l 1
 140 410 l 1
 142 410 l 1
 518 730 l 1
 585 730 l 1
 184 388 l 1
 595 0 l 1
 530 0 l 1
 142 367 l 1
 140 367 l 1
 140 0 l 1
 90 0 l 1
 90 730 l 1
254 -250 m 1
 202 -250 l 1
 315 -40 l 1
 376 -40 l 1
 254 -250 l 1
EndSplineSet
EndChar

StartChar: L
Encoding: 76 76 90
Width: 584
Flags: W
LayerCount: 2
Fore
SplineSet
90 730 m 1
 141 730 l 1
 141 46 l 1
 540 46 l 1
 540 0 l 1
 90 0 l 1
 90 730 l 1
EndSplineSet
EndChar

StartChar: uni01C7
Encoding: 455 455 91
Width: 1159
Flags: W
LayerCount: 2
Fore
SplineSet
90 730 m 1
 141 730 l 1
 141 46 l 1
 540 46 l 1
 540 0 l 1
 90 0 l 1
 90 730 l 1
714 5 m 0
 678 15 645 29 616 48 c 1
 637 90 l 1
 663 73 693 59 726 50 c 0
 759 41 793 36 827 36 c 0
 895 36 946 56 978 96 c 0
 1012 136 1028 197 1028 280 c 2
 1028 730 l 1
 1078 730 l 1
 1078 280 l 2
 1078 182 1058 109 1017 62 c 0
 976 14 914 -10 830 -10 c 0
 790 -10 752 -5 714 5 c 0
EndSplineSet
EndChar

StartChar: Lacute
Encoding: 313 313 92
Width: 584
Flags: W
LayerCount: 2
Fore
SplineSet
90 730 m 1
 141 730 l 1
 141 46 l 1
 540 46 l 1
 540 0 l 1
 90 0 l 1
 90 730 l 1
263 770 m 1
 211 770 l 1
 324 980 l 1
 385 980 l 1
 263 770 l 1
EndSplineSet
EndChar

StartChar: Lcaron
Encoding: 317 317 93
Width: 603
Flags: W
LayerCount: 2
Fore
SplineSet
90 730 m 1
 141 730 l 1
 141 46 l 1
 540 46 l 1
 540 0 l 1
 90 0 l 1
 90 730 l 1
496 770 m 1
 554 770 l 1
 443 470 l 1
 395 470 l 1
 496 770 l 1
EndSplineSet
EndChar

StartChar: uni013B
Encoding: 315 315 94
Width: 584
Flags: W
LayerCount: 2
Fore
SplineSet
90 730 m 1
 141 730 l 1
 141 46 l 1
 540 46 l 1
 540 0 l 1
 90 0 l 1
 90 730 l 1
257 -250 m 1
 205 -250 l 1
 318 -40 l 1
 379 -40 l 1
 257 -250 l 1
EndSplineSet
EndChar

StartChar: Ldot
Encoding: 319 319 95
Width: 616
Flags: W
LayerCount: 2
Fore
SplineSet
90 730 m 1
 141 730 l 1
 141 46 l 1
 540 46 l 1
 540 0 l 1
 90 0 l 1
 90 730 l 1
423 416 m 1
 506 416 l 1
 506 333 l 1
 423 333 l 1
 423 416 l 1
EndSplineSet
EndChar

StartChar: uni01C8
Encoding: 456 456 96
Width: 891
Flags: W
LayerCount: 2
Fore
SplineSet
90 730 m 1
 141 730 l 1
 141 46 l 1
 540 46 l 1
 540 0 l 1
 90 0 l 1
 90 730 l 1
726 733 m 1
 802 733 l 1
 802 657 l 1
 726 657 l 1
 726 733 l 1
656 -172 m 0
 688 -161 709 -142 721 -116 c 0
 733 -88 739 -48 739 7 c 2
 739 520 l 1
 789 520 l 1
 789 7 l 2
 789 -57 781 -106 765 -139 c 0
 749 -172 722 -196 684 -210 c 0
 645 -223 589 -230 516 -230 c 1
 515 -187 l 1
 578 -187 626 -182 656 -172 c 0
EndSplineSet
EndChar

StartChar: Lslash
Encoding: 321 321 97
Width: 668
Flags: W
LayerCount: 2
Fore
SplineSet
225 46 m 1
 624 46 l 1
 624 0 l 1
 174 0 l 1
 174 330 l 1
 32 267 l 1
 15 307 l 1
 174 377 l 1
 174 730 l 1
 225 730 l 1
 225 400 l 1
 368 463 l 1
 385 423 l 1
 225 352 l 1
 225 46 l 1
EndSplineSet
EndChar

StartChar: M
Encoding: 77 77 98
Width: 857
Flags: W
LayerCount: 2
Fore
SplineSet
90 730 m 1
 157 730 l 1
 427 210 l 1
 429 210 l 1
 700 730 l 1
 767 730 l 1
 767 0 l 1
 717 0 l 1
 717 658 l 1
 715 658 l 1
 454 155 l 1
 403 155 l 1
 142 658 l 1
 140 658 l 1
 140 0 l 1
 90 0 l 1
 90 730 l 1
EndSplineSet
EndChar

StartChar: N
Encoding: 78 78 99
Width: 715
Flags: W
LayerCount: 2
Fore
SplineSet
90 730 m 1
 151 730 l 1
 573 73 l 1
 575 73 l 1
 575 730 l 1
 625 730 l 1
 625 0 l 1
 564 0 l 1
 142 657 l 1
 140 657 l 1
 140 0 l 1
 90 0 l 1
 90 730 l 1
EndSplineSet
EndChar

StartChar: uni01CA
Encoding: 458 458 100
Width: 1270
Flags: W
LayerCount: 2
Fore
SplineSet
90 730 m 1
 151 730 l 1
 573 73 l 1
 575 73 l 1
 575 730 l 1
 625 730 l 1
 625 0 l 1
 564 0 l 1
 142 657 l 1
 140 657 l 1
 140 0 l 1
 90 0 l 1
 90 730 l 1
826 5 m 0
 788 15 756 29 727 48 c 1
 748 90 l 1
 774 73 804 59 837 50 c 0
 870 41 904 36 938 36 c 0
 1006 36 1056 56 1090 96 c 0
 1122 136 1139 197 1139 280 c 2
 1139 730 l 1
 1189 730 l 1
 1189 280 l 2
 1189 182 1169 109 1128 62 c 0
 1087 14 1025 -10 941 -10 c 0
 901 -10 862 -5 826 5 c 0
EndSplineSet
EndChar

StartChar: Nacute
Encoding: 323 323 101
Width: 715
Flags: W
LayerCount: 2
Fore
SplineSet
90 730 m 1
 151 730 l 1
 573 73 l 1
 575 73 l 1
 575 730 l 1
 625 730 l 1
 625 0 l 1
 564 0 l 1
 142 657 l 1
 140 657 l 1
 140 0 l 1
 90 0 l 1
 90 730 l 1
328 770 m 1
 276 770 l 1
 389 980 l 1
 450 980 l 1
 328 770 l 1
EndSplineSet
EndChar

StartChar: Ncaron
Encoding: 327 327 102
Width: 715
Flags: W
LayerCount: 2
Fore
SplineSet
90 730 m 1
 151 730 l 1
 573 73 l 1
 575 73 l 1
 575 730 l 1
 625 730 l 1
 625 0 l 1
 564 0 l 1
 142 657 l 1
 140 657 l 1
 140 0 l 1
 90 0 l 1
 90 730 l 1
170 980 m 1
 229 980 l 1
 357 796 l 1
 359 796 l 1
 487 980 l 1
 546 980 l 1
 400 770 l 1
 316 770 l 1
 170 980 l 1
EndSplineSet
EndChar

StartChar: uni0145
Encoding: 325 325 103
Width: 715
Flags: W
LayerCount: 2
Fore
SplineSet
90 730 m 1
 151 730 l 1
 573 73 l 1
 575 73 l 1
 575 730 l 1
 625 730 l 1
 625 0 l 1
 564 0 l 1
 142 657 l 1
 140 657 l 1
 140 0 l 1
 90 0 l 1
 90 730 l 1
322 -250 m 1
 270 -250 l 1
 383 -40 l 1
 444 -40 l 1
 322 -250 l 1
EndSplineSet
EndChar

StartChar: Eng
Encoding: 330 330 104
Width: 715
Flags: W
LayerCount: 2
Fore
SplineSet
625 730 m 1
 625 -49 l 2
 625 -106 613 -148 588 -174 c 0
 564 -201 526 -214 473 -214 c 0
 440 -214 410 -209 382 -199 c 1
 392 -156 l 1
 416 -165 441 -170 466 -170 c 0
 505 -170 534 -160 550 -142 c 0
 568 -122 576 -92 576 -49 c 2
 576 -19 l 1
 142 653 l 1
 140 653 l 1
 140 0 l 1
 90 0 l 1
 90 730 l 1
 151 730 l 1
 573 77 l 1
 575 77 l 1
 575 730 l 1
 625 730 l 1
EndSplineSet
EndChar

StartChar: uni01CB
Encoding: 459 459 105
Width: 1022
Flags: W
LayerCount: 2
Fore
SplineSet
90 730 m 1
 151 730 l 1
 573 73 l 1
 575 73 l 1
 575 730 l 1
 625 730 l 1
 625 0 l 1
 564 0 l 1
 142 657 l 1
 140 657 l 1
 140 0 l 1
 90 0 l 1
 90 730 l 1
857 733 m 1
 933 733 l 1
 933 657 l 1
 857 657 l 1
 857 733 l 1
788 -172 m 0
 818 -161 840 -142 852 -116 c 0
 864 -88 870 -48 870 7 c 2
 870 520 l 1
 920 520 l 1
 920 7 l 2
 920 -57 912 -106 896 -139 c 0
 880 -172 853 -196 814 -210 c 0
 776 -223 720 -230 647 -230 c 1
 646 -187 l 1
 709 -187 756 -182 788 -172 c 0
EndSplineSet
EndChar

StartChar: Ntilde
Encoding: 209 209 106
Width: 715
Flags: W
LayerCount: 2
Fore
SplineSet
90 730 m 1
 151 730 l 1
 573 73 l 1
 575 73 l 1
 575 730 l 1
 625 730 l 1
 625 0 l 1
 564 0 l 1
 142 657 l 1
 140 657 l 1
 140 0 l 1
 90 0 l 1
 90 730 l 1
398 820 m 0
 380 828 361 841 342 857 c 0
 313 883 287 896 265 896 c 0
 254 896 245 890 240 878 c 0
 235 866 232 845 232 816 c 1
 184 816 l 1
 184 901 211 944 265 944 c 0
 281 944 298 940 318 930 c 0
 336 922 355 909 374 893 c 0
 403 867 429 854 451 854 c 0
 462 854 471 860 476 872 c 0
 481 884 484 905 484 934 c 1
 532 934 l 1
 532 849 505 806 451 806 c 0
 435 806 418 810 398 820 c 0
EndSplineSet
EndChar

StartChar: O
Encoding: 79 79 107
Width: 798
Flags: W
LayerCount: 2
Fore
SplineSet
213 36 m 0
 160 68 118 111 89 168 c 0
 60 225 45 290 45 365 c 0
 45 440 60 505 89 562 c 0
 118 619 160 662 213 694 c 0
 266 724 328 740 399 740 c 0
 470 740 532 724 585 694 c 0
 638 662 680 619 709 562 c 0
 738 505 753 440 753 365 c 0
 753 290 738 225 709 168 c 0
 680 111 638 68 585 36 c 0
 532 6 470 -10 399 -10 c 0
 328 -10 266 6 213 36 c 0
558 76 m 0
 604 104 640 142 665 192 c 0
 690 242 703 300 703 365 c 0
 703 430 690 488 665 538 c 0
 640 588 604 626 558 654 c 0
 513 680 460 694 399 694 c 0
 338 694 285 680 240 654 c 0
 194 626 158 588 133 538 c 0
 108 488 95 430 95 365 c 0
 95 300 108 242 133 192 c 0
 158 142 194 104 240 76 c 0
 285 50 338 36 399 36 c 0
 460 36 513 50 558 76 c 0
EndSplineSet
EndChar

StartChar: Oacute
Encoding: 211 211 108
Width: 798
Flags: W
LayerCount: 2
Fore
SplineSet
213 36 m 0
 160 68 118 111 89 168 c 0
 60 225 45 290 45 365 c 0
 45 440 60 505 89 562 c 0
 118 619 160 662 213 694 c 0
 266 724 328 740 399 740 c 0
 470 740 532 724 585 694 c 0
 638 662 680 619 709 562 c 0
 738 505 753 440 753 365 c 0
 753 290 738 225 709 168 c 0
 680 111 638 68 585 36 c 0
 532 6 470 -10 399 -10 c 0
 328 -10 266 6 213 36 c 0
558 76 m 0
 604 104 640 142 665 192 c 0
 690 242 703 300 703 365 c 0
 703 430 690 488 665 538 c 0
 640 588 604 626 558 654 c 0
 513 680 460 694 399 694 c 0
 338 694 285 680 240 654 c 0
 194 626 158 588 133 538 c 0
 108 488 95 430 95 365 c 0
 95 300 108 242 133 192 c 0
 158 142 194 104 240 76 c 0
 285 50 338 36 399 36 c 0
 460 36 513 50 558 76 c 0
369 770 m 1
 317 770 l 1
 430 980 l 1
 491 980 l 1
 369 770 l 1
EndSplineSet
EndChar

StartChar: Obreve
Encoding: 334 334 109
Width: 798
Flags: W
LayerCount: 2
Fore
SplineSet
213 36 m 0
 160 68 118 111 89 168 c 0
 60 225 45 290 45 365 c 0
 45 440 60 505 89 562 c 0
 118 619 160 662 213 694 c 0
 266 724 328 740 399 740 c 0
 470 740 532 724 585 694 c 0
 638 662 680 619 709 562 c 0
 738 505 753 440 753 365 c 0
 753 290 738 225 709 168 c 0
 680 111 638 68 585 36 c 0
 532 6 470 -10 399 -10 c 0
 328 -10 266 6 213 36 c 0
558 76 m 0
 604 104 640 142 665 192 c 0
 690 242 703 300 703 365 c 0
 703 430 690 488 665 538 c 0
 640 588 604 626 558 654 c 0
 513 680 460 694 399 694 c 0
 338 694 285 680 240 654 c 0
 194 626 158 588 133 538 c 0
 108 488 95 430 95 365 c 0
 95 300 108 242 133 192 c 0
 158 142 194 104 240 76 c 0
 285 50 338 36 399 36 c 0
 460 36 513 50 558 76 c 0
281 836 m 0
 249 860 230 893 225 934 c 1
 277 934 l 1
 282 905 296 882 318 865 c 0
 339 848 366 840 399 840 c 0
 432 840 459 848 480 865 c 0
 502 882 516 905 521 934 c 1
 573 934 l 1
 568 893 549 860 517 836 c 0
 485 810 446 798 399 798 c 0
 352 798 313 810 281 836 c 0
EndSplineSet
EndChar

StartChar: Ocircumflex
Encoding: 212 212 110
Width: 798
Flags: W
LayerCount: 2
Fore
SplineSet
213 36 m 0
 160 68 118 111 89 168 c 0
 60 225 45 290 45 365 c 0
 45 440 60 505 89 562 c 0
 118 619 160 662 213 694 c 0
 266 724 328 740 399 740 c 0
 470 740 532 724 585 694 c 0
 638 662 680 619 709 562 c 0
 738 505 753 440 753 365 c 0
 753 290 738 225 709 168 c 0
 680 111 638 68 585 36 c 0
 532 6 470 -10 399 -10 c 0
 328 -10 266 6 213 36 c 0
558 76 m 0
 604 104 640 142 665 192 c 0
 690 242 703 300 703 365 c 0
 703 430 690 488 665 538 c 0
 640 588 604 626 558 654 c 0
 513 680 460 694 399 694 c 0
 338 694 285 680 240 654 c 0
 194 626 158 588 133 538 c 0
 108 488 95 430 95 365 c 0
 95 300 108 242 133 192 c 0
 158 142 194 104 240 76 c 0
 285 50 338 36 399 36 c 0
 460 36 513 50 558 76 c 0
357 980 m 1
 441 980 l 1
 587 770 l 1
 528 770 l 1
 400 954 l 1
 398 954 l 1
 270 770 l 1
 211 770 l 1
 357 980 l 1
EndSplineSet
EndChar

StartChar: uni1ED0
Encoding: 7888 7888 111
Width: 798
Flags: W
LayerCount: 2
Fore
SplineSet
213 36 m 0
 160 68 118 111 89 168 c 0
 60 225 45 290 45 365 c 0
 45 440 60 505 89 562 c 0
 118 619 160 662 213 694 c 0
 266 724 328 740 399 740 c 0
 470 740 532 724 585 694 c 0
 638 662 680 619 709 562 c 0
 738 505 753 440 753 365 c 0
 753 290 738 225 709 168 c 0
 680 111 638 68 585 36 c 0
 532 6 470 -10 399 -10 c 0
 328 -10 266 6 213 36 c 0
558 76 m 0
 604 104 640 142 665 192 c 0
 690 242 703 300 703 365 c 0
 703 430 690 488 665 538 c 0
 640 588 604 626 558 654 c 0
 513 680 460 694 399 694 c 0
 338 694 285 680 240 654 c 0
 194 626 158 588 133 538 c 0
 108 488 95 430 95 365 c 0
 95 300 108 242 133 192 c 0
 158 142 194 104 240 76 c 0
 285 50 338 36 399 36 c 0
 460 36 513 50 558 76 c 0
357 980 m 1
 441 980 l 1
 587 770 l 1
 528 770 l 1
 400 954 l 1
 398 954 l 1
 270 770 l 1
 211 770 l 1
 357 980 l 1
540 950 m 1
 488 950 l 1
 601 1160 l 1
 662 1160 l 1
 540 950 l 1
EndSplineSet
EndChar

StartChar: uni1ED8
Encoding: 7896 7896 112
Width: 798
Flags: W
LayerCount: 2
Fore
SplineSet
213 36 m 0
 160 68 118 111 89 168 c 0
 60 225 45 290 45 365 c 0
 45 440 60 505 89 562 c 0
 118 619 160 662 213 694 c 0
 266 724 328 740 399 740 c 0
 470 740 532 724 585 694 c 0
 638 662 680 619 709 562 c 0
 738 505 753 440 753 365 c 0
 753 290 738 225 709 168 c 0
 680 111 638 68 585 36 c 0
 532 6 470 -10 399 -10 c 0
 328 -10 266 6 213 36 c 0
558 76 m 0
 604 104 640 142 665 192 c 0
 690 242 703 300 703 365 c 0
 703 430 690 488 665 538 c 0
 640 588 604 626 558 654 c 0
 513 680 460 694 399 694 c 0
 338 694 285 680 240 654 c 0
 194 626 158 588 133 538 c 0
 108 488 95 430 95 365 c 0
 95 300 108 242 133 192 c 0
 158 142 194 104 240 76 c 0
 285 50 338 36 399 36 c 0
 460 36 513 50 558 76 c 0
358 -104 m 1
 440 -104 l 1
 440 -186 l 1
 358 -186 l 1
 358 -104 l 1
357 980 m 1
 441 980 l 1
 587 770 l 1
 528 770 l 1
 400 954 l 1
 398 954 l 1
 270 770 l 1
 211 770 l 1
 357 980 l 1
EndSplineSet
EndChar

StartChar: uni1ED2
Encoding: 7890 7890 113
Width: 798
Flags: W
LayerCount: 2
Fore
SplineSet
213 36 m 0
 160 68 118 111 89 168 c 0
 60 225 45 290 45 365 c 0
 45 440 60 505 89 562 c 0
 118 619 160 662 213 694 c 0
 266 724 328 740 399 740 c 0
 470 740 532 724 585 694 c 0
 638 662 680 619 709 562 c 0
 738 505 753 440 753 365 c 0
 753 290 738 225 709 168 c 0
 680 111 638 68 585 36 c 0
 532 6 470 -10 399 -10 c 0
 328 -10 266 6 213 36 c 0
558 76 m 0
 604 104 640 142 665 192 c 0
 690 242 703 300 703 365 c 0
 703 430 690 488 665 538 c 0
 640 588 604 626 558 654 c 0
 513 680 460 694 399 694 c 0
 338 694 285 680 240 654 c 0
 194 626 158 588 133 538 c 0
 108 488 95 430 95 365 c 0
 95 300 108 242 133 192 c 0
 158 142 194 104 240 76 c 0
 285 50 338 36 399 36 c 0
 460 36 513 50 558 76 c 0
357 980 m 1
 441 980 l 1
 587 770 l 1
 528 770 l 1
 400 954 l 1
 398 954 l 1
 270 770 l 1
 211 770 l 1
 357 980 l 1
136 1160 m 1
 198 1160 l 1
 310 950 l 1
 259 950 l 1
 136 1160 l 1
EndSplineSet
EndChar

StartChar: uni1ED4
Encoding: 7892 7892 114
Width: 798
Flags: W
LayerCount: 2
Fore
SplineSet
213 36 m 0
 160 68 118 111 89 168 c 0
 60 225 45 290 45 365 c 0
 45 440 60 505 89 562 c 0
 118 619 160 662 213 694 c 0
 266 724 328 740 399 740 c 0
 470 740 532 724 585 694 c 0
 638 662 680 619 709 562 c 0
 738 505 753 440 753 365 c 0
 753 290 738 225 709 168 c 0
 680 111 638 68 585 36 c 0
 532 6 470 -10 399 -10 c 0
 328 -10 266 6 213 36 c 0
558 76 m 0
 604 104 640 142 665 192 c 0
 690 242 703 300 703 365 c 0
 703 430 690 488 665 538 c 0
 640 588 604 626 558 654 c 0
 513 680 460 694 399 694 c 0
 338 694 285 680 240 654 c 0
 194 626 158 588 133 538 c 0
 108 488 95 430 95 365 c 0
 95 300 108 242 133 192 c 0
 158 142 194 104 240 76 c 0
 285 50 338 36 399 36 c 0
 460 36 513 50 558 76 c 0
357 980 m 1
 441 980 l 1
 587 770 l 1
 528 770 l 1
 400 954 l 1
 398 954 l 1
 270 770 l 1
 211 770 l 1
 357 980 l 1
531 977 m 0
 534 993 536 1007 536 1018 c 0
 536 1037 530 1049 517 1056 c 0
 504 1063 480 1066 444 1066 c 0
 406 1066 366 1061 324 1050 c 1
 317 1091 l 1
 364 1102 409 1108 453 1108 c 0
 504 1108 539 1102 558 1092 c 0
 578 1080 588 1061 588 1032 c 0
 588 1019 586 1003 583 985 c 0
 580 967 576 951 571 938 c 1
 520 938 l 1
 524 948 528 961 531 977 c 0
EndSplineSet
EndChar

StartChar: uni1ED6
Encoding: 7894 7894 115
Width: 798
Flags: W
LayerCount: 2
Fore
SplineSet
213 36 m 0
 160 68 118 111 89 168 c 0
 60 225 45 290 45 365 c 0
 45 440 60 505 89 562 c 0
 118 619 160 662 213 694 c 0
 266 724 328 740 399 740 c 0
 470 740 532 724 585 694 c 0
 638 662 680 619 709 562 c 0
 738 505 753 440 753 365 c 0
 753 290 738 225 709 168 c 0
 680 111 638 68 585 36 c 0
 532 6 470 -10 399 -10 c 0
 328 -10 266 6 213 36 c 0
558 76 m 0
 604 104 640 142 665 192 c 0
 690 242 703 300 703 365 c 0
 703 430 690 488 665 538 c 0
 640 588 604 626 558 654 c 0
 513 680 460 694 399 694 c 0
 338 694 285 680 240 654 c 0
 194 626 158 588 133 538 c 0
 108 488 95 430 95 365 c 0
 95 300 108 242 133 192 c 0
 158 142 194 104 240 76 c 0
 285 50 338 36 399 36 c 0
 460 36 513 50 558 76 c 0
357 980 m 1
 441 980 l 1
 587 770 l 1
 528 770 l 1
 400 954 l 1
 398 954 l 1
 270 770 l 1
 211 770 l 1
 357 980 l 1
440 1002 m 0
 420 1012 402 1024 383 1040 c 0
 354 1066 328 1079 306 1079 c 0
 295 1079 286 1073 281 1061 c 0
 276 1049 273 1028 273 999 c 1
 225 999 l 1
 225 1084 252 1127 306 1127 c 0
 322 1127 340 1122 358 1114 c 0
 378 1104 396 1092 415 1076 c 0
 444 1050 470 1037 492 1037 c 0
 503 1037 512 1043 517 1055 c 0
 522 1067 525 1088 525 1117 c 1
 573 1117 l 1
 573 1032 546 989 492 989 c 0
 476 989 458 994 440 1002 c 0
EndSplineSet
EndChar

StartChar: uni020C
Encoding: 524 524 116
Width: 798
Flags: W
LayerCount: 2
Fore
SplineSet
213 36 m 0
 160 68 118 111 89 168 c 0
 60 225 45 290 45 365 c 0
 45 440 60 505 89 562 c 0
 118 619 160 662 213 694 c 0
 266 724 328 740 399 740 c 0
 470 740 532 724 585 694 c 0
 638 662 680 619 709 562 c 0
 738 505 753 440 753 365 c 0
 753 290 738 225 709 168 c 0
 680 111 638 68 585 36 c 0
 532 6 470 -10 399 -10 c 0
 328 -10 266 6 213 36 c 0
558 76 m 0
 604 104 640 142 665 192 c 0
 690 242 703 300 703 365 c 0
 703 430 690 488 665 538 c 0
 640 588 604 626 558 654 c 0
 513 680 460 694 399 694 c 0
 338 694 285 680 240 654 c 0
 194 626 158 588 133 538 c 0
 108 488 95 430 95 365 c 0
 95 300 108 242 133 192 c 0
 158 142 194 104 240 76 c 0
 285 50 338 36 399 36 c 0
 460 36 513 50 558 76 c 0
203 980 m 1
 265 980 l 1
 377 770 l 1
 326 770 l 1
 203 980 l 1
398 980 m 1
 460 980 l 1
 572 770 l 1
 521 770 l 1
 398 980 l 1
EndSplineSet
EndChar

StartChar: Odieresis
Encoding: 214 214 117
Width: 798
Flags: W
LayerCount: 2
Fore
SplineSet
213 36 m 0
 160 68 118 111 89 168 c 0
 60 225 45 290 45 365 c 0
 45 440 60 505 89 562 c 0
 118 619 160 662 213 694 c 0
 266 724 328 740 399 740 c 0
 470 740 532 724 585 694 c 0
 638 662 680 619 709 562 c 0
 738 505 753 440 753 365 c 0
 753 290 738 225 709 168 c 0
 680 111 638 68 585 36 c 0
 532 6 470 -10 399 -10 c 0
 328 -10 266 6 213 36 c 0
558 76 m 0
 604 104 640 142 665 192 c 0
 690 242 703 300 703 365 c 0
 703 430 690 488 665 538 c 0
 640 588 604 626 558 654 c 0
 513 680 460 694 399 694 c 0
 338 694 285 680 240 654 c 0
 194 626 158 588 133 538 c 0
 108 488 95 430 95 365 c 0
 95 300 108 242 133 192 c 0
 158 142 194 104 240 76 c 0
 285 50 338 36 399 36 c 0
 460 36 513 50 558 76 c 0
236 916 m 1
 318 916 l 1
 318 834 l 1
 236 834 l 1
 236 916 l 1
481 916 m 1
 562 916 l 1
 562 834 l 1
 481 834 l 1
 481 916 l 1
EndSplineSet
EndChar

StartChar: uni022A
Encoding: 554 554 118
Width: 798
Flags: W
LayerCount: 2
Fore
SplineSet
213 36 m 0
 160 68 118 111 89 168 c 0
 60 225 45 290 45 365 c 0
 45 440 60 505 89 562 c 0
 118 619 160 662 213 694 c 0
 266 724 328 740 399 740 c 0
 470 740 532 724 585 694 c 0
 638 662 680 619 709 562 c 0
 738 505 753 440 753 365 c 0
 753 290 738 225 709 168 c 0
 680 111 638 68 585 36 c 0
 532 6 470 -10 399 -10 c 0
 328 -10 266 6 213 36 c 0
558 76 m 0
 604 104 640 142 665 192 c 0
 690 242 703 300 703 365 c 0
 703 430 690 488 665 538 c 0
 640 588 604 626 558 654 c 0
 513 680 460 694 399 694 c 0
 338 694 285 680 240 654 c 0
 194 626 158 588 133 538 c 0
 108 488 95 430 95 365 c 0
 95 300 108 242 133 192 c 0
 158 142 194 104 240 76 c 0
 285 50 338 36 399 36 c 0
 460 36 513 50 558 76 c 0
236 916 m 1
 318 916 l 1
 318 834 l 1
 236 834 l 1
 236 916 l 1
481 916 m 1
 562 916 l 1
 562 834 l 1
 481 834 l 1
 481 916 l 1
225 1082 m 1
 574 1082 l 1
 574 1040 l 1
 225 1040 l 1
 225 1082 l 1
EndSplineSet
EndChar

StartChar: uni0230
Encoding: 560 560 119
Width: 798
Flags: W
LayerCount: 2
Fore
SplineSet
213 36 m 0
 160 68 118 111 89 168 c 0
 60 225 45 290 45 365 c 0
 45 440 60 505 89 562 c 0
 118 619 160 662 213 694 c 0
 266 724 328 740 399 740 c 0
 470 740 532 724 585 694 c 0
 638 662 680 619 709 562 c 0
 738 505 753 440 753 365 c 0
 753 290 738 225 709 168 c 0
 680 111 638 68 585 36 c 0
 532 6 470 -10 399 -10 c 0
 328 -10 266 6 213 36 c 0
558 76 m 0
 604 104 640 142 665 192 c 0
 690 242 703 300 703 365 c 0
 703 430 690 488 665 538 c 0
 640 588 604 626 558 654 c 0
 513 680 460 694 399 694 c 0
 338 694 285 680 240 654 c 0
 194 626 158 588 133 538 c 0
 108 488 95 430 95 365 c 0
 95 300 108 242 133 192 c 0
 158 142 194 104 240 76 c 0
 285 50 338 36 399 36 c 0
 460 36 513 50 558 76 c 0
358 916 m 1
 440 916 l 1
 440 834 l 1
 358 834 l 1
 358 916 l 1
225 1082 m 1
 574 1082 l 1
 574 1040 l 1
 225 1040 l 1
 225 1082 l 1
EndSplineSet
EndChar

StartChar: uni1ECC
Encoding: 7884 7884 120
Width: 798
Flags: W
LayerCount: 2
Fore
SplineSet
213 36 m 0
 160 68 118 111 89 168 c 0
 60 225 45 290 45 365 c 0
 45 440 60 505 89 562 c 0
 118 619 160 662 213 694 c 0
 266 724 328 740 399 740 c 0
 470 740 532 724 585 694 c 0
 638 662 680 619 709 562 c 0
 738 505 753 440 753 365 c 0
 753 290 738 225 709 168 c 0
 680 111 638 68 585 36 c 0
 532 6 470 -10 399 -10 c 0
 328 -10 266 6 213 36 c 0
558 76 m 0
 604 104 640 142 665 192 c 0
 690 242 703 300 703 365 c 0
 703 430 690 488 665 538 c 0
 640 588 604 626 558 654 c 0
 513 680 460 694 399 694 c 0
 338 694 285 680 240 654 c 0
 194 626 158 588 133 538 c 0
 108 488 95 430 95 365 c 0
 95 300 108 242 133 192 c 0
 158 142 194 104 240 76 c 0
 285 50 338 36 399 36 c 0
 460 36 513 50 558 76 c 0
358 -104 m 1
 440 -104 l 1
 440 -186 l 1
 358 -186 l 1
 358 -104 l 1
EndSplineSet
EndChar

StartChar: Ograve
Encoding: 210 210 121
Width: 798
Flags: W
LayerCount: 2
Fore
SplineSet
213 36 m 0
 160 68 118 111 89 168 c 0
 60 225 45 290 45 365 c 0
 45 440 60 505 89 562 c 0
 118 619 160 662 213 694 c 0
 266 724 328 740 399 740 c 0
 470 740 532 724 585 694 c 0
 638 662 680 619 709 562 c 0
 738 505 753 440 753 365 c 0
 753 290 738 225 709 168 c 0
 680 111 638 68 585 36 c 0
 532 6 470 -10 399 -10 c 0
 328 -10 266 6 213 36 c 0
558 76 m 0
 604 104 640 142 665 192 c 0
 690 242 703 300 703 365 c 0
 703 430 690 488 665 538 c 0
 640 588 604 626 558 654 c 0
 513 680 460 694 399 694 c 0
 338 694 285 680 240 654 c 0
 194 626 158 588 133 538 c 0
 108 488 95 430 95 365 c 0
 95 300 108 242 133 192 c 0
 158 142 194 104 240 76 c 0
 285 50 338 36 399 36 c 0
 460 36 513 50 558 76 c 0
306 980 m 1
 368 980 l 1
 480 770 l 1
 429 770 l 1
 306 980 l 1
EndSplineSet
EndChar

StartChar: uni1ECE
Encoding: 7886 7886 122
Width: 798
Flags: W
LayerCount: 2
Fore
SplineSet
213 36 m 0
 160 68 118 111 89 168 c 0
 60 225 45 290 45 365 c 0
 45 440 60 505 89 562 c 0
 118 619 160 662 213 694 c 0
 266 724 328 740 399 740 c 0
 470 740 532 724 585 694 c 0
 638 662 680 619 709 562 c 0
 738 505 753 440 753 365 c 0
 753 290 738 225 709 168 c 0
 680 111 638 68 585 36 c 0
 532 6 470 -10 399 -10 c 0
 328 -10 266 6 213 36 c 0
558 76 m 0
 604 104 640 142 665 192 c 0
 690 242 703 300 703 365 c 0
 703 430 690 488 665 538 c 0
 640 588 604 626 558 654 c 0
 513 680 460 694 399 694 c 0
 338 694 285 680 240 654 c 0
 194 626 158 588 133 538 c 0
 108 488 95 430 95 365 c 0
 95 300 108 242 133 192 c 0
 158 142 194 104 240 76 c 0
 285 50 338 36 399 36 c 0
 460 36 513 50 558 76 c 0
477 847 m 0
 480 863 482 877 482 888 c 0
 482 907 476 919 463 926 c 0
 450 933 426 936 390 936 c 0
 352 936 312 931 270 920 c 1
 263 961 l 1
 310 972 355 978 399 978 c 0
 450 978 485 972 504 962 c 0
 524 950 534 931 534 902 c 0
 534 889 532 873 529 855 c 0
 526 837 522 821 517 808 c 1
 466 808 l 1
 470 818 474 831 477 847 c 0
EndSplineSet
EndChar

StartChar: Ohorn
Encoding: 416 416 123
Width: 811
Flags: W
LayerCount: 2
Fore
SplineSet
732 660 m 0
 716 640 693 629 664 628 c 1
 693 595 715 557 730 512 c 0
 745 467 753 418 753 365 c 0
 753 290 738 225 709 168 c 0
 680 111 638 68 585 36 c 0
 532 6 470 -10 399 -10 c 0
 328 -10 266 6 213 36 c 0
 160 68 118 111 89 168 c 0
 60 225 45 290 45 365 c 0
 45 440 60 505 89 562 c 0
 118 619 160 662 213 694 c 0
 266 724 328 740 399 740 c 0
 479 740 549 720 608 679 c 0
 618 674 630 672 644 672 c 0
 685 672 705 697 705 746 c 0
 705 761 703 778 700 796 c 0
 697 816 692 831 687 843 c 1
 738 843 l 1
 750 809 756 775 756 742 c 0
 756 707 748 680 732 660 c 0
558 76 m 0
 604 104 640 142 665 192 c 0
 690 242 703 300 703 365 c 0
 703 430 690 488 665 538 c 0
 640 588 604 626 558 654 c 0
 513 680 460 694 399 694 c 0
 338 694 285 680 240 654 c 0
 194 626 158 588 133 538 c 0
 108 488 95 430 95 365 c 0
 95 300 108 242 133 192 c 0
 158 142 194 104 240 76 c 0
 285 50 338 36 399 36 c 0
 460 36 513 50 558 76 c 0
EndSplineSet
EndChar

StartChar: uni1EDA
Encoding: 7898 7898 124
Width: 811
Flags: W
LayerCount: 2
Fore
SplineSet
732 660 m 0
 716 640 693 629 664 628 c 1
 693 595 715 557 730 512 c 0
 745 467 753 418 753 365 c 0
 753 290 738 225 709 168 c 0
 680 111 638 68 585 36 c 0
 532 6 470 -10 399 -10 c 0
 328 -10 266 6 213 36 c 0
 160 68 118 111 89 168 c 0
 60 225 45 290 45 365 c 0
 45 440 60 505 89 562 c 0
 118 619 160 662 213 694 c 0
 266 724 328 740 399 740 c 0
 479 740 549 720 608 679 c 0
 618 674 630 672 644 672 c 0
 685 672 705 697 705 746 c 0
 705 761 703 778 700 796 c 0
 697 816 692 831 687 843 c 1
 738 843 l 1
 750 809 756 775 756 742 c 0
 756 707 748 680 732 660 c 0
558 76 m 0
 604 104 640 142 665 192 c 0
 690 242 703 300 703 365 c 0
 703 430 690 488 665 538 c 0
 640 588 604 626 558 654 c 0
 513 680 460 694 399 694 c 0
 338 694 285 680 240 654 c 0
 194 626 158 588 133 538 c 0
 108 488 95 430 95 365 c 0
 95 300 108 242 133 192 c 0
 158 142 194 104 240 76 c 0
 285 50 338 36 399 36 c 0
 460 36 513 50 558 76 c 0
369 770 m 1
 317 770 l 1
 430 980 l 1
 491 980 l 1
 369 770 l 1
EndSplineSet
EndChar

StartChar: uni1EE2
Encoding: 7906 7906 125
Width: 811
Flags: W
LayerCount: 2
Fore
SplineSet
732 660 m 0
 716 640 693 629 664 628 c 1
 693 595 715 557 730 512 c 0
 745 467 753 418 753 365 c 0
 753 290 738 225 709 168 c 0
 680 111 638 68 585 36 c 0
 532 6 470 -10 399 -10 c 0
 328 -10 266 6 213 36 c 0
 160 68 118 111 89 168 c 0
 60 225 45 290 45 365 c 0
 45 440 60 505 89 562 c 0
 118 619 160 662 213 694 c 0
 266 724 328 740 399 740 c 0
 479 740 549 720 608 679 c 0
 618 674 630 672 644 672 c 0
 685 672 705 697 705 746 c 0
 705 761 703 778 700 796 c 0
 697 816 692 831 687 843 c 1
 738 843 l 1
 750 809 756 775 756 742 c 0
 756 707 748 680 732 660 c 0
558 76 m 0
 604 104 640 142 665 192 c 0
 690 242 703 300 703 365 c 0
 703 430 690 488 665 538 c 0
 640 588 604 626 558 654 c 0
 513 680 460 694 399 694 c 0
 338 694 285 680 240 654 c 0
 194 626 158 588 133 538 c 0
 108 488 95 430 95 365 c 0
 95 300 108 242 133 192 c 0
 158 142 194 104 240 76 c 0
 285 50 338 36 399 36 c 0
 460 36 513 50 558 76 c 0
358 -104 m 1
 440 -104 l 1
 440 -186 l 1
 358 -186 l 1
 358 -104 l 1
EndSplineSet
EndChar

StartChar: uni1EDC
Encoding: 7900 7900 126
Width: 811
Flags: W
LayerCount: 2
Fore
SplineSet
732 660 m 0
 716 640 693 629 664 628 c 1
 693 595 715 557 730 512 c 0
 745 467 753 418 753 365 c 0
 753 290 738 225 709 168 c 0
 680 111 638 68 585 36 c 0
 532 6 470 -10 399 -10 c 0
 328 -10 266 6 213 36 c 0
 160 68 118 111 89 168 c 0
 60 225 45 290 45 365 c 0
 45 440 60 505 89 562 c 0
 118 619 160 662 213 694 c 0
 266 724 328 740 399 740 c 0
 479 740 549 720 608 679 c 0
 618 674 630 672 644 672 c 0
 685 672 705 697 705 746 c 0
 705 761 703 778 700 796 c 0
 697 816 692 831 687 843 c 1
 738 843 l 1
 750 809 756 775 756 742 c 0
 756 707 748 680 732 660 c 0
558 76 m 0
 604 104 640 142 665 192 c 0
 690 242 703 300 703 365 c 0
 703 430 690 488 665 538 c 0
 640 588 604 626 558 654 c 0
 513 680 460 694 399 694 c 0
 338 694 285 680 240 654 c 0
 194 626 158 588 133 538 c 0
 108 488 95 430 95 365 c 0
 95 300 108 242 133 192 c 0
 158 142 194 104 240 76 c 0
 285 50 338 36 399 36 c 0
 460 36 513 50 558 76 c 0
306 980 m 1
 368 980 l 1
 480 770 l 1
 429 770 l 1
 306 980 l 1
EndSplineSet
EndChar

StartChar: uni1EDE
Encoding: 7902 7902 127
Width: 811
Flags: W
LayerCount: 2
Fore
SplineSet
732 660 m 0
 716 640 693 629 664 628 c 1
 693 595 715 557 730 512 c 0
 745 467 753 418 753 365 c 0
 753 290 738 225 709 168 c 0
 680 111 638 68 585 36 c 0
 532 6 470 -10 399 -10 c 0
 328 -10 266 6 213 36 c 0
 160 68 118 111 89 168 c 0
 60 225 45 290 45 365 c 0
 45 440 60 505 89 562 c 0
 118 619 160 662 213 694 c 0
 266 724 328 740 399 740 c 0
 479 740 549 720 608 679 c 0
 618 674 630 672 644 672 c 0
 685 672 705 697 705 746 c 0
 705 761 703 778 700 796 c 0
 697 816 692 831 687 843 c 1
 738 843 l 1
 750 809 756 775 756 742 c 0
 756 707 748 680 732 660 c 0
558 76 m 0
 604 104 640 142 665 192 c 0
 690 242 703 300 703 365 c 0
 703 430 690 488 665 538 c 0
 640 588 604 626 558 654 c 0
 513 680 460 694 399 694 c 0
 338 694 285 680 240 654 c 0
 194 626 158 588 133 538 c 0
 108 488 95 430 95 365 c 0
 95 300 108 242 133 192 c 0
 158 142 194 104 240 76 c 0
 285 50 338 36 399 36 c 0
 460 36 513 50 558 76 c 0
477 847 m 0
 480 863 482 877 482 888 c 0
 482 907 476 919 463 926 c 0
 450 933 426 936 390 936 c 0
 352 936 312 931 270 920 c 1
 263 961 l 1
 310 972 355 978 399 978 c 0
 450 978 485 972 504 962 c 0
 524 950 534 931 534 902 c 0
 534 889 532 873 529 855 c 0
 526 837 522 821 517 808 c 1
 466 808 l 1
 470 818 474 831 477 847 c 0
EndSplineSet
EndChar

StartChar: uni1EE0
Encoding: 7904 7904 128
Width: 811
Flags: W
LayerCount: 2
Fore
SplineSet
732 660 m 0
 716 640 693 629 664 628 c 1
 693 595 715 557 730 512 c 0
 745 467 753 418 753 365 c 0
 753 290 738 225 709 168 c 0
 680 111 638 68 585 36 c 0
 532 6 470 -10 399 -10 c 0
 328 -10 266 6 213 36 c 0
 160 68 118 111 89 168 c 0
 60 225 45 290 45 365 c 0
 45 440 60 505 89 562 c 0
 118 619 160 662 213 694 c 0
 266 724 328 740 399 740 c 0
 479 740 549 720 608 679 c 0
 618 674 630 672 644 672 c 0
 685 672 705 697 705 746 c 0
 705 761 703 778 700 796 c 0
 697 816 692 831 687 843 c 1
 738 843 l 1
 750 809 756 775 756 742 c 0
 756 707 748 680 732 660 c 0
558 76 m 0
 604 104 640 142 665 192 c 0
 690 242 703 300 703 365 c 0
 703 430 690 488 665 538 c 0
 640 588 604 626 558 654 c 0
 513 680 460 694 399 694 c 0
 338 694 285 680 240 654 c 0
 194 626 158 588 133 538 c 0
 108 488 95 430 95 365 c 0
 95 300 108 242 133 192 c 0
 158 142 194 104 240 76 c 0
 285 50 338 36 399 36 c 0
 460 36 513 50 558 76 c 0
440 820 m 0
 420 828 402 841 383 857 c 0
 354 883 328 896 306 896 c 0
 295 896 286 890 281 878 c 0
 276 866 273 845 273 816 c 1
 225 816 l 1
 225 901 252 944 306 944 c 0
 322 944 340 940 358 930 c 0
 378 922 396 909 415 893 c 0
 444 867 470 854 492 854 c 0
 503 854 512 860 517 872 c 0
 522 884 525 905 525 934 c 1
 573 934 l 1
 573 849 546 806 492 806 c 0
 476 806 458 810 440 820 c 0
EndSplineSet
EndChar

StartChar: Ohungarumlaut
Encoding: 336 336 129
Width: 798
Flags: W
LayerCount: 2
Fore
SplineSet
213 36 m 0
 160 68 118 111 89 168 c 0
 60 225 45 290 45 365 c 0
 45 440 60 505 89 562 c 0
 118 619 160 662 213 694 c 0
 266 724 328 740 399 740 c 0
 470 740 532 724 585 694 c 0
 638 662 680 619 709 562 c 0
 738 505 753 440 753 365 c 0
 753 290 738 225 709 168 c 0
 680 111 638 68 585 36 c 0
 532 6 470 -10 399 -10 c 0
 328 -10 266 6 213 36 c 0
558 76 m 0
 604 104 640 142 665 192 c 0
 690 242 703 300 703 365 c 0
 703 430 690 488 665 538 c 0
 640 588 604 626 558 654 c 0
 513 680 460 694 399 694 c 0
 338 694 285 680 240 654 c 0
 194 626 158 588 133 538 c 0
 108 488 95 430 95 365 c 0
 95 300 108 242 133 192 c 0
 158 142 194 104 240 76 c 0
 285 50 338 36 399 36 c 0
 460 36 513 50 558 76 c 0
279 770 m 1
 227 770 l 1
 340 980 l 1
 401 980 l 1
 279 770 l 1
474 770 m 1
 422 770 l 1
 535 980 l 1
 596 980 l 1
 474 770 l 1
EndSplineSet
EndChar

StartChar: uni020E
Encoding: 526 526 130
Width: 798
Flags: W
LayerCount: 2
Fore
SplineSet
213 36 m 0
 160 68 118 111 89 168 c 0
 60 225 45 290 45 365 c 0
 45 440 60 505 89 562 c 0
 118 619 160 662 213 694 c 0
 266 724 328 740 399 740 c 0
 470 740 532 724 585 694 c 0
 638 662 680 619 709 562 c 0
 738 505 753 440 753 365 c 0
 753 290 738 225 709 168 c 0
 680 111 638 68 585 36 c 0
 532 6 470 -10 399 -10 c 0
 328 -10 266 6 213 36 c 0
558 76 m 0
 604 104 640 142 665 192 c 0
 690 242 703 300 703 365 c 0
 703 430 690 488 665 538 c 0
 640 588 604 626 558 654 c 0
 513 680 460 694 399 694 c 0
 338 694 285 680 240 654 c 0
 194 626 158 588 133 538 c 0
 108 488 95 430 95 365 c 0
 95 300 108 242 133 192 c 0
 158 142 194 104 240 76 c 0
 285 50 338 36 399 36 c 0
 460 36 513 50 558 76 c 0
517 914 m 0
 549 890 568 857 573 816 c 1
 521 816 l 1
 516 845 502 868 480 885 c 0
 459 902 432 910 399 910 c 0
 366 910 339 902 318 885 c 0
 296 868 282 845 277 816 c 1
 225 816 l 1
 230 857 249 890 281 914 c 0
 313 940 352 952 399 952 c 0
 446 952 485 940 517 914 c 0
EndSplineSet
EndChar

StartChar: Omacron
Encoding: 332 332 131
Width: 798
Flags: W
LayerCount: 2
Fore
SplineSet
213 36 m 0
 160 68 118 111 89 168 c 0
 60 225 45 290 45 365 c 0
 45 440 60 505 89 562 c 0
 118 619 160 662 213 694 c 0
 266 724 328 740 399 740 c 0
 470 740 532 724 585 694 c 0
 638 662 680 619 709 562 c 0
 738 505 753 440 753 365 c 0
 753 290 738 225 709 168 c 0
 680 111 638 68 585 36 c 0
 532 6 470 -10 399 -10 c 0
 328 -10 266 6 213 36 c 0
558 76 m 0
 604 104 640 142 665 192 c 0
 690 242 703 300 703 365 c 0
 703 430 690 488 665 538 c 0
 640 588 604 626 558 654 c 0
 513 680 460 694 399 694 c 0
 338 694 285 680 240 654 c 0
 194 626 158 588 133 538 c 0
 108 488 95 430 95 365 c 0
 95 300 108 242 133 192 c 0
 158 142 194 104 240 76 c 0
 285 50 338 36 399 36 c 0
 460 36 513 50 558 76 c 0
225 896 m 1
 574 896 l 1
 574 854 l 1
 225 854 l 1
 225 896 l 1
EndSplineSet
EndChar

StartChar: uni01EA
Encoding: 490 490 132
Width: 798
Flags: W
LayerCount: 2
Fore
SplineSet
366 -65 m 0
 350 -84 342 -103 342 -121 c 0
 342 -141 351 -155 369 -164 c 0
 387 -173 410 -177 437 -177 c 0
 470 -177 501 -171 528 -158 c 1
 539 -198 l 1
 507 -212 472 -219 434 -219 c 0
 385 -219 349 -210 328 -192 c 0
 306 -175 295 -153 295 -127 c 0
 295 -87 320 -48 369 -9 c 1
 304 -5 247 13 198 46 c 0
 149 78 112 122 85 176 c 0
 58 232 45 294 45 365 c 0
 45 440 60 505 89 562 c 0
 118 619 160 662 213 694 c 0
 266 724 328 740 399 740 c 0
 470 740 532 724 585 694 c 0
 638 662 680 619 709 562 c 0
 738 505 753 440 753 365 c 0
 753 295 740 233 714 179 c 0
 689 125 652 82 604 49 c 0
 557 16 501 -3 437 -8 c 1
 406 -27 383 -46 366 -65 c 0
133 192 m 0
 158 142 194 104 240 76 c 0
 285 50 338 36 399 36 c 0
 460 36 513 50 558 76 c 0
 604 104 640 142 665 192 c 0
 690 242 703 300 703 365 c 0
 703 430 690 488 665 538 c 0
 640 588 604 626 558 654 c 0
 513 680 460 694 399 694 c 0
 338 694 285 680 240 654 c 0
 194 626 158 588 133 538 c 0
 108 488 95 430 95 365 c 0
 95 300 108 242 133 192 c 0
EndSplineSet
EndChar

StartChar: Oslash
Encoding: 216 216 133
Width: 798
Flags: W
LayerCount: 2
Fore
SplineSet
724 530 m 0
 743 480 753 426 753 365 c 0
 753 290 738 225 709 168 c 0
 680 111 638 68 585 36 c 0
 532 6 470 -10 399 -10 c 0
 319 -10 250 10 191 51 c 1
 136 -23 l 1
 102 3 l 1
 158 77 l 1
 121 110 93 152 74 200 c 0
 55 250 45 304 45 365 c 0
 45 440 60 505 89 562 c 0
 118 619 160 662 213 694 c 0
 266 724 328 740 399 740 c 0
 479 740 548 720 607 679 c 1
 662 753 l 1
 696 727 l 1
 640 653 l 1
 677 620 705 578 724 530 c 0
119 224 m 0
 135 182 158 146 187 117 c 1
 578 641 l 1
 528 676 468 694 399 694 c 0
 338 694 285 680 240 654 c 0
 194 626 158 588 133 538 c 0
 108 488 95 430 95 365 c 0
 95 313 103 266 119 224 c 0
558 76 m 0
 604 104 640 142 665 192 c 0
 690 242 703 300 703 365 c 0
 703 417 695 464 679 506 c 0
 663 548 640 584 611 613 c 1
 220 89 l 1
 270 54 330 36 399 36 c 0
 460 36 513 50 558 76 c 0
EndSplineSet
EndChar

StartChar: Oslashacute
Encoding: 510 510 134
Width: 798
Flags: W
LayerCount: 2
Fore
SplineSet
724 530 m 0
 743 480 753 426 753 365 c 0
 753 290 738 225 709 168 c 0
 680 111 638 68 585 36 c 0
 532 6 470 -10 399 -10 c 0
 319 -10 250 10 191 51 c 1
 136 -23 l 1
 102 3 l 1
 158 77 l 1
 121 110 93 152 74 200 c 0
 55 250 45 304 45 365 c 0
 45 440 60 505 89 562 c 0
 118 619 160 662 213 694 c 0
 266 724 328 740 399 740 c 0
 479 740 548 720 607 679 c 1
 662 753 l 1
 696 727 l 1
 640 653 l 1
 677 620 705 578 724 530 c 0
119 224 m 0
 135 182 158 146 187 117 c 1
 578 641 l 1
 528 676 468 694 399 694 c 0
 338 694 285 680 240 654 c 0
 194 626 158 588 133 538 c 0
 108 488 95 430 95 365 c 0
 95 313 103 266 119 224 c 0
558 76 m 0
 604 104 640 142 665 192 c 0
 690 242 703 300 703 365 c 0
 703 417 695 464 679 506 c 0
 663 548 640 584 611 613 c 1
 220 89 l 1
 270 54 330 36 399 36 c 0
 460 36 513 50 558 76 c 0
369 770 m 1
 317 770 l 1
 430 980 l 1
 491 980 l 1
 369 770 l 1
EndSplineSet
EndChar

StartChar: Otilde
Encoding: 213 213 135
Width: 798
Flags: W
LayerCount: 2
Fore
SplineSet
213 36 m 0
 160 68 118 111 89 168 c 0
 60 225 45 290 45 365 c 0
 45 440 60 505 89 562 c 0
 118 619 160 662 213 694 c 0
 266 724 328 740 399 740 c 0
 470 740 532 724 585 694 c 0
 638 662 680 619 709 562 c 0
 738 505 753 440 753 365 c 0
 753 290 738 225 709 168 c 0
 680 111 638 68 585 36 c 0
 532 6 470 -10 399 -10 c 0
 328 -10 266 6 213 36 c 0
558 76 m 0
 604 104 640 142 665 192 c 0
 690 242 703 300 703 365 c 0
 703 430 690 488 665 538 c 0
 640 588 604 626 558 654 c 0
 513 680 460 694 399 694 c 0
 338 694 285 680 240 654 c 0
 194 626 158 588 133 538 c 0
 108 488 95 430 95 365 c 0
 95 300 108 242 133 192 c 0
 158 142 194 104 240 76 c 0
 285 50 338 36 399 36 c 0
 460 36 513 50 558 76 c 0
440 820 m 0
 420 828 402 841 383 857 c 0
 354 883 328 896 306 896 c 0
 295 896 286 890 281 878 c 0
 276 866 273 845 273 816 c 1
 225 816 l 1
 225 901 252 944 306 944 c 0
 322 944 340 940 358 930 c 0
 378 922 396 909 415 893 c 0
 444 867 470 854 492 854 c 0
 503 854 512 860 517 872 c 0
 522 884 525 905 525 934 c 1
 573 934 l 1
 573 849 546 806 492 806 c 0
 476 806 458 810 440 820 c 0
EndSplineSet
EndChar

StartChar: uni022C
Encoding: 556 556 136
Width: 798
Flags: W
LayerCount: 2
Fore
SplineSet
213 36 m 0
 160 68 118 111 89 168 c 0
 60 225 45 290 45 365 c 0
 45 440 60 505 89 562 c 0
 118 619 160 662 213 694 c 0
 266 724 328 740 399 740 c 0
 470 740 532 724 585 694 c 0
 638 662 680 619 709 562 c 0
 738 505 753 440 753 365 c 0
 753 290 738 225 709 168 c 0
 680 111 638 68 585 36 c 0
 532 6 470 -10 399 -10 c 0
 328 -10 266 6 213 36 c 0
558 76 m 0
 604 104 640 142 665 192 c 0
 690 242 703 300 703 365 c 0
 703 430 690 488 665 538 c 0
 640 588 604 626 558 654 c 0
 513 680 460 694 399 694 c 0
 338 694 285 680 240 654 c 0
 194 626 158 588 133 538 c 0
 108 488 95 430 95 365 c 0
 95 300 108 242 133 192 c 0
 158 142 194 104 240 76 c 0
 285 50 338 36 399 36 c 0
 460 36 513 50 558 76 c 0
440 820 m 0
 420 828 402 841 383 857 c 0
 354 883 328 896 306 896 c 0
 295 896 286 890 281 878 c 0
 276 866 273 845 273 816 c 1
 225 816 l 1
 225 901 252 944 306 944 c 0
 322 944 340 940 358 930 c 0
 378 922 396 909 415 893 c 0
 444 867 470 854 492 854 c 0
 503 854 512 860 517 872 c 0
 522 884 525 905 525 934 c 1
 573 934 l 1
 573 849 546 806 492 806 c 0
 476 806 458 810 440 820 c 0
225 1110 m 1
 574 1110 l 1
 574 1068 l 1
 225 1068 l 1
 225 1110 l 1
EndSplineSet
EndChar

StartChar: OE
Encoding: 338 338 137
Width: 991
Flags: W
LayerCount: 2
Fore
SplineSet
540 684 m 1
 540 410 l 1
 902 410 l 1
 902 365 l 1
 540 365 l 1
 540 46 l 1
 922 46 l 1
 922 0 l 1
 490 0 l 1
 490 1 l 1
 461 -6 430 -10 399 -10 c 0
 328 -10 266 6 213 36 c 0
 160 68 118 111 89 168 c 0
 60 225 45 290 45 365 c 0
 45 440 60 505 89 562 c 0
 118 619 160 662 213 694 c 0
 266 724 328 740 399 740 c 0
 430 740 461 736 490 729 c 1
 490 730 l 1
 922 730 l 1
 922 684 l 1
 540 684 l 1
490 49 m 1
 490 681 l 1
 460 690 430 694 399 694 c 0
 338 694 285 680 240 654 c 0
 194 626 158 588 133 538 c 0
 108 488 95 430 95 365 c 0
 95 300 108 242 133 192 c 0
 158 142 194 104 240 76 c 0
 285 50 338 36 399 36 c 0
 430 36 460 40 490 49 c 1
EndSplineSet
EndChar

StartChar: P
Encoding: 80 80 138
Width: 580
Flags: W
LayerCount: 2
Fore
SplineSet
480 678 m 0
 528 642 552 587 552 512 c 0
 552 437 528 382 482 348 c 0
 434 312 361 295 260 295 c 2
 140 295 l 1
 140 0 l 1
 90 0 l 1
 90 730 l 1
 253 730 l 2
 356 730 432 712 480 678 c 0
443 382 m 0
 482 408 501 452 501 512 c 0
 501 573 482 616 443 644 c 0
 404 670 342 684 255 684 c 2
 140 684 l 1
 140 341 l 1
 255 341 l 2
 342 341 404 354 443 382 c 0
EndSplineSet
EndChar

StartChar: Thorn
Encoding: 222 222 139
Width: 580
Flags: W
LayerCount: 2
Fore
SplineSet
480 540 m 0
 528 506 552 450 552 375 c 0
 552 300 528 244 482 210 c 0
 434 174 361 157 260 157 c 2
 140 157 l 1
 140 0 l 1
 90 0 l 1
 90 730 l 1
 140 730 l 1
 140 593 l 1
 253 593 l 2
 356 593 432 576 480 540 c 0
443 244 m 0
 482 270 501 314 501 375 c 0
 501 435 482 478 443 506 c 0
 404 532 342 546 255 546 c 2
 140 546 l 1
 140 203 l 1
 255 203 l 2
 342 203 404 216 443 244 c 0
EndSplineSet
EndChar

StartChar: Q
Encoding: 81 81 140
Width: 808
Flags: W
LayerCount: 2
Fore
SplineSet
767 -92 m 1
 729 -122 l 1
 694 -85 649 -58 593 -38 c 0
 537 -20 472 -10 399 -10 c 0
 328 -10 266 6 213 36 c 0
 160 68 118 111 89 168 c 0
 60 225 45 290 45 365 c 0
 45 440 60 505 89 562 c 0
 118 619 160 662 213 694 c 0
 266 724 328 740 399 740 c 0
 470 740 532 724 585 694 c 0
 638 662 680 619 709 562 c 0
 738 505 753 440 753 365 c 0
 753 280 734 206 694 146 c 0
 656 84 602 42 534 17 c 1
 635 -2 713 -38 767 -92 c 1
133 192 m 0
 158 142 194 104 240 76 c 0
 285 50 338 36 399 36 c 0
 460 36 513 50 558 76 c 0
 604 104 640 142 665 192 c 0
 690 242 703 300 703 365 c 0
 703 430 690 488 665 538 c 0
 640 588 604 626 558 654 c 0
 513 680 460 694 399 694 c 0
 338 694 285 680 240 654 c 0
 194 626 158 588 133 538 c 0
 108 488 95 430 95 365 c 0
 95 300 108 242 133 192 c 0
EndSplineSet
EndChar

StartChar: R
Encoding: 82 82 141
Width: 609
Flags: W
LayerCount: 2
Fore
SplineSet
220 334 m 1
 140 334 l 1
 140 0 l 1
 90 0 l 1
 90 730 l 1
 270 730 l 2
 368 730 440 714 484 683 c 0
 530 652 552 602 552 533 c 0
 552 465 530 415 486 383 c 0
 443 351 374 335 281 334 c 1
 573 0 l 1
 511 0 l 1
 220 334 l 1
140 379 m 1
 272 379 l 2
 353 379 412 391 448 415 c 0
 483 439 501 478 501 531 c 0
 501 585 483 624 448 648 c 0
 412 672 353 684 272 684 c 2
 140 684 l 1
 140 379 l 1
EndSplineSet
EndChar

StartChar: Racute
Encoding: 340 340 142
Width: 609
Flags: W
LayerCount: 2
Fore
SplineSet
220 334 m 1
 140 334 l 1
 140 0 l 1
 90 0 l 1
 90 730 l 1
 270 730 l 2
 368 730 440 714 484 683 c 0
 530 652 552 602 552 533 c 0
 552 465 530 415 486 383 c 0
 443 351 374 335 281 334 c 1
 573 0 l 1
 511 0 l 1
 220 334 l 1
140 379 m 1
 272 379 l 2
 353 379 412 391 448 415 c 0
 483 439 501 478 501 531 c 0
 501 585 483 624 448 648 c 0
 412 672 353 684 272 684 c 2
 140 684 l 1
 140 379 l 1
267 770 m 1
 215 770 l 1
 328 980 l 1
 389 980 l 1
 267 770 l 1
EndSplineSet
EndChar

StartChar: Rcaron
Encoding: 344 344 143
Width: 609
Flags: W
LayerCount: 2
Fore
SplineSet
220 334 m 1
 140 334 l 1
 140 0 l 1
 90 0 l 1
 90 730 l 1
 270 730 l 2
 368 730 440 714 484 683 c 0
 530 652 552 602 552 533 c 0
 552 465 530 415 486 383 c 0
 443 351 374 335 281 334 c 1
 573 0 l 1
 511 0 l 1
 220 334 l 1
140 379 m 1
 272 379 l 2
 353 379 412 391 448 415 c 0
 483 439 501 478 501 531 c 0
 501 585 483 624 448 648 c 0
 412 672 353 684 272 684 c 2
 140 684 l 1
 140 379 l 1
109 980 m 1
 168 980 l 1
 296 796 l 1
 298 796 l 1
 426 980 l 1
 485 980 l 1
 339 770 l 1
 255 770 l 1
 109 980 l 1
EndSplineSet
EndChar

StartChar: uni0156
Encoding: 342 342 144
Width: 609
Flags: W
LayerCount: 2
Fore
SplineSet
220 334 m 1
 140 334 l 1
 140 0 l 1
 90 0 l 1
 90 730 l 1
 270 730 l 2
 368 730 440 714 484 683 c 0
 530 652 552 602 552 533 c 0
 552 465 530 415 486 383 c 0
 443 351 374 335 281 334 c 1
 573 0 l 1
 511 0 l 1
 220 334 l 1
140 379 m 1
 272 379 l 2
 353 379 412 391 448 415 c 0
 483 439 501 478 501 531 c 0
 501 585 483 624 448 648 c 0
 412 672 353 684 272 684 c 2
 140 684 l 1
 140 379 l 1
261 -250 m 1
 209 -250 l 1
 322 -40 l 1
 383 -40 l 1
 261 -250 l 1
EndSplineSet
EndChar

StartChar: uni0210
Encoding: 528 528 145
Width: 609
Flags: W
LayerCount: 2
Fore
SplineSet
220 334 m 1
 140 334 l 1
 140 0 l 1
 90 0 l 1
 90 730 l 1
 270 730 l 2
 368 730 440 714 484 683 c 0
 530 652 552 602 552 533 c 0
 552 465 530 415 486 383 c 0
 443 351 374 335 281 334 c 1
 573 0 l 1
 511 0 l 1
 220 334 l 1
140 379 m 1
 272 379 l 2
 353 379 412 391 448 415 c 0
 483 439 501 478 501 531 c 0
 501 585 483 624 448 648 c 0
 412 672 353 684 272 684 c 2
 140 684 l 1
 140 379 l 1
101 980 m 1
 163 980 l 1
 275 770 l 1
 224 770 l 1
 101 980 l 1
296 980 m 1
 358 980 l 1
 470 770 l 1
 419 770 l 1
 296 980 l 1
EndSplineSet
EndChar

StartChar: uni0212
Encoding: 530 530 146
Width: 609
Flags: W
LayerCount: 2
Fore
SplineSet
220 334 m 1
 140 334 l 1
 140 0 l 1
 90 0 l 1
 90 730 l 1
 270 730 l 2
 368 730 440 714 484 683 c 0
 530 652 552 602 552 533 c 0
 552 465 530 415 486 383 c 0
 443 351 374 335 281 334 c 1
 573 0 l 1
 511 0 l 1
 220 334 l 1
140 379 m 1
 272 379 l 2
 353 379 412 391 448 415 c 0
 483 439 501 478 501 531 c 0
 501 585 483 624 448 648 c 0
 412 672 353 684 272 684 c 2
 140 684 l 1
 140 379 l 1
414 914 m 0
 446 890 465 857 470 816 c 1
 418 816 l 1
 413 845 399 868 378 885 c 0
 356 902 329 910 296 910 c 0
 263 910 236 902 214 885 c 0
 193 868 179 845 174 816 c 1
 122 816 l 1
 127 857 146 890 178 914 c 0
 210 940 249 952 296 952 c 0
 343 952 382 940 414 914 c 0
EndSplineSet
EndChar

StartChar: S
Encoding: 83 83 147
Width: 603
Flags: W
LayerCount: 2
Fore
SplineSet
169 5 m 0
 129 15 93 30 61 49 c 1
 81 92 l 1
 112 74 146 60 183 50 c 0
 220 41 257 36 295 36 c 0
 357 36 405 49 440 76 c 0
 475 102 492 139 492 188 c 0
 492 221 483 248 466 268 c 0
 449 289 427 304 402 316 c 0
 377 326 341 339 295 352 c 0
 244 367 203 381 172 396 c 0
 140 411 114 431 94 456 c 0
 73 482 63 515 63 555 c 0
 63 613 84 658 126 691 c 0
 167 724 225 740 300 740 c 0
 340 740 381 735 423 726 c 0
 465 717 499 705 526 690 c 1
 506 647 l 1
 481 661 450 672 412 681 c 0
 374 690 337 694 301 694 c 0
 242 694 196 682 163 658 c 0
 130 633 114 599 113 555 c 0
 113 524 121 498 138 480 c 0
 155 460 176 446 201 434 c 0
 226 424 261 412 305 400 c 0
 356 385 398 370 430 354 c 0
 463 340 490 318 510 292 c 0
 532 264 542 230 542 188 c 0
 543 126 521 78 478 42 c 0
 434 8 373 -10 295 -10 c 0
 251 -10 209 -5 169 5 c 0
EndSplineSet
EndChar

StartChar: Sacute
Encoding: 346 346 148
Width: 603
Flags: W
LayerCount: 2
Fore
SplineSet
169 5 m 0
 129 15 93 30 61 49 c 1
 81 92 l 1
 112 74 146 60 183 50 c 0
 220 41 257 36 295 36 c 0
 357 36 405 49 440 76 c 0
 475 102 492 139 492 188 c 0
 492 221 483 248 466 268 c 0
 449 289 427 304 402 316 c 0
 377 326 341 339 295 352 c 0
 244 367 203 381 172 396 c 0
 140 411 114 431 94 456 c 0
 73 482 63 515 63 555 c 0
 63 613 84 658 126 691 c 0
 167 724 225 740 300 740 c 0
 340 740 381 735 423 726 c 0
 465 717 499 705 526 690 c 1
 506 647 l 1
 481 661 450 672 412 681 c 0
 374 690 337 694 301 694 c 0
 242 694 196 682 163 658 c 0
 130 633 114 599 113 555 c 0
 113 524 121 498 138 480 c 0
 155 460 176 446 201 434 c 0
 226 424 261 412 305 400 c 0
 356 385 398 370 430 354 c 0
 463 340 490 318 510 292 c 0
 532 264 542 230 542 188 c 0
 543 126 521 78 478 42 c 0
 434 8 373 -10 295 -10 c 0
 251 -10 209 -5 169 5 c 0
270 770 m 1
 218 770 l 1
 331 980 l 1
 392 980 l 1
 270 770 l 1
EndSplineSet
EndChar

StartChar: Scaron
Encoding: 352 352 149
Width: 603
Flags: W
LayerCount: 2
Fore
SplineSet
169 5 m 0
 129 15 93 30 61 49 c 1
 81 92 l 1
 112 74 146 60 183 50 c 0
 220 41 257 36 295 36 c 0
 357 36 405 49 440 76 c 0
 475 102 492 139 492 188 c 0
 492 221 483 248 466 268 c 0
 449 289 427 304 402 316 c 0
 377 326 341 339 295 352 c 0
 244 367 203 381 172 396 c 0
 140 411 114 431 94 456 c 0
 73 482 63 515 63 555 c 0
 63 613 84 658 126 691 c 0
 167 724 225 740 300 740 c 0
 340 740 381 735 423 726 c 0
 465 717 499 705 526 690 c 1
 506 647 l 1
 481 661 450 672 412 681 c 0
 374 690 337 694 301 694 c 0
 242 694 196 682 163 658 c 0
 130 633 114 599 113 555 c 0
 113 524 121 498 138 480 c 0
 155 460 176 446 201 434 c 0
 226 424 261 412 305 400 c 0
 356 385 398 370 430 354 c 0
 463 340 490 318 510 292 c 0
 532 264 542 230 542 188 c 0
 543 126 521 78 478 42 c 0
 434 8 373 -10 295 -10 c 0
 251 -10 209 -5 169 5 c 0
112 980 m 1
 171 980 l 1
 299 796 l 1
 301 796 l 1
 429 980 l 1
 488 980 l 1
 342 770 l 1
 258 770 l 1
 112 980 l 1
EndSplineSet
EndChar

StartChar: Scedilla
Encoding: 350 350 150
Width: 603
Flags: W
LayerCount: 2
Fore
SplineSet
492 55 m 0
 458 21 410 0 348 -7 c 1
 401 -46 427 -86 427 -128 c 0
 427 -154 416 -176 394 -194 c 0
 373 -211 337 -220 288 -220 c 0
 249 -220 214 -213 182 -199 c 1
 193 -159 l 1
 222 -172 252 -178 285 -178 c 0
 312 -178 335 -174 353 -165 c 0
 371 -156 380 -142 380 -122 c 0
 380 -104 372 -85 356 -66 c 0
 339 -47 316 -28 285 -10 c 1
 198 -8 123 12 61 49 c 1
 81 92 l 1
 112 74 146 60 183 50 c 0
 220 41 257 36 295 36 c 0
 357 36 405 49 440 76 c 0
 475 102 492 139 492 188 c 0
 492 221 483 248 466 268 c 0
 449 289 427 304 402 316 c 0
 377 326 341 339 295 352 c 0
 244 367 203 381 172 396 c 0
 140 411 114 431 94 456 c 0
 73 482 63 515 63 555 c 0
 63 613 84 658 126 691 c 0
 167 724 225 740 300 740 c 0
 340 740 381 735 423 726 c 0
 465 717 499 705 526 690 c 1
 506 647 l 1
 481 661 450 672 412 681 c 0
 374 690 337 694 301 694 c 0
 242 694 196 682 163 658 c 0
 130 633 114 599 113 555 c 0
 113 524 121 498 138 480 c 0
 155 460 176 446 201 434 c 0
 226 424 261 412 305 400 c 0
 356 385 398 370 430 354 c 0
 463 340 490 318 510 292 c 0
 532 264 542 230 542 188 c 0
 543 133 526 89 492 55 c 0
EndSplineSet
EndChar

StartChar: Scircumflex
Encoding: 348 348 151
Width: 603
Flags: W
LayerCount: 2
Fore
SplineSet
169 5 m 0
 129 15 93 30 61 49 c 1
 81 92 l 1
 112 74 146 60 183 50 c 0
 220 41 257 36 295 36 c 0
 357 36 405 49 440 76 c 0
 475 102 492 139 492 188 c 0
 492 221 483 248 466 268 c 0
 449 289 427 304 402 316 c 0
 377 326 341 339 295 352 c 0
 244 367 203 381 172 396 c 0
 140 411 114 431 94 456 c 0
 73 482 63 515 63 555 c 0
 63 613 84 658 126 691 c 0
 167 724 225 740 300 740 c 0
 340 740 381 735 423 726 c 0
 465 717 499 705 526 690 c 1
 506 647 l 1
 481 661 450 672 412 681 c 0
 374 690 337 694 301 694 c 0
 242 694 196 682 163 658 c 0
 130 633 114 599 113 555 c 0
 113 524 121 498 138 480 c 0
 155 460 176 446 201 434 c 0
 226 424 261 412 305 400 c 0
 356 385 398 370 430 354 c 0
 463 340 490 318 510 292 c 0
 532 264 542 230 542 188 c 0
 543 126 521 78 478 42 c 0
 434 8 373 -10 295 -10 c 0
 251 -10 209 -5 169 5 c 0
257 980 m 1
 341 980 l 1
 487 770 l 1
 428 770 l 1
 300 954 l 1
 298 954 l 1
 170 770 l 1
 111 770 l 1
 257 980 l 1
EndSplineSet
EndChar

StartChar: uni0218
Encoding: 536 536 152
Width: 603
Flags: W
LayerCount: 2
Fore
SplineSet
169 5 m 0
 129 15 93 30 61 49 c 1
 81 92 l 1
 112 74 146 60 183 50 c 0
 220 41 257 36 295 36 c 0
 357 36 405 49 440 76 c 0
 475 102 492 139 492 188 c 0
 492 221 483 248 466 268 c 0
 449 289 427 304 402 316 c 0
 377 326 341 339 295 352 c 0
 244 367 203 381 172 396 c 0
 140 411 114 431 94 456 c 0
 73 482 63 515 63 555 c 0
 63 613 84 658 126 691 c 0
 167 724 225 740 300 740 c 0
 340 740 381 735 423 726 c 0
 465 717 499 705 526 690 c 1
 506 647 l 1
 481 661 450 672 412 681 c 0
 374 690 337 694 301 694 c 0
 242 694 196 682 163 658 c 0
 130 633 114 599 113 555 c 0
 113 524 121 498 138 480 c 0
 155 460 176 446 201 434 c 0
 226 424 261 412 305 400 c 0
 356 385 398 370 430 354 c 0
 463 340 490 318 510 292 c 0
 532 264 542 230 542 188 c 0
 543 126 521 78 478 42 c 0
 434 8 373 -10 295 -10 c 0
 251 -10 209 -5 169 5 c 0
264 -250 m 1
 212 -250 l 1
 325 -40 l 1
 386 -40 l 1
 264 -250 l 1
EndSplineSet
EndChar

StartChar: uni1E9E
Encoding: 7838 7838 153
Width: 655
Flags: W
LayerCount: 2
Fore
SplineSet
253 8 m 1
 263 53 l 1
 298 42 335 36 376 36 c 0
 441 36 491 49 526 74 c 0
 561 100 578 137 578 185 c 0
 578 234 560 271 524 296 c 0
 489 321 437 334 368 334 c 2
 351 334 l 1
 351 386 l 1
 496 568 l 1
 495 611 480 642 452 663 c 0
 425 684 383 694 328 694 c 0
 263 694 215 679 185 648 c 0
 155 618 140 570 140 504 c 2
 140 0 l 1
 90 0 l 1
 90 504 l 2
 90 583 110 642 148 682 c 0
 188 720 247 740 328 740 c 0
 473 740 546 678 546 554 c 1
 404 376 l 1
 404 374 l 1
 476 373 531 356 570 323 c 0
 609 290 628 244 628 185 c 0
 628 122 607 74 564 40 c 0
 521 7 460 -10 381 -10 c 0
 338 -10 295 -4 253 8 c 1
EndSplineSet
EndChar

StartChar: uni018F
Encoding: 399 399 154
Width: 754
Flags: W
LayerCount: 2
Fore
SplineSet
614 643 m 0
 677 578 709 486 709 365 c 0
 709 287 696 220 670 164 c 0
 643 107 605 64 554 34 c 0
 504 5 444 -10 375 -10 c 0
 306 -10 246 5 196 34 c 0
 147 63 109 106 82 162 c 0
 56 218 43 285 43 363 c 0
 43 373 43 380 44 383 c 2
 660 383 l 1
 659 485 631 562 577 615 c 0
 523 668 445 694 343 694 c 0
 299 694 255 689 212 679 c 0
 168 669 127 655 90 637 c 1
 76 680 l 1
 113 699 155 713 202 724 c 0
 248 735 294 740 341 740 c 0
 460 740 551 708 614 643 c 0
580 114 m 0
 630 166 656 240 660 337 c 1
 92 337 l 1
 96 240 122 166 172 114 c 0
 220 62 289 36 376 36 c 0
 463 36 532 62 580 114 c 0
EndSplineSet
EndChar

StartChar: T
Encoding: 84 84 155
Width: 622
Flags: W
LayerCount: 2
Fore
SplineSet
286 684 m 1
 28 684 l 1
 28 730 l 1
 594 730 l 1
 594 684 l 1
 336 684 l 1
 336 0 l 1
 286 0 l 1
 286 684 l 1
EndSplineSet
EndChar

StartChar: Tbar
Encoding: 358 358 156
Width: 678
Flags: W
LayerCount: 2
Fore
SplineSet
622 684 m 1
 364 684 l 1
 364 337 l 1
 556 337 l 1
 556 293 l 1
 364 293 l 1
 364 0 l 1
 314 0 l 1
 314 293 l 1
 123 293 l 1
 123 337 l 1
 314 337 l 1
 314 684 l 1
 56 684 l 1
 56 730 l 1
 622 730 l 1
 622 684 l 1
EndSplineSet
EndChar

StartChar: Tcaron
Encoding: 356 356 157
Width: 622
Flags: W
LayerCount: 2
Fore
SplineSet
286 684 m 1
 28 684 l 1
 28 730 l 1
 594 730 l 1
 594 684 l 1
 336 684 l 1
 336 0 l 1
 286 0 l 1
 286 684 l 1
124 980 m 1
 183 980 l 1
 311 796 l 1
 313 796 l 1
 441 980 l 1
 500 980 l 1
 354 770 l 1
 270 770 l 1
 124 980 l 1
EndSplineSet
EndChar

StartChar: uni0162
Encoding: 354 354 158
Width: 622
Flags: W
LayerCount: 2
Fore
SplineSet
336 684 m 1
 336 13 l 1
 370 -8 396 -31 414 -54 c 0
 433 -78 442 -102 442 -127 c 0
 442 -153 431 -175 410 -192 c 0
 388 -210 352 -219 303 -219 c 0
 265 -219 230 -212 198 -198 c 1
 209 -158 l 1
 236 -171 267 -177 300 -177 c 0
 327 -177 350 -173 368 -164 c 0
 386 -155 395 -141 395 -121 c 0
 395 -102 386 -82 366 -60 c 0
 348 -40 320 -19 285 0 c 1
 286 0 l 1
 286 684 l 1
 28 684 l 1
 28 730 l 1
 594 730 l 1
 594 684 l 1
 336 684 l 1
EndSplineSet
EndChar

StartChar: uni021A
Encoding: 538 538 159
Width: 622
Flags: W
LayerCount: 2
Fore
SplineSet
286 684 m 1
 28 684 l 1
 28 730 l 1
 594 730 l 1
 594 684 l 1
 336 684 l 1
 336 0 l 1
 286 0 l 1
 286 684 l 1
276 -250 m 1
 224 -250 l 1
 337 -40 l 1
 398 -40 l 1
 276 -250 l 1
EndSplineSet
EndChar

StartChar: U
Encoding: 85 85 160
Width: 695
Flags: W
LayerCount: 2
Fore
SplineSet
148 61 m 0
 104 108 81 178 81 270 c 2
 81 730 l 1
 130 730 l 1
 130 274 l 2
 130 193 148 134 184 94 c 0
 219 56 274 36 347 36 c 0
 420 36 475 56 510 94 c 0
 546 134 564 193 564 274 c 2
 564 730 l 1
 614 730 l 1
 614 270 l 2
 614 178 592 108 546 61 c 0
 502 14 435 -10 347 -10 c 0
 260 -10 194 14 148 61 c 0
EndSplineSet
EndChar

StartChar: Uacute
Encoding: 218 218 161
Width: 695
Flags: W
LayerCount: 2
Fore
SplineSet
148 61 m 0
 104 108 81 178 81 270 c 2
 81 730 l 1
 130 730 l 1
 130 274 l 2
 130 193 148 134 184 94 c 0
 219 56 274 36 347 36 c 0
 420 36 475 56 510 94 c 0
 546 134 564 193 564 274 c 2
 564 730 l 1
 614 730 l 1
 614 270 l 2
 614 178 592 108 546 61 c 0
 502 14 435 -10 347 -10 c 0
 260 -10 194 14 148 61 c 0
318 770 m 1
 266 770 l 1
 379 980 l 1
 440 980 l 1
 318 770 l 1
EndSplineSet
EndChar

StartChar: Ubreve
Encoding: 364 364 162
Width: 695
Flags: W
LayerCount: 2
Fore
SplineSet
148 61 m 0
 104 108 81 178 81 270 c 2
 81 730 l 1
 130 730 l 1
 130 274 l 2
 130 193 148 134 184 94 c 0
 219 56 274 36 347 36 c 0
 420 36 475 56 510 94 c 0
 546 134 564 193 564 274 c 2
 564 730 l 1
 614 730 l 1
 614 270 l 2
 614 178 592 108 546 61 c 0
 502 14 435 -10 347 -10 c 0
 260 -10 194 14 148 61 c 0
229 836 m 0
 197 860 178 893 173 934 c 1
 225 934 l 1
 230 905 244 882 266 865 c 0
 287 848 314 840 347 840 c 0
 380 840 407 848 428 865 c 0
 450 882 464 905 469 934 c 1
 521 934 l 1
 516 893 497 860 465 836 c 0
 433 810 394 798 347 798 c 0
 300 798 261 810 229 836 c 0
EndSplineSet
EndChar

StartChar: Ucircumflex
Encoding: 219 219 163
Width: 695
Flags: W
LayerCount: 2
Fore
SplineSet
148 61 m 0
 104 108 81 178 81 270 c 2
 81 730 l 1
 130 730 l 1
 130 274 l 2
 130 193 148 134 184 94 c 0
 219 56 274 36 347 36 c 0
 420 36 475 56 510 94 c 0
 546 134 564 193 564 274 c 2
 564 730 l 1
 614 730 l 1
 614 270 l 2
 614 178 592 108 546 61 c 0
 502 14 435 -10 347 -10 c 0
 260 -10 194 14 148 61 c 0
305 980 m 1
 389 980 l 1
 535 770 l 1
 476 770 l 1
 348 954 l 1
 346 954 l 1
 218 770 l 1
 159 770 l 1
 305 980 l 1
EndSplineSet
EndChar

StartChar: uni0214
Encoding: 532 532 164
Width: 695
Flags: W
LayerCount: 2
Fore
SplineSet
148 61 m 0
 104 108 81 178 81 270 c 2
 81 730 l 1
 130 730 l 1
 130 274 l 2
 130 193 148 134 184 94 c 0
 219 56 274 36 347 36 c 0
 420 36 475 56 510 94 c 0
 546 134 564 193 564 274 c 2
 564 730 l 1
 614 730 l 1
 614 270 l 2
 614 178 592 108 546 61 c 0
 502 14 435 -10 347 -10 c 0
 260 -10 194 14 148 61 c 0
151 980 m 1
 213 980 l 1
 325 770 l 1
 274 770 l 1
 151 980 l 1
346 980 m 1
 408 980 l 1
 520 770 l 1
 469 770 l 1
 346 980 l 1
EndSplineSet
EndChar

StartChar: Udieresis
Encoding: 220 220 165
Width: 695
Flags: W
LayerCount: 2
Fore
SplineSet
148 61 m 0
 104 108 81 178 81 270 c 2
 81 730 l 1
 130 730 l 1
 130 274 l 2
 130 193 148 134 184 94 c 0
 219 56 274 36 347 36 c 0
 420 36 475 56 510 94 c 0
 546 134 564 193 564 274 c 2
 564 730 l 1
 614 730 l 1
 614 270 l 2
 614 178 592 108 546 61 c 0
 502 14 435 -10 347 -10 c 0
 260 -10 194 14 148 61 c 0
184 916 m 1
 266 916 l 1
 266 834 l 1
 184 834 l 1
 184 916 l 1
429 916 m 1
 510 916 l 1
 510 834 l 1
 429 834 l 1
 429 916 l 1
EndSplineSet
EndChar

StartChar: uni1EE4
Encoding: 7908 7908 166
Width: 695
Flags: W
LayerCount: 2
Fore
SplineSet
148 61 m 0
 104 108 81 178 81 270 c 2
 81 730 l 1
 130 730 l 1
 130 274 l 2
 130 193 148 134 184 94 c 0
 219 56 274 36 347 36 c 0
 420 36 475 56 510 94 c 0
 546 134 564 193 564 274 c 2
 564 730 l 1
 614 730 l 1
 614 270 l 2
 614 178 592 108 546 61 c 0
 502 14 435 -10 347 -10 c 0
 260 -10 194 14 148 61 c 0
306 -104 m 1
 388 -104 l 1
 388 -186 l 1
 306 -186 l 1
 306 -104 l 1
EndSplineSet
EndChar

StartChar: Ugrave
Encoding: 217 217 167
Width: 695
Flags: W
LayerCount: 2
Fore
SplineSet
148 61 m 0
 104 108 81 178 81 270 c 2
 81 730 l 1
 130 730 l 1
 130 274 l 2
 130 193 148 134 184 94 c 0
 219 56 274 36 347 36 c 0
 420 36 475 56 510 94 c 0
 546 134 564 193 564 274 c 2
 564 730 l 1
 614 730 l 1
 614 270 l 2
 614 178 592 108 546 61 c 0
 502 14 435 -10 347 -10 c 0
 260 -10 194 14 148 61 c 0
254 980 m 1
 316 980 l 1
 428 770 l 1
 377 770 l 1
 254 980 l 1
EndSplineSet
EndChar

StartChar: uni1EE6
Encoding: 7910 7910 168
Width: 695
Flags: W
LayerCount: 2
Fore
SplineSet
148 61 m 0
 104 108 81 178 81 270 c 2
 81 730 l 1
 130 730 l 1
 130 274 l 2
 130 193 148 134 184 94 c 0
 219 56 274 36 347 36 c 0
 420 36 475 56 510 94 c 0
 546 134 564 193 564 274 c 2
 564 730 l 1
 614 730 l 1
 614 270 l 2
 614 178 592 108 546 61 c 0
 502 14 435 -10 347 -10 c 0
 260 -10 194 14 148 61 c 0
426 847 m 0
 429 863 431 877 431 888 c 0
 431 907 425 919 412 926 c 0
 399 933 375 936 339 936 c 0
 301 936 261 931 219 920 c 1
 212 961 l 1
 259 972 304 978 348 978 c 0
 399 978 434 972 454 962 c 0
 473 950 483 931 483 902 c 0
 483 889 481 873 478 855 c 0
 475 837 471 821 466 808 c 1
 415 808 l 1
 419 818 423 831 426 847 c 0
EndSplineSet
EndChar

StartChar: Uhorn
Encoding: 431 431 169
Width: 755
Flags: W
LayerCount: 2
Fore
SplineSet
778 742 m 0
 778 706 769 678 752 658 c 0
 735 638 710 628 679 628 c 0
 658 628 637 632 614 641 c 1
 614 270 l 2
 614 178 592 108 546 61 c 0
 502 14 435 -10 347 -10 c 0
 260 -10 194 14 148 61 c 0
 104 108 81 178 81 270 c 2
 81 730 l 1
 130 730 l 1
 130 274 l 2
 130 193 148 134 184 94 c 0
 219 56 274 36 347 36 c 0
 420 36 475 56 510 94 c 0
 546 134 564 193 564 274 c 2
 564 730 l 1
 614 730 l 1
 614 687 l 1
 629 677 647 672 666 672 c 0
 707 672 727 697 727 746 c 0
 727 761 725 778 722 796 c 0
 719 816 714 831 709 843 c 1
 760 843 l 1
 772 809 778 775 778 742 c 0
EndSplineSet
EndChar

StartChar: uni1EE8
Encoding: 7912 7912 170
Width: 755
Flags: W
LayerCount: 2
Fore
SplineSet
778 742 m 0
 778 706 769 678 752 658 c 0
 735 638 710 628 679 628 c 0
 658 628 637 632 614 641 c 1
 614 270 l 2
 614 178 592 108 546 61 c 0
 502 14 435 -10 347 -10 c 0
 260 -10 194 14 148 61 c 0
 104 108 81 178 81 270 c 2
 81 730 l 1
 130 730 l 1
 130 274 l 2
 130 193 148 134 184 94 c 0
 219 56 274 36 347 36 c 0
 420 36 475 56 510 94 c 0
 546 134 564 193 564 274 c 2
 564 730 l 1
 614 730 l 1
 614 687 l 1
 629 677 647 672 666 672 c 0
 707 672 727 697 727 746 c 0
 727 761 725 778 722 796 c 0
 719 816 714 831 709 843 c 1
 760 843 l 1
 772 809 778 775 778 742 c 0
318 770 m 1
 266 770 l 1
 379 980 l 1
 440 980 l 1
 318 770 l 1
EndSplineSet
EndChar

StartChar: uni1EF0
Encoding: 7920 7920 171
Width: 755
Flags: W
LayerCount: 2
Fore
SplineSet
778 742 m 0
 778 706 769 678 752 658 c 0
 735 638 710 628 679 628 c 0
 658 628 637 632 614 641 c 1
 614 270 l 2
 614 178 592 108 546 61 c 0
 502 14 435 -10 347 -10 c 0
 260 -10 194 14 148 61 c 0
 104 108 81 178 81 270 c 2
 81 730 l 1
 130 730 l 1
 130 274 l 2
 130 193 148 134 184 94 c 0
 219 56 274 36 347 36 c 0
 420 36 475 56 510 94 c 0
 546 134 564 193 564 274 c 2
 564 730 l 1
 614 730 l 1
 614 687 l 1
 629 677 647 672 666 672 c 0
 707 672 727 697 727 746 c 0
 727 761 725 778 722 796 c 0
 719 816 714 831 709 843 c 1
 760 843 l 1
 772 809 778 775 778 742 c 0
306 -104 m 1
 388 -104 l 1
 388 -186 l 1
 306 -186 l 1
 306 -104 l 1
EndSplineSet
EndChar

StartChar: uni1EEA
Encoding: 7914 7914 172
Width: 755
Flags: W
LayerCount: 2
Fore
SplineSet
778 742 m 0
 778 706 769 678 752 658 c 0
 735 638 710 628 679 628 c 0
 658 628 637 632 614 641 c 1
 614 270 l 2
 614 178 592 108 546 61 c 0
 502 14 435 -10 347 -10 c 0
 260 -10 194 14 148 61 c 0
 104 108 81 178 81 270 c 2
 81 730 l 1
 130 730 l 1
 130 274 l 2
 130 193 148 134 184 94 c 0
 219 56 274 36 347 36 c 0
 420 36 475 56 510 94 c 0
 546 134 564 193 564 274 c 2
 564 730 l 1
 614 730 l 1
 614 687 l 1
 629 677 647 672 666 672 c 0
 707 672 727 697 727 746 c 0
 727 761 725 778 722 796 c 0
 719 816 714 831 709 843 c 1
 760 843 l 1
 772 809 778 775 778 742 c 0
254 980 m 1
 316 980 l 1
 428 770 l 1
 377 770 l 1
 254 980 l 1
EndSplineSet
EndChar

StartChar: uni1EEC
Encoding: 7916 7916 173
Width: 755
Flags: W
LayerCount: 2
Fore
SplineSet
778 742 m 0
 778 706 769 678 752 658 c 0
 735 638 710 628 679 628 c 0
 658 628 637 632 614 641 c 1
 614 270 l 2
 614 178 592 108 546 61 c 0
 502 14 435 -10 347 -10 c 0
 260 -10 194 14 148 61 c 0
 104 108 81 178 81 270 c 2
 81 730 l 1
 130 730 l 1
 130 274 l 2
 130 193 148 134 184 94 c 0
 219 56 274 36 347 36 c 0
 420 36 475 56 510 94 c 0
 546 134 564 193 564 274 c 2
 564 730 l 1
 614 730 l 1
 614 687 l 1
 629 677 647 672 666 672 c 0
 707 672 727 697 727 746 c 0
 727 761 725 778 722 796 c 0
 719 816 714 831 709 843 c 1
 760 843 l 1
 772 809 778 775 778 742 c 0
426 847 m 0
 429 863 431 877 431 888 c 0
 431 907 425 919 412 926 c 0
 399 933 375 936 339 936 c 0
 301 936 261 931 219 920 c 1
 212 961 l 1
 259 972 304 978 348 978 c 0
 399 978 434 972 454 962 c 0
 473 950 483 931 483 902 c 0
 483 889 481 873 478 855 c 0
 475 837 471 821 466 808 c 1
 415 808 l 1
 419 818 423 831 426 847 c 0
EndSplineSet
EndChar

StartChar: uni1EEE
Encoding: 7918 7918 174
Width: 755
Flags: W
LayerCount: 2
Fore
SplineSet
778 742 m 0
 778 706 769 678 752 658 c 0
 735 638 710 628 679 628 c 0
 658 628 637 632 614 641 c 1
 614 270 l 2
 614 178 592 108 546 61 c 0
 502 14 435 -10 347 -10 c 0
 260 -10 194 14 148 61 c 0
 104 108 81 178 81 270 c 2
 81 730 l 1
 130 730 l 1
 130 274 l 2
 130 193 148 134 184 94 c 0
 219 56 274 36 347 36 c 0
 420 36 475 56 510 94 c 0
 546 134 564 193 564 274 c 2
 564 730 l 1
 614 730 l 1
 614 687 l 1
 629 677 647 672 666 672 c 0
 707 672 727 697 727 746 c 0
 727 761 725 778 722 796 c 0
 719 816 714 831 709 843 c 1
 760 843 l 1
 772 809 778 775 778 742 c 0
388 820 m 0
 368 828 350 841 331 857 c 0
 302 883 276 896 254 896 c 0
 243 896 234 890 229 878 c 0
 224 866 221 845 221 816 c 1
 173 816 l 1
 173 901 200 944 254 944 c 0
 270 944 288 940 306 930 c 0
 326 922 344 909 363 893 c 0
 392 867 418 854 440 854 c 0
 451 854 460 860 465 872 c 0
 470 884 473 905 473 934 c 1
 521 934 l 1
 521 849 494 806 440 806 c 0
 424 806 406 810 388 820 c 0
EndSplineSet
EndChar

StartChar: Uhungarumlaut
Encoding: 368 368 175
Width: 695
Flags: W
LayerCount: 2
Fore
SplineSet
148 61 m 0
 104 108 81 178 81 270 c 2
 81 730 l 1
 130 730 l 1
 130 274 l 2
 130 193 148 134 184 94 c 0
 219 56 274 36 347 36 c 0
 420 36 475 56 510 94 c 0
 546 134 564 193 564 274 c 2
 564 730 l 1
 614 730 l 1
 614 270 l 2
 614 178 592 108 546 61 c 0
 502 14 435 -10 347 -10 c 0
 260 -10 194 14 148 61 c 0
228 770 m 1
 176 770 l 1
 289 980 l 1
 350 980 l 1
 228 770 l 1
423 770 m 1
 371 770 l 1
 484 980 l 1
 545 980 l 1
 423 770 l 1
EndSplineSet
EndChar

StartChar: uni0216
Encoding: 534 534 176
Width: 695
Flags: W
LayerCount: 2
Fore
SplineSet
148 61 m 0
 104 108 81 178 81 270 c 2
 81 730 l 1
 130 730 l 1
 130 274 l 2
 130 193 148 134 184 94 c 0
 219 56 274 36 347 36 c 0
 420 36 475 56 510 94 c 0
 546 134 564 193 564 274 c 2
 564 730 l 1
 614 730 l 1
 614 270 l 2
 614 178 592 108 546 61 c 0
 502 14 435 -10 347 -10 c 0
 260 -10 194 14 148 61 c 0
465 914 m 0
 497 890 516 857 521 816 c 1
 469 816 l 1
 464 845 450 868 428 885 c 0
 407 902 380 910 347 910 c 0
 314 910 287 902 266 885 c 0
 244 868 230 845 225 816 c 1
 173 816 l 1
 178 857 197 890 229 914 c 0
 261 940 300 952 347 952 c 0
 394 952 433 940 465 914 c 0
EndSplineSet
EndChar

StartChar: Umacron
Encoding: 362 362 177
Width: 695
Flags: W
LayerCount: 2
Fore
SplineSet
148 61 m 0
 104 108 81 178 81 270 c 2
 81 730 l 1
 130 730 l 1
 130 274 l 2
 130 193 148 134 184 94 c 0
 219 56 274 36 347 36 c 0
 420 36 475 56 510 94 c 0
 546 134 564 193 564 274 c 2
 564 730 l 1
 614 730 l 1
 614 270 l 2
 614 178 592 108 546 61 c 0
 502 14 435 -10 347 -10 c 0
 260 -10 194 14 148 61 c 0
173 896 m 1
 522 896 l 1
 522 854 l 1
 173 854 l 1
 173 896 l 1
EndSplineSet
EndChar

StartChar: Uogonek
Encoding: 370 370 178
Width: 695
Flags: W
LayerCount: 2
Fore
SplineSet
378 -54 m 0
 360 -73 352 -92 352 -111 c 0
 352 -131 361 -145 379 -154 c 0
 397 -163 420 -167 447 -167 c 0
 480 -167 511 -161 538 -148 c 1
 549 -188 l 1
 517 -202 482 -209 444 -209 c 0
 395 -209 359 -200 338 -182 c 0
 316 -165 305 -143 305 -117 c 0
 305 -80 325 -45 366 -10 c 1
 347 -10 l 2
 260 -10 194 14 148 61 c 0
 104 108 81 178 81 270 c 2
 81 730 l 1
 130 730 l 1
 130 274 l 2
 130 193 148 134 184 94 c 0
 219 56 274 36 347 36 c 0
 420 36 475 56 510 94 c 0
 546 134 564 193 564 274 c 2
 564 730 l 1
 614 730 l 1
 614 270 l 2
 614 199 600 141 573 96 c 0
 546 51 505 21 452 4 c 1
 419 -15 394 -34 378 -54 c 0
EndSplineSet
EndChar

StartChar: Uring
Encoding: 366 366 179
Width: 695
Flags: W
LayerCount: 2
Fore
SplineSet
148 61 m 0
 104 108 81 178 81 270 c 2
 81 730 l 1
 130 730 l 1
 130 274 l 2
 130 193 148 134 184 94 c 0
 219 56 274 36 347 36 c 0
 420 36 475 56 510 94 c 0
 546 134 564 193 564 274 c 2
 564 730 l 1
 614 730 l 1
 614 270 l 2
 614 178 592 108 546 61 c 0
 502 14 435 -10 347 -10 c 0
 260 -10 194 14 148 61 c 0
280 750 m 0
 260 762 244 778 232 798 c 0
 220 819 214 841 214 865 c 0
 214 889 220 911 232 932 c 0
 244 952 260 968 280 980 c 0
 301 992 323 998 347 998 c 0
 372 998 394 992 414 980 c 0
 435 968 451 952 463 932 c 0
 475 911 481 889 481 865 c 0
 481 841 475 819 463 798 c 0
 451 778 435 762 414 750 c 0
 394 738 372 732 347 732 c 0
 323 732 301 738 280 750 c 0
414 799 m 0
 432 817 441 839 441 865 c 0
 441 891 432 913 414 931 c 0
 395 949 373 958 347 958 c 0
 322 958 300 949 282 931 c 0
 263 913 254 891 254 865 c 0
 254 839 263 817 282 799 c 0
 300 781 322 772 347 772 c 0
 373 772 395 781 414 799 c 0
EndSplineSet
EndChar

StartChar: Utilde
Encoding: 360 360 180
Width: 695
Flags: W
LayerCount: 2
Fore
SplineSet
148 61 m 0
 104 108 81 178 81 270 c 2
 81 730 l 1
 130 730 l 1
 130 274 l 2
 130 193 148 134 184 94 c 0
 219 56 274 36 347 36 c 0
 420 36 475 56 510 94 c 0
 546 134 564 193 564 274 c 2
 564 730 l 1
 614 730 l 1
 614 270 l 2
 614 178 592 108 546 61 c 0
 502 14 435 -10 347 -10 c 0
 260 -10 194 14 148 61 c 0
388 820 m 0
 368 828 350 841 331 857 c 0
 302 883 276 896 254 896 c 0
 243 896 234 890 229 878 c 0
 224 866 221 845 221 816 c 1
 173 816 l 1
 173 901 200 944 254 944 c 0
 270 944 288 940 306 930 c 0
 326 922 344 909 363 893 c 0
 392 867 418 854 440 854 c 0
 451 854 460 860 465 872 c 0
 470 884 473 905 473 934 c 1
 521 934 l 1
 521 849 494 806 440 806 c 0
 424 806 406 810 388 820 c 0
EndSplineSet
EndChar

StartChar: V
Encoding: 86 86 181
Width: 657
Flags: W
LayerCount: 2
Fore
SplineSet
17 730 m 1
 71 730 l 1
 327 50 l 1
 329 50 l 1
 585 730 l 1
 640 730 l 1
 362 0 l 1
 294 0 l 1
 17 730 l 1
EndSplineSet
EndChar

StartChar: W
Encoding: 87 87 182
Width: 904
Flags: W
LayerCount: 2
Fore
SplineSet
453 679 m 1
 451 679 l 1
 279 0 l 1
 213 0 l 1
 29 730 l 1
 80 730 l 1
 245 51 l 1
 247 51 l 1
 419 730 l 1
 487 730 l 1
 658 51 l 1
 660 51 l 1
 825 730 l 1
 875 730 l 1
 691 0 l 1
 625 0 l 1
 453 679 l 1
EndSplineSet
EndChar

StartChar: Wacute
Encoding: 7810 7810 183
Width: 904
Flags: W
LayerCount: 2
Fore
SplineSet
453 679 m 1
 451 679 l 1
 279 0 l 1
 213 0 l 1
 29 730 l 1
 80 730 l 1
 245 51 l 1
 247 51 l 1
 419 730 l 1
 487 730 l 1
 658 51 l 1
 660 51 l 1
 825 730 l 1
 875 730 l 1
 691 0 l 1
 625 0 l 1
 453 679 l 1
422 770 m 1
 370 770 l 1
 483 980 l 1
 544 980 l 1
 422 770 l 1
EndSplineSet
EndChar

StartChar: Wcircumflex
Encoding: 372 372 184
Width: 904
Flags: W
LayerCount: 2
Fore
SplineSet
453 679 m 1
 451 679 l 1
 279 0 l 1
 213 0 l 1
 29 730 l 1
 80 730 l 1
 245 51 l 1
 247 51 l 1
 419 730 l 1
 487 730 l 1
 658 51 l 1
 660 51 l 1
 825 730 l 1
 875 730 l 1
 691 0 l 1
 625 0 l 1
 453 679 l 1
410 980 m 1
 494 980 l 1
 640 770 l 1
 581 770 l 1
 453 954 l 1
 451 954 l 1
 323 770 l 1
 264 770 l 1
 410 980 l 1
EndSplineSet
EndChar

StartChar: Wdieresis
Encoding: 7812 7812 185
Width: 904
Flags: W
LayerCount: 2
Fore
SplineSet
453 679 m 1
 451 679 l 1
 279 0 l 1
 213 0 l 1
 29 730 l 1
 80 730 l 1
 245 51 l 1
 247 51 l 1
 419 730 l 1
 487 730 l 1
 658 51 l 1
 660 51 l 1
 825 730 l 1
 875 730 l 1
 691 0 l 1
 625 0 l 1
 453 679 l 1
288 916 m 1
 370 916 l 1
 370 834 l 1
 288 834 l 1
 288 916 l 1
533 916 m 1
 614 916 l 1
 614 834 l 1
 533 834 l 1
 533 916 l 1
EndSplineSet
EndChar

StartChar: Wgrave
Encoding: 7808 7808 186
Width: 904
Flags: W
LayerCount: 2
Fore
SplineSet
453 679 m 1
 451 679 l 1
 279 0 l 1
 213 0 l 1
 29 730 l 1
 80 730 l 1
 245 51 l 1
 247 51 l 1
 419 730 l 1
 487 730 l 1
 658 51 l 1
 660 51 l 1
 825 730 l 1
 875 730 l 1
 691 0 l 1
 625 0 l 1
 453 679 l 1
358 980 m 1
 420 980 l 1
 532 770 l 1
 481 770 l 1
 358 980 l 1
EndSplineSet
EndChar

StartChar: X
Encoding: 88 88 187
Width: 688
Flags: W
LayerCount: 2
Fore
SplineSet
309 368 m 1
 62 730 l 1
 120 730 l 1
 343 402 l 1
 345 402 l 1
 568 730 l 1
 626 730 l 1
 379 368 l 1
 631 0 l 1
 573 0 l 1
 345 336 l 1
 343 336 l 1
 115 0 l 1
 57 0 l 1
 309 368 l 1
EndSplineSet
EndChar

StartChar: Y
Encoding: 89 89 188
Width: 633
Flags: W
LayerCount: 2
Fore
SplineSet
291 309 m 1
 10 730 l 1
 67 730 l 1
 315 357 l 1
 317 357 l 1
 565 730 l 1
 623 730 l 1
 342 309 l 1
 342 0 l 1
 291 0 l 1
 291 309 l 1
EndSplineSet
EndChar

StartChar: Yacute
Encoding: 221 221 189
Width: 633
Flags: W
LayerCount: 2
Fore
SplineSet
291 309 m 1
 10 730 l 1
 67 730 l 1
 315 357 l 1
 317 357 l 1
 565 730 l 1
 623 730 l 1
 342 309 l 1
 342 0 l 1
 291 0 l 1
 291 309 l 1
287 770 m 1
 235 770 l 1
 348 980 l 1
 409 980 l 1
 287 770 l 1
EndSplineSet
EndChar

StartChar: Ycircumflex
Encoding: 374 374 190
Width: 633
Flags: W
LayerCount: 2
Fore
SplineSet
291 309 m 1
 10 730 l 1
 67 730 l 1
 315 357 l 1
 317 357 l 1
 565 730 l 1
 623 730 l 1
 342 309 l 1
 342 0 l 1
 291 0 l 1
 291 309 l 1
274 980 m 1
 358 980 l 1
 504 770 l 1
 445 770 l 1
 317 954 l 1
 315 954 l 1
 187 770 l 1
 128 770 l 1
 274 980 l 1
EndSplineSet
EndChar

StartChar: Ydieresis
Encoding: 376 376 191
Width: 633
Flags: W
LayerCount: 2
Fore
SplineSet
291 309 m 1
 10 730 l 1
 67 730 l 1
 315 357 l 1
 317 357 l 1
 565 730 l 1
 623 730 l 1
 342 309 l 1
 342 0 l 1
 291 0 l 1
 291 309 l 1
153 916 m 1
 235 916 l 1
 235 834 l 1
 153 834 l 1
 153 916 l 1
398 916 m 1
 479 916 l 1
 479 834 l 1
 398 834 l 1
 398 916 l 1
EndSplineSet
EndChar

StartChar: uni1EF4
Encoding: 7924 7924 192
Width: 633
Flags: W
LayerCount: 2
Fore
SplineSet
291 309 m 1
 10 730 l 1
 67 730 l 1
 315 357 l 1
 317 357 l 1
 565 730 l 1
 623 730 l 1
 342 309 l 1
 342 0 l 1
 291 0 l 1
 291 309 l 1
275 -104 m 1
 357 -104 l 1
 357 -186 l 1
 275 -186 l 1
 275 -104 l 1
EndSplineSet
EndChar

StartChar: Ygrave
Encoding: 7922 7922 193
Width: 633
Flags: W
LayerCount: 2
Fore
SplineSet
291 309 m 1
 10 730 l 1
 67 730 l 1
 315 357 l 1
 317 357 l 1
 565 730 l 1
 623 730 l 1
 342 309 l 1
 342 0 l 1
 291 0 l 1
 291 309 l 1
223 980 m 1
 285 980 l 1
 397 770 l 1
 346 770 l 1
 223 980 l 1
EndSplineSet
EndChar

StartChar: uni1EF6
Encoding: 7926 7926 194
Width: 633
Flags: W
LayerCount: 2
Fore
SplineSet
291 309 m 1
 10 730 l 1
 67 730 l 1
 315 357 l 1
 317 357 l 1
 565 730 l 1
 623 730 l 1
 342 309 l 1
 342 0 l 1
 291 0 l 1
 291 309 l 1
395 847 m 0
 398 863 400 877 400 888 c 0
 400 907 394 919 381 926 c 0
 368 933 344 936 308 936 c 0
 270 936 230 931 188 920 c 1
 181 961 l 1
 228 972 273 978 317 978 c 0
 368 978 403 972 422 962 c 0
 442 950 452 931 452 902 c 0
 452 889 450 873 447 855 c 0
 444 837 440 821 435 808 c 1
 384 808 l 1
 388 818 392 831 395 847 c 0
EndSplineSet
EndChar

StartChar: uni0232
Encoding: 562 562 195
Width: 633
Flags: W
LayerCount: 2
Fore
SplineSet
291 309 m 1
 10 730 l 1
 67 730 l 1
 315 357 l 1
 317 357 l 1
 565 730 l 1
 623 730 l 1
 342 309 l 1
 342 0 l 1
 291 0 l 1
 291 309 l 1
142 896 m 1
 491 896 l 1
 491 854 l 1
 142 854 l 1
 142 896 l 1
EndSplineSet
EndChar

StartChar: uni1EF8
Encoding: 7928 7928 196
Width: 633
Flags: W
LayerCount: 2
Fore
SplineSet
291 309 m 1
 10 730 l 1
 67 730 l 1
 315 357 l 1
 317 357 l 1
 565 730 l 1
 623 730 l 1
 342 309 l 1
 342 0 l 1
 291 0 l 1
 291 309 l 1
356 820 m 0
 338 828 319 841 300 857 c 0
 271 883 245 896 223 896 c 0
 212 896 203 890 198 878 c 0
 193 866 190 845 190 816 c 1
 142 816 l 1
 142 901 169 944 223 944 c 0
 239 944 256 940 276 930 c 0
 294 922 313 909 332 893 c 0
 361 867 387 854 409 854 c 0
 420 854 429 860 434 872 c 0
 439 884 442 905 442 934 c 1
 490 934 l 1
 490 849 463 806 409 806 c 0
 393 806 376 810 356 820 c 0
EndSplineSet
EndChar

StartChar: Z
Encoding: 90 90 197
Width: 634
Flags: W
LayerCount: 2
Fore
SplineSet
72 46 m 1
 500 682 l 1
 500 684 l 1
 72 684 l 1
 72 730 l 1
 562 730 l 1
 562 684 l 1
 134 48 l 1
 134 46 l 1
 562 46 l 1
 562 0 l 1
 72 0 l 1
 72 46 l 1
EndSplineSet
EndChar

StartChar: Zacute
Encoding: 377 377 198
Width: 634
Flags: W
LayerCount: 2
Fore
SplineSet
72 46 m 1
 500 682 l 1
 500 684 l 1
 72 684 l 1
 72 730 l 1
 562 730 l 1
 562 684 l 1
 134 48 l 1
 134 46 l 1
 562 46 l 1
 562 0 l 1
 72 0 l 1
 72 46 l 1
287 770 m 1
 235 770 l 1
 348 980 l 1
 409 980 l 1
 287 770 l 1
EndSplineSet
EndChar

StartChar: Zcaron
Encoding: 381 381 199
Width: 634
Flags: W
LayerCount: 2
Fore
SplineSet
72 46 m 1
 500 682 l 1
 500 684 l 1
 72 684 l 1
 72 730 l 1
 562 730 l 1
 562 684 l 1
 134 48 l 1
 134 46 l 1
 562 46 l 1
 562 0 l 1
 72 0 l 1
 72 46 l 1
129 980 m 1
 188 980 l 1
 316 796 l 1
 318 796 l 1
 446 980 l 1
 505 980 l 1
 359 770 l 1
 275 770 l 1
 129 980 l 1
EndSplineSet
EndChar

StartChar: Zdotaccent
Encoding: 379 379 200
Width: 634
Flags: W
LayerCount: 2
Fore
SplineSet
72 46 m 1
 500 682 l 1
 500 684 l 1
 72 684 l 1
 72 730 l 1
 562 730 l 1
 562 684 l 1
 134 48 l 1
 134 46 l 1
 562 46 l 1
 562 0 l 1
 72 0 l 1
 72 46 l 1
276 916 m 1
 358 916 l 1
 358 834 l 1
 276 834 l 1
 276 916 l 1
EndSplineSet
EndChar

StartChar: a
Encoding: 97 97 201
Width: 523
Flags: W
LayerCount: 2
Fore
SplineSet
407 484 m 0
 436 453 450 401 450 328 c 2
 450 0 l 1
 402 0 l 1
 402 85 l 1
 400 85 l 1
 382 56 355 33 319 16 c 0
 283 -1 244 -10 203 -10 c 0
 151 -10 110 4 78 32 c 0
 48 59 32 96 32 142 c 0
 32 202 59 248 114 280 c 0
 168 313 245 329 345 329 c 2
 401 329 l 1
 401 330 l 2
 401 369 396 400 388 423 c 0
 378 446 364 462 344 472 c 0
 323 482 295 487 260 487 c 0
 191 487 127 472 67 441 c 1
 52 480 l 1
 115 513 185 530 262 530 c 0
 330 530 378 515 407 484 c 0
308 56 m 0
 336 71 359 92 376 119 c 0
 393 146 401 175 401 208 c 2
 401 288 l 1
 345 288 l 2
 260 288 195 276 150 251 c 0
 104 226 81 191 81 145 c 0
 81 111 93 84 117 63 c 0
 141 42 173 32 212 32 c 0
 247 32 278 40 308 56 c 0
EndSplineSet
EndChar

StartChar: aacute
Encoding: 225 225 202
Width: 523
Flags: W
LayerCount: 2
Fore
SplineSet
407 484 m 0
 436 453 450 401 450 328 c 2
 450 0 l 1
 402 0 l 1
 402 85 l 1
 400 85 l 1
 382 56 355 33 319 16 c 0
 283 -1 244 -10 203 -10 c 0
 151 -10 110 4 78 32 c 0
 48 59 32 96 32 142 c 0
 32 202 59 248 114 280 c 0
 168 313 245 329 345 329 c 2
 401 329 l 1
 401 330 l 2
 401 369 396 400 388 423 c 0
 378 446 364 462 344 472 c 0
 323 482 295 487 260 487 c 0
 191 487 127 472 67 441 c 1
 52 480 l 1
 115 513 185 530 262 530 c 0
 330 530 378 515 407 484 c 0
308 56 m 0
 336 71 359 92 376 119 c 0
 393 146 401 175 401 208 c 2
 401 288 l 1
 345 288 l 2
 260 288 195 276 150 251 c 0
 104 226 81 191 81 145 c 0
 81 111 93 84 117 63 c 0
 141 42 173 32 212 32 c 0
 247 32 278 40 308 56 c 0
232 560 m 1
 180 560 l 1
 293 770 l 1
 354 770 l 1
 232 560 l 1
EndSplineSet
EndChar

StartChar: abreve
Encoding: 259 259 203
Width: 523
Flags: W
LayerCount: 2
Fore
SplineSet
407 484 m 0
 436 453 450 401 450 328 c 2
 450 0 l 1
 402 0 l 1
 402 85 l 1
 400 85 l 1
 382 56 355 33 319 16 c 0
 283 -1 244 -10 203 -10 c 0
 151 -10 110 4 78 32 c 0
 48 59 32 96 32 142 c 0
 32 202 59 248 114 280 c 0
 168 313 245 329 345 329 c 2
 401 329 l 1
 401 330 l 2
 401 369 396 400 388 423 c 0
 378 446 364 462 344 472 c 0
 323 482 295 487 260 487 c 0
 191 487 127 472 67 441 c 1
 52 480 l 1
 115 513 185 530 262 530 c 0
 330 530 378 515 407 484 c 0
308 56 m 0
 336 71 359 92 376 119 c 0
 393 146 401 175 401 208 c 2
 401 288 l 1
 345 288 l 2
 260 288 195 276 150 251 c 0
 104 226 81 191 81 145 c 0
 81 111 93 84 117 63 c 0
 141 42 173 32 212 32 c 0
 247 32 278 40 308 56 c 0
144 626 m 0
 112 650 93 683 88 724 c 1
 140 724 l 1
 145 695 159 672 180 655 c 0
 202 638 229 630 262 630 c 0
 295 630 322 638 344 655 c 0
 365 672 379 695 384 724 c 1
 436 724 l 1
 431 683 412 650 380 626 c 0
 348 600 309 588 262 588 c 0
 215 588 176 600 144 626 c 0
EndSplineSet
EndChar

StartChar: uni1EAF
Encoding: 7855 7855 204
Width: 523
Flags: W
LayerCount: 2
Fore
SplineSet
407 484 m 0
 436 453 450 401 450 328 c 2
 450 0 l 1
 402 0 l 1
 402 85 l 1
 400 85 l 1
 382 56 355 33 319 16 c 0
 283 -1 244 -10 203 -10 c 0
 151 -10 110 4 78 32 c 0
 48 59 32 96 32 142 c 0
 32 202 59 248 114 280 c 0
 168 313 245 329 345 329 c 2
 401 329 l 1
 401 330 l 2
 401 369 396 400 388 423 c 0
 378 446 364 462 344 472 c 0
 323 482 295 487 260 487 c 0
 191 487 127 472 67 441 c 1
 52 480 l 1
 115 513 185 530 262 530 c 0
 330 530 378 515 407 484 c 0
308 56 m 0
 336 71 359 92 376 119 c 0
 393 146 401 175 401 208 c 2
 401 288 l 1
 345 288 l 2
 260 288 195 276 150 251 c 0
 104 226 81 191 81 145 c 0
 81 111 93 84 117 63 c 0
 141 42 173 32 212 32 c 0
 247 32 278 40 308 56 c 0
144 626 m 0
 112 650 93 683 88 724 c 1
 140 724 l 1
 145 695 159 672 180 655 c 0
 202 638 229 630 262 630 c 0
 295 630 322 638 344 655 c 0
 365 672 379 695 384 724 c 1
 436 724 l 1
 431 683 412 650 380 626 c 0
 348 600 309 588 262 588 c 0
 215 588 176 600 144 626 c 0
232 710 m 1
 180 710 l 1
 293 920 l 1
 354 920 l 1
 232 710 l 1
EndSplineSet
EndChar

StartChar: uni1EB7
Encoding: 7863 7863 205
Width: 523
Flags: W
LayerCount: 2
Fore
SplineSet
407 484 m 0
 436 453 450 401 450 328 c 2
 450 0 l 1
 402 0 l 1
 402 85 l 1
 400 85 l 1
 382 56 355 33 319 16 c 0
 283 -1 244 -10 203 -10 c 0
 151 -10 110 4 78 32 c 0
 48 59 32 96 32 142 c 0
 32 202 59 248 114 280 c 0
 168 313 245 329 345 329 c 2
 401 329 l 1
 401 330 l 2
 401 369 396 400 388 423 c 0
 378 446 364 462 344 472 c 0
 323 482 295 487 260 487 c 0
 191 487 127 472 67 441 c 1
 52 480 l 1
 115 513 185 530 262 530 c 0
 330 530 378 515 407 484 c 0
308 56 m 0
 336 71 359 92 376 119 c 0
 393 146 401 175 401 208 c 2
 401 288 l 1
 345 288 l 2
 260 288 195 276 150 251 c 0
 104 226 81 191 81 145 c 0
 81 111 93 84 117 63 c 0
 141 42 173 32 212 32 c 0
 247 32 278 40 308 56 c 0
221 -104 m 1
 303 -104 l 1
 303 -186 l 1
 221 -186 l 1
 221 -104 l 1
144 626 m 0
 112 650 93 683 88 724 c 1
 140 724 l 1
 145 695 159 672 180 655 c 0
 202 638 229 630 262 630 c 0
 295 630 322 638 344 655 c 0
 365 672 379 695 384 724 c 1
 436 724 l 1
 431 683 412 650 380 626 c 0
 348 600 309 588 262 588 c 0
 215 588 176 600 144 626 c 0
EndSplineSet
EndChar

StartChar: uni1EB1
Encoding: 7857 7857 206
Width: 523
Flags: W
LayerCount: 2
Fore
SplineSet
407 484 m 0
 436 453 450 401 450 328 c 2
 450 0 l 1
 402 0 l 1
 402 85 l 1
 400 85 l 1
 382 56 355 33 319 16 c 0
 283 -1 244 -10 203 -10 c 0
 151 -10 110 4 78 32 c 0
 48 59 32 96 32 142 c 0
 32 202 59 248 114 280 c 0
 168 313 245 329 345 329 c 2
 401 329 l 1
 401 330 l 2
 401 369 396 400 388 423 c 0
 378 446 364 462 344 472 c 0
 323 482 295 487 260 487 c 0
 191 487 127 472 67 441 c 1
 52 480 l 1
 115 513 185 530 262 530 c 0
 330 530 378 515 407 484 c 0
308 56 m 0
 336 71 359 92 376 119 c 0
 393 146 401 175 401 208 c 2
 401 288 l 1
 345 288 l 2
 260 288 195 276 150 251 c 0
 104 226 81 191 81 145 c 0
 81 111 93 84 117 63 c 0
 141 42 173 32 212 32 c 0
 247 32 278 40 308 56 c 0
144 626 m 0
 112 650 93 683 88 724 c 1
 140 724 l 1
 145 695 159 672 180 655 c 0
 202 638 229 630 262 630 c 0
 295 630 322 638 344 655 c 0
 365 672 379 695 384 724 c 1
 436 724 l 1
 431 683 412 650 380 626 c 0
 348 600 309 588 262 588 c 0
 215 588 176 600 144 626 c 0
169 920 m 1
 231 920 l 1
 343 710 l 1
 292 710 l 1
 169 920 l 1
EndSplineSet
EndChar

StartChar: uni1EB3
Encoding: 7859 7859 207
Width: 523
Flags: W
LayerCount: 2
Fore
SplineSet
340 652 m 0
 362 668 375 688 382 715 c 1
 332 715 l 1
 336 725 340 738 343 754 c 0
 346 770 348 784 348 795 c 0
 348 814 342 826 329 833 c 0
 316 840 292 843 256 843 c 0
 218 843 178 838 136 827 c 1
 129 868 l 1
 176 879 221 885 265 885 c 0
 316 885 351 880 370 868 c 0
 390 858 400 838 400 809 c 0
 400 797 399 783 396 768 c 0
 393 752 390 737 386 724 c 1
 436 724 l 1
 431 683 412 650 380 626 c 0
 348 600 309 588 262 588 c 0
 215 588 176 600 144 626 c 0
 112 650 93 683 88 724 c 1
 140 724 l 1
 145 695 159 672 180 655 c 0
 202 638 229 630 262 630 c 0
 293 630 320 638 340 652 c 0
407 484 m 0
 436 453 450 401 450 328 c 2
 450 0 l 1
 402 0 l 1
 402 85 l 1
 400 85 l 1
 382 56 355 33 319 16 c 0
 283 -1 244 -10 203 -10 c 0
 151 -10 110 4 78 32 c 0
 48 59 32 96 32 142 c 0
 32 202 59 248 114 280 c 0
 168 313 245 329 345 329 c 2
 401 329 l 1
 401 330 l 2
 401 369 396 400 388 423 c 0
 378 446 364 462 344 472 c 0
 323 482 295 487 260 487 c 0
 191 487 127 472 67 441 c 1
 52 480 l 1
 115 513 185 530 262 530 c 0
 330 530 378 515 407 484 c 0
308 56 m 0
 336 71 359 92 376 119 c 0
 393 146 401 175 401 208 c 2
 401 288 l 1
 345 288 l 2
 260 288 195 276 150 251 c 0
 104 226 81 191 81 145 c 0
 81 111 93 84 117 63 c 0
 141 42 173 32 212 32 c 0
 247 32 278 40 308 56 c 0
EndSplineSet
EndChar

StartChar: uni1EB5
Encoding: 7861 7861 208
Width: 523
Flags: W
LayerCount: 2
Fore
SplineSet
407 484 m 0
 436 453 450 401 450 328 c 2
 450 0 l 1
 402 0 l 1
 402 85 l 1
 400 85 l 1
 382 56 355 33 319 16 c 0
 283 -1 244 -10 203 -10 c 0
 151 -10 110 4 78 32 c 0
 48 59 32 96 32 142 c 0
 32 202 59 248 114 280 c 0
 168 313 245 329 345 329 c 2
 401 329 l 1
 401 330 l 2
 401 369 396 400 388 423 c 0
 378 446 364 462 344 472 c 0
 323 482 295 487 260 487 c 0
 191 487 127 472 67 441 c 1
 52 480 l 1
 115 513 185 530 262 530 c 0
 330 530 378 515 407 484 c 0
308 56 m 0
 336 71 359 92 376 119 c 0
 393 146 401 175 401 208 c 2
 401 288 l 1
 345 288 l 2
 260 288 195 276 150 251 c 0
 104 226 81 191 81 145 c 0
 81 111 93 84 117 63 c 0
 141 42 173 32 212 32 c 0
 247 32 278 40 308 56 c 0
144 626 m 0
 112 650 93 683 88 724 c 1
 140 724 l 1
 145 695 159 672 180 655 c 0
 202 638 229 630 262 630 c 0
 295 630 322 638 344 655 c 0
 365 672 379 695 384 724 c 1
 436 724 l 1
 431 683 412 650 380 626 c 0
 348 600 309 588 262 588 c 0
 215 588 176 600 144 626 c 0
302 792 m 0
 284 802 265 814 246 830 c 0
 217 856 191 869 169 869 c 0
 158 869 149 863 144 851 c 0
 139 839 136 818 136 789 c 1
 88 789 l 1
 88 874 115 917 169 917 c 0
 185 917 202 912 222 904 c 0
 240 894 259 882 278 866 c 0
 307 840 333 827 355 827 c 0
 366 827 375 833 380 845 c 0
 385 857 388 878 388 907 c 1
 436 907 l 1
 436 822 409 779 355 779 c 0
 339 779 322 784 302 792 c 0
EndSplineSet
EndChar

StartChar: acircumflex
Encoding: 226 226 209
Width: 523
Flags: W
LayerCount: 2
Fore
SplineSet
407 484 m 0
 436 453 450 401 450 328 c 2
 450 0 l 1
 402 0 l 1
 402 85 l 1
 400 85 l 1
 382 56 355 33 319 16 c 0
 283 -1 244 -10 203 -10 c 0
 151 -10 110 4 78 32 c 0
 48 59 32 96 32 142 c 0
 32 202 59 248 114 280 c 0
 168 313 245 329 345 329 c 2
 401 329 l 1
 401 330 l 2
 401 369 396 400 388 423 c 0
 378 446 364 462 344 472 c 0
 323 482 295 487 260 487 c 0
 191 487 127 472 67 441 c 1
 52 480 l 1
 115 513 185 530 262 530 c 0
 330 530 378 515 407 484 c 0
308 56 m 0
 336 71 359 92 376 119 c 0
 393 146 401 175 401 208 c 2
 401 288 l 1
 345 288 l 2
 260 288 195 276 150 251 c 0
 104 226 81 191 81 145 c 0
 81 111 93 84 117 63 c 0
 141 42 173 32 212 32 c 0
 247 32 278 40 308 56 c 0
220 770 m 1
 304 770 l 1
 450 560 l 1
 391 560 l 1
 263 744 l 1
 261 744 l 1
 133 560 l 1
 74 560 l 1
 220 770 l 1
EndSplineSet
EndChar

StartChar: uni1EA5
Encoding: 7845 7845 210
Width: 523
Flags: W
LayerCount: 2
Fore
SplineSet
407 484 m 0
 436 453 450 401 450 328 c 2
 450 0 l 1
 402 0 l 1
 402 85 l 1
 400 85 l 1
 382 56 355 33 319 16 c 0
 283 -1 244 -10 203 -10 c 0
 151 -10 110 4 78 32 c 0
 48 59 32 96 32 142 c 0
 32 202 59 248 114 280 c 0
 168 313 245 329 345 329 c 2
 401 329 l 1
 401 330 l 2
 401 369 396 400 388 423 c 0
 378 446 364 462 344 472 c 0
 323 482 295 487 260 487 c 0
 191 487 127 472 67 441 c 1
 52 480 l 1
 115 513 185 530 262 530 c 0
 330 530 378 515 407 484 c 0
308 56 m 0
 336 71 359 92 376 119 c 0
 393 146 401 175 401 208 c 2
 401 288 l 1
 345 288 l 2
 260 288 195 276 150 251 c 0
 104 226 81 191 81 145 c 0
 81 111 93 84 117 63 c 0
 141 42 173 32 212 32 c 0
 247 32 278 40 308 56 c 0
220 770 m 1
 304 770 l 1
 450 560 l 1
 391 560 l 1
 263 744 l 1
 261 744 l 1
 133 560 l 1
 74 560 l 1
 220 770 l 1
403 740 m 1
 351 740 l 1
 464 950 l 1
 525 950 l 1
 403 740 l 1
EndSplineSet
EndChar

StartChar: uni1EAD
Encoding: 7853 7853 211
Width: 523
Flags: W
LayerCount: 2
Fore
SplineSet
407 484 m 0
 436 453 450 401 450 328 c 2
 450 0 l 1
 402 0 l 1
 402 85 l 1
 400 85 l 1
 382 56 355 33 319 16 c 0
 283 -1 244 -10 203 -10 c 0
 151 -10 110 4 78 32 c 0
 48 59 32 96 32 142 c 0
 32 202 59 248 114 280 c 0
 168 313 245 329 345 329 c 2
 401 329 l 1
 401 330 l 2
 401 369 396 400 388 423 c 0
 378 446 364 462 344 472 c 0
 323 482 295 487 260 487 c 0
 191 487 127 472 67 441 c 1
 52 480 l 1
 115 513 185 530 262 530 c 0
 330 530 378 515 407 484 c 0
308 56 m 0
 336 71 359 92 376 119 c 0
 393 146 401 175 401 208 c 2
 401 288 l 1
 345 288 l 2
 260 288 195 276 150 251 c 0
 104 226 81 191 81 145 c 0
 81 111 93 84 117 63 c 0
 141 42 173 32 212 32 c 0
 247 32 278 40 308 56 c 0
221 -104 m 1
 303 -104 l 1
 303 -186 l 1
 221 -186 l 1
 221 -104 l 1
220 770 m 1
 304 770 l 1
 450 560 l 1
 391 560 l 1
 263 744 l 1
 261 744 l 1
 133 560 l 1
 74 560 l 1
 220 770 l 1
EndSplineSet
EndChar

StartChar: uni1EA7
Encoding: 7847 7847 212
Width: 523
Flags: W
LayerCount: 2
Fore
SplineSet
407 484 m 0
 436 453 450 401 450 328 c 2
 450 0 l 1
 402 0 l 1
 402 85 l 1
 400 85 l 1
 382 56 355 33 319 16 c 0
 283 -1 244 -10 203 -10 c 0
 151 -10 110 4 78 32 c 0
 48 59 32 96 32 142 c 0
 32 202 59 248 114 280 c 0
 168 313 245 329 345 329 c 2
 401 329 l 1
 401 330 l 2
 401 369 396 400 388 423 c 0
 378 446 364 462 344 472 c 0
 323 482 295 487 260 487 c 0
 191 487 127 472 67 441 c 1
 52 480 l 1
 115 513 185 530 262 530 c 0
 330 530 378 515 407 484 c 0
308 56 m 0
 336 71 359 92 376 119 c 0
 393 146 401 175 401 208 c 2
 401 288 l 1
 345 288 l 2
 260 288 195 276 150 251 c 0
 104 226 81 191 81 145 c 0
 81 111 93 84 117 63 c 0
 141 42 173 32 212 32 c 0
 247 32 278 40 308 56 c 0
220 770 m 1
 304 770 l 1
 450 560 l 1
 391 560 l 1
 263 744 l 1
 261 744 l 1
 133 560 l 1
 74 560 l 1
 220 770 l 1
-1 950 m 1
 61 950 l 1
 173 740 l 1
 122 740 l 1
 -1 950 l 1
EndSplineSet
EndChar

StartChar: uni1EA9
Encoding: 7849 7849 213
Width: 523
Flags: W
LayerCount: 2
Fore
SplineSet
407 484 m 0
 436 453 450 401 450 328 c 2
 450 0 l 1
 402 0 l 1
 402 85 l 1
 400 85 l 1
 382 56 355 33 319 16 c 0
 283 -1 244 -10 203 -10 c 0
 151 -10 110 4 78 32 c 0
 48 59 32 96 32 142 c 0
 32 202 59 248 114 280 c 0
 168 313 245 329 345 329 c 2
 401 329 l 1
 401 330 l 2
 401 369 396 400 388 423 c 0
 378 446 364 462 344 472 c 0
 323 482 295 487 260 487 c 0
 191 487 127 472 67 441 c 1
 52 480 l 1
 115 513 185 530 262 530 c 0
 330 530 378 515 407 484 c 0
308 56 m 0
 336 71 359 92 376 119 c 0
 393 146 401 175 401 208 c 2
 401 288 l 1
 345 288 l 2
 260 288 195 276 150 251 c 0
 104 226 81 191 81 145 c 0
 81 111 93 84 117 63 c 0
 141 42 173 32 212 32 c 0
 247 32 278 40 308 56 c 0
220 770 m 1
 304 770 l 1
 450 560 l 1
 391 560 l 1
 263 744 l 1
 261 744 l 1
 133 560 l 1
 74 560 l 1
 220 770 l 1
394 767 m 0
 397 783 399 797 399 808 c 0
 399 827 393 839 380 846 c 0
 367 853 343 856 307 856 c 0
 269 856 229 851 187 840 c 1
 180 881 l 1
 227 892 272 898 316 898 c 0
 367 898 402 892 422 882 c 0
 441 870 451 851 451 822 c 0
 451 809 449 793 446 775 c 0
 443 757 439 741 434 728 c 1
 383 728 l 1
 387 738 391 751 394 767 c 0
EndSplineSet
EndChar

StartChar: uni1EAB
Encoding: 7851 7851 214
Width: 523
Flags: W
LayerCount: 2
Fore
SplineSet
407 484 m 0
 436 453 450 401 450 328 c 2
 450 0 l 1
 402 0 l 1
 402 85 l 1
 400 85 l 1
 382 56 355 33 319 16 c 0
 283 -1 244 -10 203 -10 c 0
 151 -10 110 4 78 32 c 0
 48 59 32 96 32 142 c 0
 32 202 59 248 114 280 c 0
 168 313 245 329 345 329 c 2
 401 329 l 1
 401 330 l 2
 401 369 396 400 388 423 c 0
 378 446 364 462 344 472 c 0
 323 482 295 487 260 487 c 0
 191 487 127 472 67 441 c 1
 52 480 l 1
 115 513 185 530 262 530 c 0
 330 530 378 515 407 484 c 0
308 56 m 0
 336 71 359 92 376 119 c 0
 393 146 401 175 401 208 c 2
 401 288 l 1
 345 288 l 2
 260 288 195 276 150 251 c 0
 104 226 81 191 81 145 c 0
 81 111 93 84 117 63 c 0
 141 42 173 32 212 32 c 0
 247 32 278 40 308 56 c 0
220 770 m 1
 304 770 l 1
 450 560 l 1
 391 560 l 1
 263 744 l 1
 261 744 l 1
 133 560 l 1
 74 560 l 1
 220 770 l 1
302 792 m 0
 284 802 265 814 246 830 c 0
 217 856 191 869 169 869 c 0
 158 869 149 863 144 851 c 0
 139 839 136 818 136 789 c 1
 88 789 l 1
 88 874 115 917 169 917 c 0
 185 917 202 912 222 904 c 0
 240 894 259 882 278 866 c 0
 307 840 333 827 355 827 c 0
 366 827 375 833 380 845 c 0
 385 857 388 878 388 907 c 1
 436 907 l 1
 436 822 409 779 355 779 c 0
 339 779 322 784 302 792 c 0
EndSplineSet
EndChar

StartChar: uni0201
Encoding: 513 513 215
Width: 523
Flags: W
LayerCount: 2
Fore
SplineSet
407 484 m 0
 436 453 450 401 450 328 c 2
 450 0 l 1
 402 0 l 1
 402 85 l 1
 400 85 l 1
 382 56 355 33 319 16 c 0
 283 -1 244 -10 203 -10 c 0
 151 -10 110 4 78 32 c 0
 48 59 32 96 32 142 c 0
 32 202 59 248 114 280 c 0
 168 313 245 329 345 329 c 2
 401 329 l 1
 401 330 l 2
 401 369 396 400 388 423 c 0
 378 446 364 462 344 472 c 0
 323 482 295 487 260 487 c 0
 191 487 127 472 67 441 c 1
 52 480 l 1
 115 513 185 530 262 530 c 0
 330 530 378 515 407 484 c 0
308 56 m 0
 336 71 359 92 376 119 c 0
 393 146 401 175 401 208 c 2
 401 288 l 1
 345 288 l 2
 260 288 195 276 150 251 c 0
 104 226 81 191 81 145 c 0
 81 111 93 84 117 63 c 0
 141 42 173 32 212 32 c 0
 247 32 278 40 308 56 c 0
66 770 m 1
 128 770 l 1
 240 560 l 1
 189 560 l 1
 66 770 l 1
261 770 m 1
 323 770 l 1
 435 560 l 1
 384 560 l 1
 261 770 l 1
EndSplineSet
EndChar

StartChar: adieresis
Encoding: 228 228 216
Width: 523
Flags: W
LayerCount: 2
Fore
SplineSet
407 484 m 0
 436 453 450 401 450 328 c 2
 450 0 l 1
 402 0 l 1
 402 85 l 1
 400 85 l 1
 382 56 355 33 319 16 c 0
 283 -1 244 -10 203 -10 c 0
 151 -10 110 4 78 32 c 0
 48 59 32 96 32 142 c 0
 32 202 59 248 114 280 c 0
 168 313 245 329 345 329 c 2
 401 329 l 1
 401 330 l 2
 401 369 396 400 388 423 c 0
 378 446 364 462 344 472 c 0
 323 482 295 487 260 487 c 0
 191 487 127 472 67 441 c 1
 52 480 l 1
 115 513 185 530 262 530 c 0
 330 530 378 515 407 484 c 0
308 56 m 0
 336 71 359 92 376 119 c 0
 393 146 401 175 401 208 c 2
 401 288 l 1
 345 288 l 2
 260 288 195 276 150 251 c 0
 104 226 81 191 81 145 c 0
 81 111 93 84 117 63 c 0
 141 42 173 32 212 32 c 0
 247 32 278 40 308 56 c 0
99 706 m 1
 181 706 l 1
 181 624 l 1
 99 624 l 1
 99 706 l 1
344 706 m 1
 425 706 l 1
 425 624 l 1
 344 624 l 1
 344 706 l 1
EndSplineSet
EndChar

StartChar: uni1EA1
Encoding: 7841 7841 217
Width: 523
Flags: W
LayerCount: 2
Fore
SplineSet
407 484 m 0
 436 453 450 401 450 328 c 2
 450 0 l 1
 402 0 l 1
 402 85 l 1
 400 85 l 1
 382 56 355 33 319 16 c 0
 283 -1 244 -10 203 -10 c 0
 151 -10 110 4 78 32 c 0
 48 59 32 96 32 142 c 0
 32 202 59 248 114 280 c 0
 168 313 245 329 345 329 c 2
 401 329 l 1
 401 330 l 2
 401 369 396 400 388 423 c 0
 378 446 364 462 344 472 c 0
 323 482 295 487 260 487 c 0
 191 487 127 472 67 441 c 1
 52 480 l 1
 115 513 185 530 262 530 c 0
 330 530 378 515 407 484 c 0
308 56 m 0
 336 71 359 92 376 119 c 0
 393 146 401 175 401 208 c 2
 401 288 l 1
 345 288 l 2
 260 288 195 276 150 251 c 0
 104 226 81 191 81 145 c 0
 81 111 93 84 117 63 c 0
 141 42 173 32 212 32 c 0
 247 32 278 40 308 56 c 0
221 -104 m 1
 303 -104 l 1
 303 -186 l 1
 221 -186 l 1
 221 -104 l 1
EndSplineSet
EndChar

StartChar: agrave
Encoding: 224 224 218
Width: 523
Flags: W
LayerCount: 2
Fore
SplineSet
407 484 m 0
 436 453 450 401 450 328 c 2
 450 0 l 1
 402 0 l 1
 402 85 l 1
 400 85 l 1
 382 56 355 33 319 16 c 0
 283 -1 244 -10 203 -10 c 0
 151 -10 110 4 78 32 c 0
 48 59 32 96 32 142 c 0
 32 202 59 248 114 280 c 0
 168 313 245 329 345 329 c 2
 401 329 l 1
 401 330 l 2
 401 369 396 400 388 423 c 0
 378 446 364 462 344 472 c 0
 323 482 295 487 260 487 c 0
 191 487 127 472 67 441 c 1
 52 480 l 1
 115 513 185 530 262 530 c 0
 330 530 378 515 407 484 c 0
308 56 m 0
 336 71 359 92 376 119 c 0
 393 146 401 175 401 208 c 2
 401 288 l 1
 345 288 l 2
 260 288 195 276 150 251 c 0
 104 226 81 191 81 145 c 0
 81 111 93 84 117 63 c 0
 141 42 173 32 212 32 c 0
 247 32 278 40 308 56 c 0
169 770 m 1
 231 770 l 1
 343 560 l 1
 292 560 l 1
 169 770 l 1
EndSplineSet
EndChar

StartChar: uni1EA3
Encoding: 7843 7843 219
Width: 523
Flags: W
LayerCount: 2
Fore
SplineSet
407 484 m 0
 436 453 450 401 450 328 c 2
 450 0 l 1
 402 0 l 1
 402 85 l 1
 400 85 l 1
 382 56 355 33 319 16 c 0
 283 -1 244 -10 203 -10 c 0
 151 -10 110 4 78 32 c 0
 48 59 32 96 32 142 c 0
 32 202 59 248 114 280 c 0
 168 313 245 329 345 329 c 2
 401 329 l 1
 401 330 l 2
 401 369 396 400 388 423 c 0
 378 446 364 462 344 472 c 0
 323 482 295 487 260 487 c 0
 191 487 127 472 67 441 c 1
 52 480 l 1
 115 513 185 530 262 530 c 0
 330 530 378 515 407 484 c 0
308 56 m 0
 336 71 359 92 376 119 c 0
 393 146 401 175 401 208 c 2
 401 288 l 1
 345 288 l 2
 260 288 195 276 150 251 c 0
 104 226 81 191 81 145 c 0
 81 111 93 84 117 63 c 0
 141 42 173 32 212 32 c 0
 247 32 278 40 308 56 c 0
340 637 m 0
 343 653 345 667 345 678 c 0
 345 697 339 709 326 716 c 0
 313 723 289 726 253 726 c 0
 215 726 175 721 133 710 c 1
 126 751 l 1
 173 762 218 768 262 768 c 0
 313 768 348 762 368 752 c 0
 387 740 397 721 397 692 c 0
 397 679 395 663 392 645 c 0
 389 627 385 611 380 598 c 1
 329 598 l 1
 333 608 337 621 340 637 c 0
EndSplineSet
EndChar

StartChar: uni0203
Encoding: 515 515 220
Width: 523
Flags: W
LayerCount: 2
Fore
SplineSet
407 484 m 0
 436 453 450 401 450 328 c 2
 450 0 l 1
 402 0 l 1
 402 85 l 1
 400 85 l 1
 382 56 355 33 319 16 c 0
 283 -1 244 -10 203 -10 c 0
 151 -10 110 4 78 32 c 0
 48 59 32 96 32 142 c 0
 32 202 59 248 114 280 c 0
 168 313 245 329 345 329 c 2
 401 329 l 1
 401 330 l 2
 401 369 396 400 388 423 c 0
 378 446 364 462 344 472 c 0
 323 482 295 487 260 487 c 0
 191 487 127 472 67 441 c 1
 52 480 l 1
 115 513 185 530 262 530 c 0
 330 530 378 515 407 484 c 0
308 56 m 0
 336 71 359 92 376 119 c 0
 393 146 401 175 401 208 c 2
 401 288 l 1
 345 288 l 2
 260 288 195 276 150 251 c 0
 104 226 81 191 81 145 c 0
 81 111 93 84 117 63 c 0
 141 42 173 32 212 32 c 0
 247 32 278 40 308 56 c 0
380 704 m 0
 412 680 431 647 436 606 c 1
 384 606 l 1
 379 635 365 658 344 675 c 0
 322 692 295 700 262 700 c 0
 229 700 202 692 180 675 c 0
 159 658 145 635 140 606 c 1
 88 606 l 1
 93 647 112 680 144 704 c 0
 176 730 215 742 262 742 c 0
 309 742 348 730 380 704 c 0
EndSplineSet
EndChar

StartChar: amacron
Encoding: 257 257 221
Width: 523
Flags: W
LayerCount: 2
Fore
SplineSet
407 484 m 0
 436 453 450 401 450 328 c 2
 450 0 l 1
 402 0 l 1
 402 85 l 1
 400 85 l 1
 382 56 355 33 319 16 c 0
 283 -1 244 -10 203 -10 c 0
 151 -10 110 4 78 32 c 0
 48 59 32 96 32 142 c 0
 32 202 59 248 114 280 c 0
 168 313 245 329 345 329 c 2
 401 329 l 1
 401 330 l 2
 401 369 396 400 388 423 c 0
 378 446 364 462 344 472 c 0
 323 482 295 487 260 487 c 0
 191 487 127 472 67 441 c 1
 52 480 l 1
 115 513 185 530 262 530 c 0
 330 530 378 515 407 484 c 0
308 56 m 0
 336 71 359 92 376 119 c 0
 393 146 401 175 401 208 c 2
 401 288 l 1
 345 288 l 2
 260 288 195 276 150 251 c 0
 104 226 81 191 81 145 c 0
 81 111 93 84 117 63 c 0
 141 42 173 32 212 32 c 0
 247 32 278 40 308 56 c 0
88 686 m 1
 437 686 l 1
 437 644 l 1
 88 644 l 1
 88 686 l 1
EndSplineSet
EndChar

StartChar: aogonek
Encoding: 261 261 222
Width: 523
Flags: W
LayerCount: 2
Fore
SplineSet
537 -198 m 1
 505 -212 470 -219 432 -219 c 0
 383 -219 347 -210 326 -192 c 0
 304 -175 293 -153 293 -127 c 0
 293 -102 302 -78 322 -54 c 0
 340 -29 367 -6 402 15 c 1
 402 85 l 1
 400 85 l 1
 382 56 355 33 319 16 c 0
 283 -1 244 -10 203 -10 c 0
 151 -10 110 4 78 32 c 0
 48 59 32 96 32 142 c 0
 32 202 59 248 114 280 c 0
 168 313 245 329 345 329 c 2
 401 329 l 1
 401 330 l 2
 401 369 396 400 388 423 c 0
 378 446 364 462 344 472 c 0
 323 482 295 487 260 487 c 0
 191 487 127 472 67 441 c 1
 52 480 l 1
 115 513 185 530 262 530 c 0
 330 530 378 515 407 484 c 0
 436 453 450 401 450 328 c 2
 450 0 l 1
 415 -19 388 -40 368 -60 c 0
 350 -82 340 -102 340 -121 c 0
 340 -141 349 -155 367 -164 c 0
 385 -173 408 -177 435 -177 c 0
 468 -177 499 -171 526 -158 c 1
 537 -198 l 1
308 56 m 0
 336 71 359 92 376 119 c 0
 393 146 401 175 401 208 c 2
 401 288 l 1
 345 288 l 2
 260 288 195 276 150 251 c 0
 104 226 81 191 81 145 c 0
 81 111 93 84 117 63 c 0
 141 42 173 32 212 32 c 0
 247 32 278 40 308 56 c 0
EndSplineSet
EndChar

StartChar: aring
Encoding: 229 229 223
Width: 523
Flags: W
LayerCount: 2
Fore
SplineSet
416 473 m 0
 438 442 450 393 450 328 c 2
 450 0 l 1
 402 0 l 1
 402 85 l 1
 400 85 l 1
 382 56 355 33 319 16 c 0
 283 -1 244 -10 203 -10 c 0
 151 -10 110 4 78 32 c 0
 48 59 32 96 32 142 c 0
 32 202 59 248 114 280 c 0
 168 313 245 329 345 329 c 2
 401 329 l 1
 401 330 l 2
 401 369 396 400 388 423 c 0
 378 446 364 462 344 472 c 0
 323 482 295 487 260 487 c 0
 191 487 127 472 67 441 c 1
 52 480 l 1
 104 507 160 523 221 528 c 1
 194 537 172 553 155 576 c 0
 138 599 129 626 129 655 c 0
 129 679 135 701 147 722 c 0
 159 742 175 758 196 770 c 0
 216 782 238 788 262 788 c 0
 287 788 309 782 330 770 c 0
 350 758 366 742 378 722 c 0
 390 701 396 679 396 655 c 0
 396 626 387 599 370 576 c 0
 353 553 330 537 303 528 c 1
 355 523 392 504 416 473 c 0
196 589 m 0
 215 571 237 562 262 562 c 0
 288 562 310 571 328 589 c 0
 347 607 356 629 356 655 c 0
 356 681 347 703 328 721 c 0
 310 739 288 748 262 748 c 0
 237 748 215 739 196 721 c 0
 178 703 169 681 169 655 c 0
 169 629 178 607 196 589 c 0
308 56 m 0
 336 71 359 92 376 119 c 0
 393 146 401 175 401 208 c 2
 401 288 l 1
 345 288 l 2
 260 288 195 276 150 251 c 0
 104 226 81 191 81 145 c 0
 81 111 93 84 117 63 c 0
 141 42 173 32 212 32 c 0
 247 32 278 40 308 56 c 0
EndSplineSet
EndChar

StartChar: aringacute
Encoding: 507 507 224
Width: 523
Flags: W
LayerCount: 2
Fore
SplineSet
416 473 m 0
 438 442 450 393 450 328 c 2
 450 0 l 1
 402 0 l 1
 402 85 l 1
 400 85 l 1
 382 56 355 33 319 16 c 0
 283 -1 244 -10 203 -10 c 0
 151 -10 110 4 78 32 c 0
 48 59 32 96 32 142 c 0
 32 202 59 248 114 280 c 0
 168 313 245 329 345 329 c 2
 401 329 l 1
 401 330 l 2
 401 369 396 400 388 423 c 0
 378 446 364 462 344 472 c 0
 323 482 295 487 260 487 c 0
 191 487 127 472 67 441 c 1
 52 480 l 1
 104 507 160 523 221 528 c 1
 194 537 172 553 155 576 c 0
 138 599 129 626 129 655 c 0
 129 676 134 696 144 715 c 0
 153 734 166 749 183 762 c 1
 293 967 l 1
 354 967 l 1
 250 787 l 1
 253 788 257 788 262 788 c 0
 287 788 309 782 330 770 c 0
 350 758 366 742 378 722 c 0
 390 701 396 679 396 655 c 0
 396 626 387 599 370 576 c 0
 353 553 330 537 303 528 c 1
 355 523 392 504 416 473 c 0
196 589 m 0
 215 571 237 562 262 562 c 0
 288 562 310 571 328 589 c 0
 347 607 356 629 356 655 c 0
 356 681 347 703 328 721 c 0
 310 739 288 748 262 748 c 0
 237 748 215 739 196 721 c 0
 178 703 169 681 169 655 c 0
 169 629 178 607 196 589 c 0
308 56 m 0
 336 71 359 92 376 119 c 0
 393 146 401 175 401 208 c 2
 401 288 l 1
 345 288 l 2
 260 288 195 276 150 251 c 0
 104 226 81 191 81 145 c 0
 81 111 93 84 117 63 c 0
 141 42 173 32 212 32 c 0
 247 32 278 40 308 56 c 0
EndSplineSet
EndChar

StartChar: atilde
Encoding: 227 227 225
Width: 523
Flags: W
LayerCount: 2
Fore
SplineSet
407 484 m 0
 436 453 450 401 450 328 c 2
 450 0 l 1
 402 0 l 1
 402 85 l 1
 400 85 l 1
 382 56 355 33 319 16 c 0
 283 -1 244 -10 203 -10 c 0
 151 -10 110 4 78 32 c 0
 48 59 32 96 32 142 c 0
 32 202 59 248 114 280 c 0
 168 313 245 329 345 329 c 2
 401 329 l 1
 401 330 l 2
 401 369 396 400 388 423 c 0
 378 446 364 462 344 472 c 0
 323 482 295 487 260 487 c 0
 191 487 127 472 67 441 c 1
 52 480 l 1
 115 513 185 530 262 530 c 0
 330 530 378 515 407 484 c 0
308 56 m 0
 336 71 359 92 376 119 c 0
 393 146 401 175 401 208 c 2
 401 288 l 1
 345 288 l 2
 260 288 195 276 150 251 c 0
 104 226 81 191 81 145 c 0
 81 111 93 84 117 63 c 0
 141 42 173 32 212 32 c 0
 247 32 278 40 308 56 c 0
302 610 m 0
 284 618 265 631 246 647 c 0
 217 673 191 686 169 686 c 0
 158 686 149 680 144 668 c 0
 139 656 136 635 136 606 c 1
 88 606 l 1
 88 691 115 734 169 734 c 0
 185 734 202 730 222 720 c 0
 240 712 259 699 278 683 c 0
 307 657 333 644 355 644 c 0
 366 644 375 650 380 662 c 0
 385 674 388 695 388 724 c 1
 436 724 l 1
 436 639 409 596 355 596 c 0
 339 596 322 600 302 610 c 0
EndSplineSet
EndChar

StartChar: ae
Encoding: 230 230 226
Width: 894
Flags: W
LayerCount: 2
Fore
SplineSet
855 244 m 1
 449 244 l 1
 450 175 468 123 503 87 c 0
 538 51 587 33 650 33 c 0
 679 33 708 36 737 44 c 0
 766 50 793 60 816 73 c 1
 831 35 l 1
 805 20 776 9 744 2 c 0
 713 -6 681 -10 648 -10 c 0
 594 -10 548 1 512 22 c 0
 474 44 447 76 428 118 c 1
 409 78 381 47 344 24 c 0
 306 1 262 -10 211 -10 c 0
 156 -10 113 4 80 31 c 0
 48 58 32 95 32 142 c 0
 32 202 59 248 114 280 c 0
 168 313 245 329 345 329 c 2
 401 329 l 1
 401 330 l 2
 401 369 396 400 388 423 c 0
 378 446 364 462 344 472 c 0
 323 482 295 487 260 487 c 0
 193 487 128 472 67 441 c 1
 52 480 l 1
 117 513 187 530 262 530 c 0
 312 530 351 522 379 506 c 0
 407 489 426 463 437 426 c 1
 456 460 482 486 515 504 c 0
 548 521 586 530 630 530 c 0
 702 530 758 507 797 460 c 0
 836 413 856 347 856 260 c 1
 855 244 l 1
500 436 m 0
 469 402 452 352 449 285 c 1
 809 285 l 1
 806 352 790 402 759 436 c 0
 728 471 685 488 630 488 c 0
 574 488 531 471 500 436 c 0
401 288 m 1
 345 288 l 2
 260 288 195 276 150 251 c 0
 104 226 81 191 81 145 c 0
 81 111 93 84 117 63 c 0
 141 42 173 32 212 32 c 0
 247 32 278 40 308 56 c 0
 336 71 359 92 376 119 c 0
 393 146 401 175 401 208 c 2
 401 288 l 1
EndSplineSet
EndChar

StartChar: aeacute
Encoding: 509 509 227
Width: 894
Flags: W
LayerCount: 2
Fore
SplineSet
855 244 m 1
 449 244 l 1
 450 175 468 123 503 87 c 0
 538 51 587 33 650 33 c 0
 679 33 708 36 737 44 c 0
 766 50 793 60 816 73 c 1
 831 35 l 1
 805 20 776 9 744 2 c 0
 713 -6 681 -10 648 -10 c 0
 594 -10 548 1 512 22 c 0
 474 44 447 76 428 118 c 1
 409 78 381 47 344 24 c 0
 306 1 262 -10 211 -10 c 0
 156 -10 113 4 80 31 c 0
 48 58 32 95 32 142 c 0
 32 202 59 248 114 280 c 0
 168 313 245 329 345 329 c 2
 401 329 l 1
 401 330 l 2
 401 369 396 400 388 423 c 0
 378 446 364 462 344 472 c 0
 323 482 295 487 260 487 c 0
 193 487 128 472 67 441 c 1
 52 480 l 1
 117 513 187 530 262 530 c 0
 312 530 351 522 379 506 c 0
 407 489 426 463 437 426 c 1
 456 460 482 486 515 504 c 0
 548 521 586 530 630 530 c 0
 702 530 758 507 797 460 c 0
 836 413 856 347 856 260 c 1
 855 244 l 1
500 436 m 0
 469 402 452 352 449 285 c 1
 809 285 l 1
 806 352 790 402 759 436 c 0
 728 471 685 488 630 488 c 0
 574 488 531 471 500 436 c 0
401 288 m 1
 345 288 l 2
 260 288 195 276 150 251 c 0
 104 226 81 191 81 145 c 0
 81 111 93 84 117 63 c 0
 141 42 173 32 212 32 c 0
 247 32 278 40 308 56 c 0
 336 71 359 92 376 119 c 0
 393 146 401 175 401 208 c 2
 401 288 l 1
418 560 m 1
 366 560 l 1
 479 770 l 1
 540 770 l 1
 418 560 l 1
EndSplineSet
EndChar

StartChar: b
Encoding: 98 98 228
Width: 567
Flags: W
LayerCount: 2
Fore
SplineSet
467 458 m 0
 504 411 522 345 522 260 c 0
 522 175 504 109 467 62 c 0
 430 14 379 -10 314 -10 c 0
 274 -10 238 -1 205 16 c 0
 172 34 147 58 130 89 c 1
 128 89 l 1
 128 0 l 1
 81 0 l 1
 81 750 l 1
 130 750 l 1
 130 431 l 1
 132 431 l 1
 149 462 173 486 206 504 c 0
 238 521 274 530 314 530 c 0
 379 530 430 506 467 458 c 0
428 94 m 0
 457 134 472 189 472 260 c 0
 472 331 457 386 428 426 c 0
 398 467 357 487 304 487 c 0
 270 487 240 478 214 462 c 0
 187 444 167 421 152 390 c 0
 137 359 130 324 130 284 c 2
 130 236 l 2
 130 196 137 161 152 130 c 0
 167 99 187 76 214 58 c 0
 240 42 270 33 304 33 c 0
 357 33 398 53 428 94 c 0
EndSplineSet
EndChar

StartChar: c
Encoding: 99 99 229
Width: 517
Flags: W
LayerCount: 2
Fore
SplineSet
110 62 m 0
 64 110 41 176 41 260 c 0
 41 344 64 410 110 458 c 0
 155 506 218 530 298 530 c 0
 351 530 400 518 446 494 c 1
 429 455 l 1
 387 476 344 487 299 487 c 0
 234 487 182 467 146 427 c 0
 108 387 90 331 90 260 c 0
 90 189 108 133 146 93 c 0
 182 53 234 33 299 33 c 0
 344 33 387 44 429 65 c 1
 446 26 l 1
 400 2 351 -10 298 -10 c 0
 218 -10 155 14 110 62 c 0
EndSplineSet
EndChar

StartChar: cacute
Encoding: 263 263 230
Width: 517
Flags: W
LayerCount: 2
Fore
SplineSet
110 62 m 0
 64 110 41 176 41 260 c 0
 41 344 64 410 110 458 c 0
 155 506 218 530 298 530 c 0
 351 530 400 518 446 494 c 1
 429 455 l 1
 387 476 344 487 299 487 c 0
 234 487 182 467 146 427 c 0
 108 387 90 331 90 260 c 0
 90 189 108 133 146 93 c 0
 182 53 234 33 299 33 c 0
 344 33 387 44 429 65 c 1
 446 26 l 1
 400 2 351 -10 298 -10 c 0
 218 -10 155 14 110 62 c 0
240 560 m 1
 188 560 l 1
 301 770 l 1
 362 770 l 1
 240 560 l 1
EndSplineSet
EndChar

StartChar: ccaron
Encoding: 269 269 231
Width: 517
Flags: W
LayerCount: 2
Fore
SplineSet
110 62 m 0
 64 110 41 176 41 260 c 0
 41 344 64 410 110 458 c 0
 155 506 218 530 298 530 c 0
 351 530 400 518 446 494 c 1
 429 455 l 1
 387 476 344 487 299 487 c 0
 234 487 182 467 146 427 c 0
 108 387 90 331 90 260 c 0
 90 189 108 133 146 93 c 0
 182 53 234 33 299 33 c 0
 344 33 387 44 429 65 c 1
 446 26 l 1
 400 2 351 -10 298 -10 c 0
 218 -10 155 14 110 62 c 0
82 770 m 1
 141 770 l 1
 269 586 l 1
 271 586 l 1
 399 770 l 1
 458 770 l 1
 312 560 l 1
 228 560 l 1
 82 770 l 1
EndSplineSet
EndChar

StartChar: ccedilla
Encoding: 231 231 232
Width: 517
Flags: W
LayerCount: 2
Fore
SplineSet
446 26 m 1
 407 6 366 -6 323 -9 c 1
 374 -48 399 -88 399 -128 c 0
 399 -154 388 -176 366 -194 c 0
 345 -211 309 -220 260 -220 c 0
 221 -220 186 -213 154 -199 c 1
 165 -159 l 1
 194 -172 224 -178 257 -178 c 0
 284 -178 307 -174 324 -165 c 0
 342 -156 351 -142 351 -122 c 0
 351 -103 342 -84 326 -64 c 0
 308 -45 284 -26 253 -7 c 1
 186 2 134 30 97 77 c 0
 60 124 41 185 41 260 c 0
 41 344 64 410 110 458 c 0
 155 506 218 530 298 530 c 0
 351 530 400 518 446 494 c 1
 429 455 l 1
 387 476 344 487 299 487 c 0
 234 487 182 467 146 427 c 0
 108 387 90 331 90 260 c 0
 90 189 108 133 146 93 c 0
 182 53 234 33 299 33 c 0
 344 33 387 44 429 65 c 1
 446 26 l 1
EndSplineSet
EndChar

StartChar: ccircumflex
Encoding: 265 265 233
Width: 517
Flags: W
LayerCount: 2
Fore
SplineSet
110 62 m 0
 64 110 41 176 41 260 c 0
 41 344 64 410 110 458 c 0
 155 506 218 530 298 530 c 0
 351 530 400 518 446 494 c 1
 429 455 l 1
 387 476 344 487 299 487 c 0
 234 487 182 467 146 427 c 0
 108 387 90 331 90 260 c 0
 90 189 108 133 146 93 c 0
 182 53 234 33 299 33 c 0
 344 33 387 44 429 65 c 1
 446 26 l 1
 400 2 351 -10 298 -10 c 0
 218 -10 155 14 110 62 c 0
228 770 m 1
 312 770 l 1
 458 560 l 1
 399 560 l 1
 271 744 l 1
 269 744 l 1
 141 560 l 1
 82 560 l 1
 228 770 l 1
EndSplineSet
EndChar

StartChar: cdotaccent
Encoding: 267 267 234
Width: 517
Flags: W
LayerCount: 2
Fore
SplineSet
110 62 m 0
 64 110 41 176 41 260 c 0
 41 344 64 410 110 458 c 0
 155 506 218 530 298 530 c 0
 351 530 400 518 446 494 c 1
 429 455 l 1
 387 476 344 487 299 487 c 0
 234 487 182 467 146 427 c 0
 108 387 90 331 90 260 c 0
 90 189 108 133 146 93 c 0
 182 53 234 33 299 33 c 0
 344 33 387 44 429 65 c 1
 446 26 l 1
 400 2 351 -10 298 -10 c 0
 218 -10 155 14 110 62 c 0
229 706 m 1
 311 706 l 1
 311 624 l 1
 229 624 l 1
 229 706 l 1
EndSplineSet
EndChar

StartChar: d
Encoding: 100 100 235
Width: 567
Flags: W
LayerCount: 2
Fore
SplineSet
486 750 m 1
 486 0 l 1
 439 0 l 1
 439 89 l 1
 437 89 l 1
 420 58 395 34 362 16 c 0
 329 -1 293 -10 253 -10 c 0
 188 -10 137 14 100 62 c 0
 63 109 45 175 45 260 c 0
 45 345 63 411 100 458 c 0
 137 506 188 530 253 530 c 0
 293 530 329 521 362 504 c 0
 394 486 418 462 435 431 c 1
 437 431 l 1
 437 750 l 1
 486 750 l 1
354 58 m 0
 380 76 400 99 415 130 c 0
 430 161 437 196 437 236 c 2
 437 284 l 2
 437 324 430 359 415 390 c 0
 400 421 380 444 354 462 c 0
 327 478 297 487 263 487 c 0
 210 487 169 467 140 426 c 0
 110 386 95 331 95 260 c 0
 95 189 110 134 140 94 c 0
 169 53 210 33 263 33 c 0
 297 33 327 42 354 58 c 0
EndSplineSet
EndChar

StartChar: eth
Encoding: 240 240 236
Width: 572
Flags: W
LayerCount: 2
Fore
SplineSet
388 622 m 1
 429 568 462 508 487 440 c 0
 512 374 524 308 524 244 c 0
 524 165 503 102 460 58 c 0
 417 12 358 -10 282 -10 c 0
 207 -10 148 12 106 56 c 0
 62 100 41 161 41 238 c 0
 41 313 62 372 104 415 c 0
 146 458 204 480 277 480 c 0
 347 480 402 461 443 422 c 1
 445 423 l 1
 422 489 388 550 344 605 c 1
 108 511 l 1
 91 551 l 1
 314 640 l 1
 288 668 260 692 232 710 c 0
 202 730 174 742 145 749 c 1
 160 790 l 1
 195 781 230 766 264 742 c 0
 298 720 330 691 359 658 c 1
 531 726 l 1
 548 686 l 1
 388 622 l 1
424 88 m 0
 458 124 475 174 475 238 c 0
 475 301 458 350 424 384 c 0
 391 420 343 437 282 437 c 0
 221 437 174 420 140 385 c 0
 107 350 90 301 90 238 c 0
 90 174 107 124 141 88 c 0
 175 51 222 33 282 33 c 0
 343 33 390 51 424 88 c 0
EndSplineSet
EndChar

StartChar: dcaron
Encoding: 271 271 237
Width: 743
Flags: W
LayerCount: 2
Fore
SplineSet
486 750 m 1
 486 0 l 1
 439 0 l 1
 439 89 l 1
 437 89 l 1
 420 58 395 34 362 16 c 0
 329 -1 293 -10 253 -10 c 0
 188 -10 137 14 100 62 c 0
 63 109 45 175 45 260 c 0
 45 345 63 411 100 458 c 0
 137 506 188 530 253 530 c 0
 293 530 329 521 362 504 c 0
 394 486 418 462 435 431 c 1
 437 431 l 1
 437 750 l 1
 486 750 l 1
354 58 m 0
 380 76 400 99 415 130 c 0
 430 161 437 196 437 236 c 2
 437 284 l 2
 437 324 430 359 415 390 c 0
 400 421 380 444 354 462 c 0
 327 478 297 487 263 487 c 0
 210 487 169 467 140 426 c 0
 110 386 95 331 95 260 c 0
 95 189 110 134 140 94 c 0
 169 53 210 33 263 33 c 0
 297 33 327 42 354 58 c 0
633 770 m 1
 691 770 l 1
 580 470 l 1
 532 470 l 1
 633 770 l 1
EndSplineSet
EndChar

StartChar: dcroat
Encoding: 273 273 238
Width: 632
Flags: W
LayerCount: 2
Fore
SplineSet
602 603 m 1
 486 603 l 1
 486 0 l 1
 439 0 l 1
 439 89 l 1
 437 89 l 1
 420 58 395 34 362 16 c 0
 329 -1 293 -10 253 -10 c 0
 188 -10 137 14 100 62 c 0
 63 109 45 175 45 260 c 0
 45 345 63 411 100 458 c 0
 137 506 188 530 253 530 c 0
 293 530 329 521 362 504 c 0
 394 486 418 462 435 431 c 1
 437 431 l 1
 437 603 l 1
 182 603 l 1
 182 647 l 1
 437 647 l 1
 437 750 l 1
 486 750 l 1
 486 647 l 1
 602 647 l 1
 602 603 l 1
354 58 m 0
 380 76 400 99 415 130 c 0
 430 161 437 196 437 236 c 2
 437 284 l 2
 437 324 430 359 415 390 c 0
 400 421 380 444 354 462 c 0
 327 478 297 487 263 487 c 0
 210 487 169 467 140 426 c 0
 110 386 95 331 95 260 c 0
 95 189 110 134 140 94 c 0
 169 53 210 33 263 33 c 0
 297 33 327 42 354 58 c 0
EndSplineSet
EndChar

StartChar: uni01C6
Encoding: 454 454 239
Width: 1057
Flags: W
LayerCount: 2
Fore
SplineSet
486 750 m 1
 486 0 l 1
 439 0 l 1
 439 89 l 1
 437 89 l 1
 420 58 395 34 362 16 c 0
 329 -1 293 -10 253 -10 c 0
 188 -10 137 14 100 62 c 0
 63 109 45 175 45 260 c 0
 45 345 63 411 100 458 c 0
 137 506 188 530 253 530 c 0
 293 530 329 521 362 504 c 0
 394 486 418 462 435 431 c 1
 437 431 l 1
 437 750 l 1
 486 750 l 1
354 58 m 0
 380 76 400 99 415 130 c 0
 430 161 437 196 437 236 c 2
 437 284 l 2
 437 324 430 359 415 390 c 0
 400 421 380 444 354 462 c 0
 327 478 297 487 263 487 c 0
 210 487 169 467 140 426 c 0
 110 386 95 331 95 260 c 0
 95 189 110 134 140 94 c 0
 169 53 210 33 263 33 c 0
 297 33 327 42 354 58 c 0
619 43 m 1
 943 475 l 1
 943 477 l 1
 619 477 l 1
 619 520 l 1
 1005 520 l 1
 1005 477 l 1
 681 45 l 1
 681 43 l 1
 1005 43 l 1
 1005 0 l 1
 619 0 l 1
 619 43 l 1
625 770 m 1
 684 770 l 1
 812 586 l 1
 814 586 l 1
 942 770 l 1
 1001 770 l 1
 855 560 l 1
 771 560 l 1
 625 770 l 1
EndSplineSet
EndChar

StartChar: e
Encoding: 101 101 240
Width: 535
Flags: W
LayerCount: 2
Fore
SplineSet
495 244 m 2
 89 244 l 1
 90 175 109 123 144 87 c 0
 180 51 231 33 298 33 c 0
 355 33 408 45 458 68 c 1
 472 28 l 1
 446 16 418 7 387 0 c 0
 356 -7 326 -10 296 -10 c 0
 214 -10 151 13 107 60 c 0
 63 107 41 173 41 260 c 0
 41 346 61 412 101 460 c 0
 141 506 197 530 270 530 c 0
 343 530 398 507 438 460 c 0
 476 413 496 347 496 260 c 0
 496 252 496 247 495 244 c 2
140 436 m 0
 109 402 92 352 89 285 c 1
 449 285 l 1
 446 352 430 402 399 436 c 0
 368 471 325 488 270 488 c 0
 214 488 171 471 140 436 c 0
EndSplineSet
EndChar

StartChar: eacute
Encoding: 233 233 241
Width: 535
Flags: W
LayerCount: 2
Fore
SplineSet
495 244 m 2
 89 244 l 1
 90 175 109 123 144 87 c 0
 180 51 231 33 298 33 c 0
 355 33 408 45 458 68 c 1
 472 28 l 1
 446 16 418 7 387 0 c 0
 356 -7 326 -10 296 -10 c 0
 214 -10 151 13 107 60 c 0
 63 107 41 173 41 260 c 0
 41 346 61 412 101 460 c 0
 141 506 197 530 270 530 c 0
 343 530 398 507 438 460 c 0
 476 413 496 347 496 260 c 0
 496 252 496 247 495 244 c 2
140 436 m 0
 109 402 92 352 89 285 c 1
 449 285 l 1
 446 352 430 402 399 436 c 0
 368 471 325 488 270 488 c 0
 214 488 171 471 140 436 c 0
240 560 m 1
 188 560 l 1
 301 770 l 1
 362 770 l 1
 240 560 l 1
EndSplineSet
EndChar

StartChar: ebreve
Encoding: 277 277 242
Width: 535
Flags: W
LayerCount: 2
Fore
SplineSet
495 244 m 2
 89 244 l 1
 90 175 109 123 144 87 c 0
 180 51 231 33 298 33 c 0
 355 33 408 45 458 68 c 1
 472 28 l 1
 446 16 418 7 387 0 c 0
 356 -7 326 -10 296 -10 c 0
 214 -10 151 13 107 60 c 0
 63 107 41 173 41 260 c 0
 41 346 61 412 101 460 c 0
 141 506 197 530 270 530 c 0
 343 530 398 507 438 460 c 0
 476 413 496 347 496 260 c 0
 496 252 496 247 495 244 c 2
140 436 m 0
 109 402 92 352 89 285 c 1
 449 285 l 1
 446 352 430 402 399 436 c 0
 368 471 325 488 270 488 c 0
 214 488 171 471 140 436 c 0
152 626 m 0
 120 650 101 683 96 724 c 1
 148 724 l 1
 153 695 167 672 188 655 c 0
 210 638 237 630 270 630 c 0
 303 630 330 638 352 655 c 0
 373 672 387 695 392 724 c 1
 444 724 l 1
 439 683 420 650 388 626 c 0
 356 600 317 588 270 588 c 0
 223 588 184 600 152 626 c 0
EndSplineSet
EndChar

StartChar: ecaron
Encoding: 283 283 243
Width: 535
Flags: W
LayerCount: 2
Fore
SplineSet
495 244 m 2
 89 244 l 1
 90 175 109 123 144 87 c 0
 180 51 231 33 298 33 c 0
 355 33 408 45 458 68 c 1
 472 28 l 1
 446 16 418 7 387 0 c 0
 356 -7 326 -10 296 -10 c 0
 214 -10 151 13 107 60 c 0
 63 107 41 173 41 260 c 0
 41 346 61 412 101 460 c 0
 141 506 197 530 270 530 c 0
 343 530 398 507 438 460 c 0
 476 413 496 347 496 260 c 0
 496 252 496 247 495 244 c 2
140 436 m 0
 109 402 92 352 89 285 c 1
 449 285 l 1
 446 352 430 402 399 436 c 0
 368 471 325 488 270 488 c 0
 214 488 171 471 140 436 c 0
82 770 m 1
 141 770 l 1
 269 586 l 1
 271 586 l 1
 399 770 l 1
 458 770 l 1
 312 560 l 1
 228 560 l 1
 82 770 l 1
EndSplineSet
EndChar

StartChar: ecircumflex
Encoding: 234 234 244
Width: 535
Flags: W
LayerCount: 2
Fore
SplineSet
495 244 m 2
 89 244 l 1
 90 175 109 123 144 87 c 0
 180 51 231 33 298 33 c 0
 355 33 408 45 458 68 c 1
 472 28 l 1
 446 16 418 7 387 0 c 0
 356 -7 326 -10 296 -10 c 0
 214 -10 151 13 107 60 c 0
 63 107 41 173 41 260 c 0
 41 346 61 412 101 460 c 0
 141 506 197 530 270 530 c 0
 343 530 398 507 438 460 c 0
 476 413 496 347 496 260 c 0
 496 252 496 247 495 244 c 2
140 436 m 0
 109 402 92 352 89 285 c 1
 449 285 l 1
 446 352 430 402 399 436 c 0
 368 471 325 488 270 488 c 0
 214 488 171 471 140 436 c 0
228 770 m 1
 312 770 l 1
 458 560 l 1
 399 560 l 1
 271 744 l 1
 269 744 l 1
 141 560 l 1
 82 560 l 1
 228 770 l 1
EndSplineSet
EndChar

StartChar: uni1EBF
Encoding: 7871 7871 245
Width: 535
Flags: W
LayerCount: 2
Fore
SplineSet
495 244 m 2
 89 244 l 1
 90 175 109 123 144 87 c 0
 180 51 231 33 298 33 c 0
 355 33 408 45 458 68 c 1
 472 28 l 1
 446 16 418 7 387 0 c 0
 356 -7 326 -10 296 -10 c 0
 214 -10 151 13 107 60 c 0
 63 107 41 173 41 260 c 0
 41 346 61 412 101 460 c 0
 141 506 197 530 270 530 c 0
 343 530 398 507 438 460 c 0
 476 413 496 347 496 260 c 0
 496 252 496 247 495 244 c 2
140 436 m 0
 109 402 92 352 89 285 c 1
 449 285 l 1
 446 352 430 402 399 436 c 0
 368 471 325 488 270 488 c 0
 214 488 171 471 140 436 c 0
228 770 m 1
 312 770 l 1
 458 560 l 1
 399 560 l 1
 271 744 l 1
 269 744 l 1
 141 560 l 1
 82 560 l 1
 228 770 l 1
411 740 m 1
 359 740 l 1
 472 950 l 1
 533 950 l 1
 411 740 l 1
EndSplineSet
EndChar

StartChar: uni1EC7
Encoding: 7879 7879 246
Width: 535
Flags: W
LayerCount: 2
Fore
SplineSet
495 244 m 2
 89 244 l 1
 90 175 109 123 144 87 c 0
 180 51 231 33 298 33 c 0
 355 33 408 45 458 68 c 1
 472 28 l 1
 446 16 418 7 387 0 c 0
 356 -7 326 -10 296 -10 c 0
 214 -10 151 13 107 60 c 0
 63 107 41 173 41 260 c 0
 41 346 61 412 101 460 c 0
 141 506 197 530 270 530 c 0
 343 530 398 507 438 460 c 0
 476 413 496 347 496 260 c 0
 496 252 496 247 495 244 c 2
140 436 m 0
 109 402 92 352 89 285 c 1
 449 285 l 1
 446 352 430 402 399 436 c 0
 368 471 325 488 270 488 c 0
 214 488 171 471 140 436 c 0
229 -104 m 1
 311 -104 l 1
 311 -186 l 1
 229 -186 l 1
 229 -104 l 1
228 770 m 1
 312 770 l 1
 458 560 l 1
 399 560 l 1
 271 744 l 1
 269 744 l 1
 141 560 l 1
 82 560 l 1
 228 770 l 1
EndSplineSet
EndChar

StartChar: uni1EC1
Encoding: 7873 7873 247
Width: 535
Flags: W
LayerCount: 2
Fore
SplineSet
495 244 m 2
 89 244 l 1
 90 175 109 123 144 87 c 0
 180 51 231 33 298 33 c 0
 355 33 408 45 458 68 c 1
 472 28 l 1
 446 16 418 7 387 0 c 0
 356 -7 326 -10 296 -10 c 0
 214 -10 151 13 107 60 c 0
 63 107 41 173 41 260 c 0
 41 346 61 412 101 460 c 0
 141 506 197 530 270 530 c 0
 343 530 398 507 438 460 c 0
 476 413 496 347 496 260 c 0
 496 252 496 247 495 244 c 2
140 436 m 0
 109 402 92 352 89 285 c 1
 449 285 l 1
 446 352 430 402 399 436 c 0
 368 471 325 488 270 488 c 0
 214 488 171 471 140 436 c 0
228 770 m 1
 312 770 l 1
 458 560 l 1
 399 560 l 1
 271 744 l 1
 269 744 l 1
 141 560 l 1
 82 560 l 1
 228 770 l 1
7 950 m 1
 69 950 l 1
 181 740 l 1
 130 740 l 1
 7 950 l 1
EndSplineSet
EndChar

StartChar: uni1EC3
Encoding: 7875 7875 248
Width: 535
Flags: W
LayerCount: 2
Fore
SplineSet
495 244 m 2
 89 244 l 1
 90 175 109 123 144 87 c 0
 180 51 231 33 298 33 c 0
 355 33 408 45 458 68 c 1
 472 28 l 1
 446 16 418 7 387 0 c 0
 356 -7 326 -10 296 -10 c 0
 214 -10 151 13 107 60 c 0
 63 107 41 173 41 260 c 0
 41 346 61 412 101 460 c 0
 141 506 197 530 270 530 c 0
 343 530 398 507 438 460 c 0
 476 413 496 347 496 260 c 0
 496 252 496 247 495 244 c 2
140 436 m 0
 109 402 92 352 89 285 c 1
 449 285 l 1
 446 352 430 402 399 436 c 0
 368 471 325 488 270 488 c 0
 214 488 171 471 140 436 c 0
228 770 m 1
 312 770 l 1
 458 560 l 1
 399 560 l 1
 271 744 l 1
 269 744 l 1
 141 560 l 1
 82 560 l 1
 228 770 l 1
402 767 m 0
 405 783 407 797 407 808 c 0
 407 827 401 839 388 846 c 0
 375 853 351 856 315 856 c 0
 277 856 237 851 195 840 c 1
 188 881 l 1
 235 892 280 898 324 898 c 0
 375 898 410 892 430 882 c 0
 449 870 459 851 459 822 c 0
 459 809 457 793 454 775 c 0
 451 757 447 741 442 728 c 1
 391 728 l 1
 395 738 399 751 402 767 c 0
EndSplineSet
EndChar

StartChar: uni1EC5
Encoding: 7877 7877 249
Width: 535
Flags: W
LayerCount: 2
Fore
SplineSet
495 244 m 2
 89 244 l 1
 90 175 109 123 144 87 c 0
 180 51 231 33 298 33 c 0
 355 33 408 45 458 68 c 1
 472 28 l 1
 446 16 418 7 387 0 c 0
 356 -7 326 -10 296 -10 c 0
 214 -10 151 13 107 60 c 0
 63 107 41 173 41 260 c 0
 41 346 61 412 101 460 c 0
 141 506 197 530 270 530 c 0
 343 530 398 507 438 460 c 0
 476 413 496 347 496 260 c 0
 496 252 496 247 495 244 c 2
140 436 m 0
 109 402 92 352 89 285 c 1
 449 285 l 1
 446 352 430 402 399 436 c 0
 368 471 325 488 270 488 c 0
 214 488 171 471 140 436 c 0
228 770 m 1
 312 770 l 1
 458 560 l 1
 399 560 l 1
 271 744 l 1
 269 744 l 1
 141 560 l 1
 82 560 l 1
 228 770 l 1
310 792 m 0
 292 802 273 814 254 830 c 0
 225 856 199 869 177 869 c 0
 166 869 157 863 152 851 c 0
 147 839 144 818 144 789 c 1
 96 789 l 1
 96 874 123 917 177 917 c 0
 193 917 210 912 230 904 c 0
 248 894 267 882 286 866 c 0
 315 840 341 827 363 827 c 0
 374 827 383 833 388 845 c 0
 393 857 396 878 396 907 c 1
 444 907 l 1
 444 822 417 779 363 779 c 0
 347 779 330 784 310 792 c 0
EndSplineSet
EndChar

StartChar: uni0205
Encoding: 517 517 250
Width: 535
Flags: W
LayerCount: 2
Fore
SplineSet
495 244 m 2
 89 244 l 1
 90 175 109 123 144 87 c 0
 180 51 231 33 298 33 c 0
 355 33 408 45 458 68 c 1
 472 28 l 1
 446 16 418 7 387 0 c 0
 356 -7 326 -10 296 -10 c 0
 214 -10 151 13 107 60 c 0
 63 107 41 173 41 260 c 0
 41 346 61 412 101 460 c 0
 141 506 197 530 270 530 c 0
 343 530 398 507 438 460 c 0
 476 413 496 347 496 260 c 0
 496 252 496 247 495 244 c 2
140 436 m 0
 109 402 92 352 89 285 c 1
 449 285 l 1
 446 352 430 402 399 436 c 0
 368 471 325 488 270 488 c 0
 214 488 171 471 140 436 c 0
74 770 m 1
 136 770 l 1
 248 560 l 1
 197 560 l 1
 74 770 l 1
269 770 m 1
 331 770 l 1
 443 560 l 1
 392 560 l 1
 269 770 l 1
EndSplineSet
EndChar

StartChar: edieresis
Encoding: 235 235 251
Width: 535
Flags: W
LayerCount: 2
Fore
SplineSet
495 244 m 2
 89 244 l 1
 90 175 109 123 144 87 c 0
 180 51 231 33 298 33 c 0
 355 33 408 45 458 68 c 1
 472 28 l 1
 446 16 418 7 387 0 c 0
 356 -7 326 -10 296 -10 c 0
 214 -10 151 13 107 60 c 0
 63 107 41 173 41 260 c 0
 41 346 61 412 101 460 c 0
 141 506 197 530 270 530 c 0
 343 530 398 507 438 460 c 0
 476 413 496 347 496 260 c 0
 496 252 496 247 495 244 c 2
140 436 m 0
 109 402 92 352 89 285 c 1
 449 285 l 1
 446 352 430 402 399 436 c 0
 368 471 325 488 270 488 c 0
 214 488 171 471 140 436 c 0
107 706 m 1
 189 706 l 1
 189 624 l 1
 107 624 l 1
 107 706 l 1
352 706 m 1
 433 706 l 1
 433 624 l 1
 352 624 l 1
 352 706 l 1
EndSplineSet
EndChar

StartChar: edotaccent
Encoding: 279 279 252
Width: 535
Flags: W
LayerCount: 2
Fore
SplineSet
495 244 m 2
 89 244 l 1
 90 175 109 123 144 87 c 0
 180 51 231 33 298 33 c 0
 355 33 408 45 458 68 c 1
 472 28 l 1
 446 16 418 7 387 0 c 0
 356 -7 326 -10 296 -10 c 0
 214 -10 151 13 107 60 c 0
 63 107 41 173 41 260 c 0
 41 346 61 412 101 460 c 0
 141 506 197 530 270 530 c 0
 343 530 398 507 438 460 c 0
 476 413 496 347 496 260 c 0
 496 252 496 247 495 244 c 2
140 436 m 0
 109 402 92 352 89 285 c 1
 449 285 l 1
 446 352 430 402 399 436 c 0
 368 471 325 488 270 488 c 0
 214 488 171 471 140 436 c 0
229 706 m 1
 311 706 l 1
 311 624 l 1
 229 624 l 1
 229 706 l 1
EndSplineSet
EndChar

StartChar: uni1EB9
Encoding: 7865 7865 253
Width: 535
Flags: W
LayerCount: 2
Fore
SplineSet
495 244 m 2
 89 244 l 1
 90 175 109 123 144 87 c 0
 180 51 231 33 298 33 c 0
 355 33 408 45 458 68 c 1
 472 28 l 1
 446 16 418 7 387 0 c 0
 356 -7 326 -10 296 -10 c 0
 214 -10 151 13 107 60 c 0
 63 107 41 173 41 260 c 0
 41 346 61 412 101 460 c 0
 141 506 197 530 270 530 c 0
 343 530 398 507 438 460 c 0
 476 413 496 347 496 260 c 0
 496 252 496 247 495 244 c 2
140 436 m 0
 109 402 92 352 89 285 c 1
 449 285 l 1
 446 352 430 402 399 436 c 0
 368 471 325 488 270 488 c 0
 214 488 171 471 140 436 c 0
229 -104 m 1
 311 -104 l 1
 311 -186 l 1
 229 -186 l 1
 229 -104 l 1
EndSplineSet
EndChar

StartChar: egrave
Encoding: 232 232 254
Width: 535
Flags: W
LayerCount: 2
Fore
SplineSet
495 244 m 2
 89 244 l 1
 90 175 109 123 144 87 c 0
 180 51 231 33 298 33 c 0
 355 33 408 45 458 68 c 1
 472 28 l 1
 446 16 418 7 387 0 c 0
 356 -7 326 -10 296 -10 c 0
 214 -10 151 13 107 60 c 0
 63 107 41 173 41 260 c 0
 41 346 61 412 101 460 c 0
 141 506 197 530 270 530 c 0
 343 530 398 507 438 460 c 0
 476 413 496 347 496 260 c 0
 496 252 496 247 495 244 c 2
140 436 m 0
 109 402 92 352 89 285 c 1
 449 285 l 1
 446 352 430 402 399 436 c 0
 368 471 325 488 270 488 c 0
 214 488 171 471 140 436 c 0
177 770 m 1
 239 770 l 1
 351 560 l 1
 300 560 l 1
 177 770 l 1
EndSplineSet
EndChar

StartChar: uni1EBB
Encoding: 7867 7867 255
Width: 535
Flags: W
LayerCount: 2
Fore
SplineSet
495 244 m 2
 89 244 l 1
 90 175 109 123 144 87 c 0
 180 51 231 33 298 33 c 0
 355 33 408 45 458 68 c 1
 472 28 l 1
 446 16 418 7 387 0 c 0
 356 -7 326 -10 296 -10 c 0
 214 -10 151 13 107 60 c 0
 63 107 41 173 41 260 c 0
 41 346 61 412 101 460 c 0
 141 506 197 530 270 530 c 0
 343 530 398 507 438 460 c 0
 476 413 496 347 496 260 c 0
 496 252 496 247 495 244 c 2
140 436 m 0
 109 402 92 352 89 285 c 1
 449 285 l 1
 446 352 430 402 399 436 c 0
 368 471 325 488 270 488 c 0
 214 488 171 471 140 436 c 0
348 637 m 0
 351 653 353 667 353 678 c 0
 353 697 347 709 334 716 c 0
 321 723 297 726 261 726 c 0
 223 726 183 721 141 710 c 1
 134 751 l 1
 181 762 226 768 270 768 c 0
 321 768 356 762 376 752 c 0
 395 740 405 721 405 692 c 0
 405 679 403 663 400 645 c 0
 397 627 393 611 388 598 c 1
 337 598 l 1
 341 608 345 621 348 637 c 0
EndSplineSet
EndChar

StartChar: uni0207
Encoding: 519 519 256
Width: 535
Flags: W
LayerCount: 2
Fore
SplineSet
495 244 m 2
 89 244 l 1
 90 175 109 123 144 87 c 0
 180 51 231 33 298 33 c 0
 355 33 408 45 458 68 c 1
 472 28 l 1
 446 16 418 7 387 0 c 0
 356 -7 326 -10 296 -10 c 0
 214 -10 151 13 107 60 c 0
 63 107 41 173 41 260 c 0
 41 346 61 412 101 460 c 0
 141 506 197 530 270 530 c 0
 343 530 398 507 438 460 c 0
 476 413 496 347 496 260 c 0
 496 252 496 247 495 244 c 2
140 436 m 0
 109 402 92 352 89 285 c 1
 449 285 l 1
 446 352 430 402 399 436 c 0
 368 471 325 488 270 488 c 0
 214 488 171 471 140 436 c 0
388 704 m 0
 420 680 439 647 444 606 c 1
 392 606 l 1
 387 635 373 658 352 675 c 0
 330 692 303 700 270 700 c 0
 237 700 210 692 188 675 c 0
 167 658 153 635 148 606 c 1
 96 606 l 1
 101 647 120 680 152 704 c 0
 184 730 223 742 270 742 c 0
 317 742 356 730 388 704 c 0
EndSplineSet
EndChar

StartChar: emacron
Encoding: 275 275 257
Width: 535
Flags: W
LayerCount: 2
Fore
SplineSet
495 244 m 2
 89 244 l 1
 90 175 109 123 144 87 c 0
 180 51 231 33 298 33 c 0
 355 33 408 45 458 68 c 1
 472 28 l 1
 446 16 418 7 387 0 c 0
 356 -7 326 -10 296 -10 c 0
 214 -10 151 13 107 60 c 0
 63 107 41 173 41 260 c 0
 41 346 61 412 101 460 c 0
 141 506 197 530 270 530 c 0
 343 530 398 507 438 460 c 0
 476 413 496 347 496 260 c 0
 496 252 496 247 495 244 c 2
140 436 m 0
 109 402 92 352 89 285 c 1
 449 285 l 1
 446 352 430 402 399 436 c 0
 368 471 325 488 270 488 c 0
 214 488 171 471 140 436 c 0
96 686 m 1
 445 686 l 1
 445 644 l 1
 96 644 l 1
 96 686 l 1
EndSplineSet
EndChar

StartChar: eogonek
Encoding: 281 281 258
Width: 535
Flags: W
LayerCount: 2
Fore
SplineSet
560 -165 m 1
 528 -179 493 -186 455 -186 c 0
 406 -186 370 -177 348 -160 c 0
 327 -142 316 -120 316 -94 c 0
 316 -64 330 -35 357 -6 c 1
 330 -9 310 -10 296 -10 c 0
 214 -10 151 13 107 60 c 0
 63 107 41 173 41 260 c 0
 41 346 61 412 101 460 c 0
 141 506 197 530 270 530 c 0
 343 530 398 507 438 460 c 0
 476 413 496 347 496 260 c 0
 496 252 496 247 495 244 c 2
 89 244 l 1
 90 175 109 123 144 87 c 0
 180 51 231 33 298 33 c 0
 355 33 408 45 458 68 c 1
 470 34 l 1
 473 33 l 1
 471 32 l 1
 472 28 l 1
 447 17 l 1
 420 0 399 -17 384 -35 c 0
 370 -53 363 -71 363 -88 c 0
 363 -108 372 -122 390 -131 c 0
 408 -140 431 -144 458 -144 c 0
 491 -144 522 -138 549 -125 c 1
 560 -165 l 1
140 436 m 0
 109 402 92 352 89 285 c 1
 449 285 l 1
 446 352 430 402 399 436 c 0
 368 471 325 488 270 488 c 0
 214 488 171 471 140 436 c 0
EndSplineSet
EndChar

StartChar: uni1EBD
Encoding: 7869 7869 259
Width: 535
Flags: W
LayerCount: 2
Fore
SplineSet
495 244 m 2
 89 244 l 1
 90 175 109 123 144 87 c 0
 180 51 231 33 298 33 c 0
 355 33 408 45 458 68 c 1
 472 28 l 1
 446 16 418 7 387 0 c 0
 356 -7 326 -10 296 -10 c 0
 214 -10 151 13 107 60 c 0
 63 107 41 173 41 260 c 0
 41 346 61 412 101 460 c 0
 141 506 197 530 270 530 c 0
 343 530 398 507 438 460 c 0
 476 413 496 347 496 260 c 0
 496 252 496 247 495 244 c 2
140 436 m 0
 109 402 92 352 89 285 c 1
 449 285 l 1
 446 352 430 402 399 436 c 0
 368 471 325 488 270 488 c 0
 214 488 171 471 140 436 c 0
310 610 m 0
 292 618 273 631 254 647 c 0
 225 673 199 686 177 686 c 0
 166 686 157 680 152 668 c 0
 147 656 144 635 144 606 c 1
 96 606 l 1
 96 691 123 734 177 734 c 0
 193 734 210 730 230 720 c 0
 248 712 267 699 286 683 c 0
 315 657 341 644 363 644 c 0
 374 644 383 650 388 662 c 0
 393 674 396 695 396 724 c 1
 444 724 l 1
 444 639 417 596 363 596 c 0
 347 596 330 600 310 610 c 0
EndSplineSet
EndChar

StartChar: uni0259
Encoding: 601 601 260
Width: 535
Flags: W
LayerCount: 2
Fore
SplineSet
428 460 m 0
 472 413 494 347 494 260 c 0
 494 174 474 108 434 60 c 0
 394 14 338 -10 265 -10 c 0
 192 -10 136 13 98 60 c 0
 58 107 39 173 39 260 c 0
 39 268 39 273 40 276 c 2
 446 276 l 1
 445 345 426 397 390 433 c 0
 355 469 304 487 237 487 c 0
 180 487 127 475 77 452 c 1
 63 492 l 1
 89 504 117 513 148 520 c 0
 179 527 209 530 239 530 c 0
 321 530 384 507 428 460 c 0
395 84 m 0
 426 118 443 168 446 235 c 1
 86 235 l 1
 89 168 105 118 136 84 c 0
 167 49 210 32 265 32 c 0
 321 32 364 49 395 84 c 0
EndSplineSet
EndChar

StartChar: f
Encoding: 102 102 261
Width: 426
Flags: W
LayerCount: 2
Fore
SplineSet
25 477 m 1
 25 520 l 1
 174 520 l 1
 174 598 l 2
 174 653 186 694 208 720 c 0
 232 747 267 760 315 760 c 0
 342 760 371 755 401 745 c 1
 391 703 l 1
 368 712 345 717 320 717 c 0
 285 717 260 708 246 690 c 0
 230 671 223 641 223 598 c 2
 223 520 l 1
 398 520 l 1
 398 477 l 1
 223 477 l 1
 223 0 l 1
 174 0 l 1
 174 477 l 1
 25 477 l 1
EndSplineSet
EndChar

StartChar: g
Encoding: 103 103 262
Width: 566
Flags: W
LayerCount: 2
Fore
SplineSet
485 520 m 1
 485 35 l 2
 485 -54 465 -121 426 -164 c 0
 386 -208 326 -230 245 -230 c 0
 179 -230 117 -216 59 -188 c 1
 73 -149 l 1
 126 -174 181 -187 240 -187 c 0
 307 -187 357 -169 388 -134 c 0
 420 -98 436 -42 436 35 c 2
 436 89 l 1
 434 89 l 1
 418 58 394 34 361 16 c 0
 328 -1 292 -10 252 -10 c 0
 187 -10 136 14 100 62 c 0
 63 109 45 175 45 260 c 0
 45 345 63 411 100 458 c 0
 136 506 187 530 252 530 c 0
 292 530 328 521 361 504 c 0
 394 486 419 462 436 431 c 1
 438 431 l 1
 438 520 l 1
 485 520 l 1
352 58 m 0
 379 76 399 99 414 130 c 0
 429 161 436 196 436 236 c 2
 436 284 l 2
 436 324 429 359 414 390 c 0
 399 421 379 444 352 462 c 0
 326 478 296 487 262 487 c 0
 209 487 168 467 138 426 c 0
 109 386 94 331 94 260 c 0
 94 189 109 134 138 94 c 0
 168 53 209 33 262 33 c 0
 296 33 326 42 352 58 c 0
EndSplineSet
EndChar

StartChar: gbreve
Encoding: 287 287 263
Width: 566
Flags: W
LayerCount: 2
Fore
SplineSet
485 520 m 1
 485 35 l 2
 485 -54 465 -121 426 -164 c 0
 386 -208 326 -230 245 -230 c 0
 179 -230 117 -216 59 -188 c 1
 73 -149 l 1
 126 -174 181 -187 240 -187 c 0
 307 -187 357 -169 388 -134 c 0
 420 -98 436 -42 436 35 c 2
 436 89 l 1
 434 89 l 1
 418 58 394 34 361 16 c 0
 328 -1 292 -10 252 -10 c 0
 187 -10 136 14 100 62 c 0
 63 109 45 175 45 260 c 0
 45 345 63 411 100 458 c 0
 136 506 187 530 252 530 c 0
 292 530 328 521 361 504 c 0
 394 486 419 462 436 431 c 1
 438 431 l 1
 438 520 l 1
 485 520 l 1
352 58 m 0
 379 76 399 99 414 130 c 0
 429 161 436 196 436 236 c 2
 436 284 l 2
 436 324 429 359 414 390 c 0
 399 421 379 444 352 462 c 0
 326 478 296 487 262 487 c 0
 209 487 168 467 138 426 c 0
 109 386 94 331 94 260 c 0
 94 189 109 134 138 94 c 0
 168 53 209 33 262 33 c 0
 296 33 326 42 352 58 c 0
160 626 m 0
 128 650 109 683 104 724 c 1
 156 724 l 1
 161 695 175 672 196 655 c 0
 218 638 245 630 278 630 c 0
 311 630 338 638 360 655 c 0
 381 672 395 695 400 724 c 1
 452 724 l 1
 447 683 428 650 396 626 c 0
 364 600 325 588 278 588 c 0
 231 588 192 600 160 626 c 0
EndSplineSet
EndChar

StartChar: gcaron
Encoding: 487 487 264
Width: 566
Flags: W
LayerCount: 2
Fore
SplineSet
485 520 m 1
 485 35 l 2
 485 -54 465 -121 426 -164 c 0
 386 -208 326 -230 245 -230 c 0
 179 -230 117 -216 59 -188 c 1
 73 -149 l 1
 126 -174 181 -187 240 -187 c 0
 307 -187 357 -169 388 -134 c 0
 420 -98 436 -42 436 35 c 2
 436 89 l 1
 434 89 l 1
 418 58 394 34 361 16 c 0
 328 -1 292 -10 252 -10 c 0
 187 -10 136 14 100 62 c 0
 63 109 45 175 45 260 c 0
 45 345 63 411 100 458 c 0
 136 506 187 530 252 530 c 0
 292 530 328 521 361 504 c 0
 394 486 419 462 436 431 c 1
 438 431 l 1
 438 520 l 1
 485 520 l 1
352 58 m 0
 379 76 399 99 414 130 c 0
 429 161 436 196 436 236 c 2
 436 284 l 2
 436 324 429 359 414 390 c 0
 399 421 379 444 352 462 c 0
 326 478 296 487 262 487 c 0
 209 487 168 467 138 426 c 0
 109 386 94 331 94 260 c 0
 94 189 109 134 138 94 c 0
 168 53 209 33 262 33 c 0
 296 33 326 42 352 58 c 0
90 770 m 1
 149 770 l 1
 277 586 l 1
 279 586 l 1
 407 770 l 1
 466 770 l 1
 320 560 l 1
 236 560 l 1
 90 770 l 1
EndSplineSet
EndChar

StartChar: gcircumflex
Encoding: 285 285 265
Width: 566
Flags: W
LayerCount: 2
Fore
SplineSet
485 520 m 1
 485 35 l 2
 485 -54 465 -121 426 -164 c 0
 386 -208 326 -230 245 -230 c 0
 179 -230 117 -216 59 -188 c 1
 73 -149 l 1
 126 -174 181 -187 240 -187 c 0
 307 -187 357 -169 388 -134 c 0
 420 -98 436 -42 436 35 c 2
 436 89 l 1
 434 89 l 1
 418 58 394 34 361 16 c 0
 328 -1 292 -10 252 -10 c 0
 187 -10 136 14 100 62 c 0
 63 109 45 175 45 260 c 0
 45 345 63 411 100 458 c 0
 136 506 187 530 252 530 c 0
 292 530 328 521 361 504 c 0
 394 486 419 462 436 431 c 1
 438 431 l 1
 438 520 l 1
 485 520 l 1
352 58 m 0
 379 76 399 99 414 130 c 0
 429 161 436 196 436 236 c 2
 436 284 l 2
 436 324 429 359 414 390 c 0
 399 421 379 444 352 462 c 0
 326 478 296 487 262 487 c 0
 209 487 168 467 138 426 c 0
 109 386 94 331 94 260 c 0
 94 189 109 134 138 94 c 0
 168 53 209 33 262 33 c 0
 296 33 326 42 352 58 c 0
236 770 m 1
 320 770 l 1
 466 560 l 1
 407 560 l 1
 279 744 l 1
 277 744 l 1
 149 560 l 1
 90 560 l 1
 236 770 l 1
EndSplineSet
EndChar

StartChar: uni0123
Encoding: 291 291 266
Width: 566
Flags: W
LayerCount: 2
Fore
SplineSet
485 520 m 1
 485 35 l 2
 485 -54 465 -121 426 -164 c 0
 386 -208 326 -230 245 -230 c 0
 179 -230 117 -216 59 -188 c 1
 73 -149 l 1
 126 -174 181 -187 240 -187 c 0
 307 -187 357 -169 388 -134 c 0
 420 -98 436 -42 436 35 c 2
 436 89 l 1
 434 89 l 1
 418 58 394 34 361 16 c 0
 328 -1 292 -10 252 -10 c 0
 187 -10 136 14 100 62 c 0
 63 109 45 175 45 260 c 0
 45 345 63 411 100 458 c 0
 136 506 187 530 252 530 c 0
 292 530 328 521 361 504 c 0
 394 486 419 462 436 431 c 1
 438 431 l 1
 438 520 l 1
 485 520 l 1
352 58 m 0
 379 76 399 99 414 130 c 0
 429 161 436 196 436 236 c 2
 436 284 l 2
 436 324 429 359 414 390 c 0
 399 421 379 444 352 462 c 0
 326 478 296 487 262 487 c 0
 209 487 168 467 138 426 c 0
 109 386 94 331 94 260 c 0
 94 189 109 134 138 94 c 0
 168 53 209 33 262 33 c 0
 296 33 326 42 352 58 c 0
314 770 m 1
 365 770 l 1
 253 560 l 1
 191 560 l 1
 314 770 l 1
EndSplineSet
EndChar

StartChar: gdotaccent
Encoding: 289 289 267
Width: 566
Flags: W
LayerCount: 2
Fore
SplineSet
485 520 m 1
 485 35 l 2
 485 -54 465 -121 426 -164 c 0
 386 -208 326 -230 245 -230 c 0
 179 -230 117 -216 59 -188 c 1
 73 -149 l 1
 126 -174 181 -187 240 -187 c 0
 307 -187 357 -169 388 -134 c 0
 420 -98 436 -42 436 35 c 2
 436 89 l 1
 434 89 l 1
 418 58 394 34 361 16 c 0
 328 -1 292 -10 252 -10 c 0
 187 -10 136 14 100 62 c 0
 63 109 45 175 45 260 c 0
 45 345 63 411 100 458 c 0
 136 506 187 530 252 530 c 0
 292 530 328 521 361 504 c 0
 394 486 419 462 436 431 c 1
 438 431 l 1
 438 520 l 1
 485 520 l 1
352 58 m 0
 379 76 399 99 414 130 c 0
 429 161 436 196 436 236 c 2
 436 284 l 2
 436 324 429 359 414 390 c 0
 399 421 379 444 352 462 c 0
 326 478 296 487 262 487 c 0
 209 487 168 467 138 426 c 0
 109 386 94 331 94 260 c 0
 94 189 109 134 138 94 c 0
 168 53 209 33 262 33 c 0
 296 33 326 42 352 58 c 0
237 706 m 1
 319 706 l 1
 319 624 l 1
 237 624 l 1
 237 706 l 1
EndSplineSet
EndChar

StartChar: h
Encoding: 104 104 268
Width: 574
Flags: W
LayerCount: 2
Fore
SplineSet
459 476 m 0
 487 441 501 389 501 320 c 2
 501 0 l 1
 451 0 l 1
 451 313 l 2
 451 429 409 487 325 487 c 0
 290 487 258 478 228 459 c 0
 198 440 174 415 156 384 c 0
 139 353 130 319 130 282 c 2
 130 0 l 1
 81 0 l 1
 81 750 l 1
 130 750 l 1
 130 421 l 1
 132 421 l 1
 151 454 179 480 216 500 c 0
 253 520 293 530 335 530 c 0
 390 530 431 512 459 476 c 0
EndSplineSet
EndChar

StartChar: hbar
Encoding: 295 295 269
Width: 639
Flags: W
LayerCount: 2
Fore
SplineSet
524 476 m 0
 552 441 566 389 566 320 c 2
 566 0 l 1
 516 0 l 1
 516 313 l 2
 516 429 474 487 390 487 c 0
 355 487 323 478 293 459 c 0
 263 440 239 415 222 384 c 0
 204 353 195 319 195 282 c 2
 195 0 l 1
 146 0 l 1
 146 603 l 1
 29 603 l 1
 29 647 l 1
 146 647 l 1
 146 750 l 1
 195 750 l 1
 195 647 l 1
 449 647 l 1
 449 603 l 1
 195 603 l 1
 195 421 l 1
 197 421 l 1
 216 454 244 480 281 500 c 0
 318 520 358 530 400 530 c 0
 455 530 496 512 524 476 c 0
EndSplineSet
EndChar

StartChar: hcircumflex
Encoding: 293 293 270
Width: 574
Flags: W
LayerCount: 2
Fore
SplineSet
459 476 m 0
 487 441 501 389 501 320 c 2
 501 0 l 1
 451 0 l 1
 451 313 l 2
 451 429 409 487 325 487 c 0
 290 487 258 478 228 459 c 0
 198 440 174 415 156 384 c 0
 139 353 130 319 130 282 c 2
 130 0 l 1
 81 0 l 1
 81 750 l 1
 130 750 l 1
 130 421 l 1
 132 421 l 1
 151 454 179 480 216 500 c 0
 253 520 293 530 335 530 c 0
 390 530 431 512 459 476 c 0
235 1000 m 1
 319 1000 l 1
 465 790 l 1
 406 790 l 1
 278 974 l 1
 276 974 l 1
 148 790 l 1
 89 790 l 1
 235 1000 l 1
EndSplineSet
EndChar

StartChar: i
Encoding: 105 105 271
Width: 255
Flags: W
LayerCount: 2
Fore
SplineSet
89 733 m 1
 166 733 l 1
 166 657 l 1
 89 657 l 1
 89 733 l 1
102 520 m 1
 152 520 l 1
 152 0 l 1
 102 0 l 1
 102 520 l 1
EndSplineSet
EndChar

StartChar: dotlessi
Encoding: 305 305 272
Width: 228
Flags: W
LayerCount: 2
Fore
SplineSet
89 520 m 1
 139 520 l 1
 139 0 l 1
 89 0 l 1
 89 520 l 1
EndSplineSet
EndChar

StartChar: iacute
Encoding: 237 237 273
Width: 228
Flags: W
LayerCount: 2
Fore
SplineSet
89 520 m 1
 139 520 l 1
 139 0 l 1
 89 0 l 1
 89 520 l 1
84 560 m 1
 32 560 l 1
 145 770 l 1
 206 770 l 1
 84 560 l 1
EndSplineSet
EndChar

StartChar: ibreve
Encoding: 301 301 274
Width: 228
Flags: W
LayerCount: 2
Fore
SplineSet
89 520 m 1
 139 520 l 1
 139 0 l 1
 89 0 l 1
 89 520 l 1
-4 626 m 0
 -36 650 -55 683 -60 724 c 1
 -8 724 l 1
 -3 695 11 672 32 655 c 0
 54 638 81 630 114 630 c 0
 147 630 174 638 196 655 c 0
 217 672 231 695 236 724 c 1
 288 724 l 1
 283 683 264 650 232 626 c 0
 200 600 161 588 114 588 c 0
 67 588 28 600 -4 626 c 0
EndSplineSet
EndChar

StartChar: icircumflex
Encoding: 238 238 275
Width: 228
Flags: W
LayerCount: 2
Fore
SplineSet
89 520 m 1
 139 520 l 1
 139 0 l 1
 89 0 l 1
 89 520 l 1
72 770 m 1
 156 770 l 1
 302 560 l 1
 243 560 l 1
 115 744 l 1
 113 744 l 1
 -15 560 l 1
 -74 560 l 1
 72 770 l 1
EndSplineSet
EndChar

StartChar: uni0209
Encoding: 521 521 276
Width: 228
Flags: W
LayerCount: 2
Fore
SplineSet
89 520 m 1
 139 520 l 1
 139 0 l 1
 89 0 l 1
 89 520 l 1
-82 770 m 1
 -20 770 l 1
 92 560 l 1
 41 560 l 1
 -82 770 l 1
113 770 m 1
 175 770 l 1
 287 560 l 1
 236 560 l 1
 113 770 l 1
EndSplineSet
EndChar

StartChar: idieresis
Encoding: 239 239 277
Width: 228
Flags: W
LayerCount: 2
Fore
SplineSet
89 520 m 1
 139 520 l 1
 139 0 l 1
 89 0 l 1
 89 520 l 1
-49 706 m 1
 33 706 l 1
 33 624 l 1
 -49 624 l 1
 -49 706 l 1
196 706 m 1
 277 706 l 1
 277 624 l 1
 196 624 l 1
 196 706 l 1
EndSplineSet
EndChar

StartChar: i.loclTRK
Encoding: 1114113 -1 278
Width: 228
Flags: W
LayerCount: 2
Fore
SplineSet
89 520 m 1
 139 520 l 1
 139 0 l 1
 89 0 l 1
 89 520 l 1
73 706 m 1
 155 706 l 1
 155 624 l 1
 73 624 l 1
 73 706 l 1
EndSplineSet
EndChar

StartChar: uni1ECB
Encoding: 7883 7883 279
Width: 255
Flags: W
LayerCount: 2
Fore
SplineSet
89 733 m 1
 166 733 l 1
 166 657 l 1
 89 657 l 1
 89 733 l 1
102 520 m 1
 152 520 l 1
 152 0 l 1
 102 0 l 1
 102 520 l 1
86 -104 m 1
 168 -104 l 1
 168 -186 l 1
 86 -186 l 1
 86 -104 l 1
EndSplineSet
EndChar

StartChar: igrave
Encoding: 236 236 280
Width: 228
Flags: W
LayerCount: 2
Fore
SplineSet
89 520 m 1
 139 520 l 1
 139 0 l 1
 89 0 l 1
 89 520 l 1
21 770 m 1
 83 770 l 1
 195 560 l 1
 144 560 l 1
 21 770 l 1
EndSplineSet
EndChar

StartChar: uni1EC9
Encoding: 7881 7881 281
Width: 228
Flags: W
LayerCount: 2
Fore
SplineSet
89 520 m 1
 139 520 l 1
 139 0 l 1
 89 0 l 1
 89 520 l 1
192 637 m 0
 195 653 197 667 197 678 c 0
 197 697 191 709 178 716 c 0
 165 723 141 726 105 726 c 0
 67 726 27 721 -15 710 c 1
 -22 751 l 1
 25 762 70 768 114 768 c 0
 165 768 200 762 220 752 c 0
 239 740 249 721 249 692 c 0
 249 679 247 663 244 645 c 0
 241 627 237 611 232 598 c 1
 181 598 l 1
 185 608 189 621 192 637 c 0
EndSplineSet
EndChar

StartChar: uni020B
Encoding: 523 523 282
Width: 228
Flags: W
LayerCount: 2
Fore
SplineSet
89 520 m 1
 139 520 l 1
 139 0 l 1
 89 0 l 1
 89 520 l 1
232 704 m 0
 264 680 283 647 288 606 c 1
 236 606 l 1
 231 635 217 658 196 675 c 0
 174 692 147 700 114 700 c 0
 81 700 54 692 32 675 c 0
 11 658 -3 635 -8 606 c 1
 -60 606 l 1
 -55 647 -36 680 -4 704 c 0
 28 730 67 742 114 742 c 0
 161 742 200 730 232 704 c 0
EndSplineSet
EndChar

StartChar: imacron
Encoding: 299 299 283
Width: 228
Flags: W
LayerCount: 2
Fore
SplineSet
89 520 m 1
 139 520 l 1
 139 0 l 1
 89 0 l 1
 89 520 l 1
-60 686 m 1
 289 686 l 1
 289 644 l 1
 -60 644 l 1
 -60 686 l 1
EndSplineSet
EndChar

StartChar: iogonek
Encoding: 303 303 284
Width: 228
Flags: W
LayerCount: 2
Fore
SplineSet
155 706 m 1
 155 624 l 1
 73 624 l 1
 73 706 l 1
 155 706 l 1
226 -198 m 1
 194 -212 159 -219 121 -219 c 0
 72 -219 36 -210 14 -192 c 0
 -7 -175 -18 -153 -18 -127 c 0
 -18 -102 -9 -78 10 -54 c 0
 28 -30 54 -7 89 14 c 1
 89 520 l 1
 139 520 l 1
 139 0 l 1
 104 -19 76 -40 58 -60 c 0
 38 -82 29 -102 29 -121 c 0
 29 -141 38 -155 56 -164 c 0
 74 -173 97 -177 124 -177 c 0
 157 -177 188 -171 215 -158 c 1
 226 -198 l 1
EndSplineSet
EndChar

StartChar: itilde
Encoding: 297 297 285
Width: 228
Flags: W
LayerCount: 2
Fore
SplineSet
89 520 m 1
 139 520 l 1
 139 0 l 1
 89 0 l 1
 89 520 l 1
154 610 m 0
 136 618 117 631 98 647 c 0
 69 673 43 686 21 686 c 0
 10 686 1 680 -4 668 c 0
 -9 656 -12 635 -12 606 c 1
 -60 606 l 1
 -60 691 -33 734 21 734 c 0
 37 734 54 730 74 720 c 0
 92 712 111 699 130 683 c 0
 159 657 185 644 207 644 c 0
 218 644 227 650 232 662 c 0
 237 674 240 695 240 724 c 1
 288 724 l 1
 288 639 261 596 207 596 c 0
 191 596 174 600 154 610 c 0
EndSplineSet
EndChar

StartChar: j
Encoding: 106 106 286
Width: 307
Flags: W
LayerCount: 2
Fore
SplineSet
142 733 m 1
 218 733 l 1
 218 657 l 1
 142 657 l 1
 142 733 l 1
72 -172 m 0
 104 -161 125 -142 137 -116 c 0
 149 -88 155 -48 155 7 c 2
 155 520 l 1
 205 520 l 1
 205 7 l 2
 205 -57 197 -106 181 -139 c 0
 165 -172 138 -196 100 -210 c 0
 61 -223 5 -230 -68 -230 c 1
 -69 -187 l 1
 -6 -187 42 -182 72 -172 c 0
EndSplineSet
EndChar

StartChar: uni0237
Encoding: 567 567 287
Width: 294
Flags: W
LayerCount: 2
Fore
SplineSet
72 -172 m 0
 104 -161 125 -142 137 -116 c 0
 149 -88 155 -48 155 7 c 2
 155 520 l 1
 205 520 l 1
 205 7 l 2
 205 -57 197 -106 181 -139 c 0
 165 -172 138 -196 100 -210 c 0
 61 -223 5 -230 -68 -230 c 1
 -69 -187 l 1
 -6 -187 42 -182 72 -172 c 0
EndSplineSet
EndChar

StartChar: jcircumflex
Encoding: 309 309 288
Width: 294
Flags: W
LayerCount: 2
Fore
SplineSet
72 -172 m 0
 104 -161 125 -142 137 -116 c 0
 149 -88 155 -48 155 7 c 2
 155 520 l 1
 205 520 l 1
 205 7 l 2
 205 -57 197 -106 181 -139 c 0
 165 -172 138 -196 100 -210 c 0
 61 -223 5 -230 -68 -230 c 1
 -69 -187 l 1
 -6 -187 42 -182 72 -172 c 0
105 770 m 1
 189 770 l 1
 335 560 l 1
 276 560 l 1
 148 744 l 1
 146 744 l 1
 18 560 l 1
 -41 560 l 1
 105 770 l 1
EndSplineSet
EndChar

StartChar: k
Encoding: 107 107 289
Width: 536
Flags: W
LayerCount: 2
Fore
SplineSet
81 750 m 1
 130 750 l 1
 130 286 l 1
 132 286 l 1
 417 520 l 1
 485 520 l 1
 177 270 l 1
 499 0 l 1
 431 0 l 1
 132 253 l 1
 130 253 l 1
 130 0 l 1
 81 0 l 1
 81 750 l 1
EndSplineSet
EndChar

StartChar: uni0137
Encoding: 311 311 290
Width: 536
Flags: W
LayerCount: 2
Fore
SplineSet
81 750 m 1
 130 750 l 1
 130 286 l 1
 132 286 l 1
 417 520 l 1
 485 520 l 1
 177 270 l 1
 499 0 l 1
 431 0 l 1
 132 253 l 1
 130 253 l 1
 130 0 l 1
 81 0 l 1
 81 750 l 1
198 -250 m 1
 146 -250 l 1
 259 -40 l 1
 320 -40 l 1
 198 -250 l 1
EndSplineSet
EndChar

StartChar: kgreenlandic
Encoding: 312 312 291
Width: 536
Flags: W
LayerCount: 2
Fore
SplineSet
81 520 m 1
 130 520 l 1
 130 286 l 1
 132 286 l 1
 417 520 l 1
 485 520 l 1
 177 270 l 1
 499 0 l 1
 431 0 l 1
 132 253 l 1
 130 253 l 1
 130 0 l 1
 81 0 l 1
 81 520 l 1
EndSplineSet
EndChar

StartChar: l
Encoding: 108 108 292
Width: 370
Flags: W
LayerCount: 2
Fore
SplineSet
89 750 m 1
 137 750 l 1
 137 153 l 2
 137 103 144 70 158 54 c 0
 173 38 200 30 239 30 c 0
 271 30 299 35 324 45 c 1
 334 7 l 1
 302 -4 269 -10 234 -10 c 0
 180 -10 142 2 121 24 c 0
 100 48 89 88 89 147 c 2
 89 750 l 1
EndSplineSet
EndChar

StartChar: lacute
Encoding: 314 314 293
Width: 370
Flags: W
LayerCount: 2
Fore
SplineSet
89 750 m 1
 137 750 l 1
 137 153 l 2
 137 103 144 70 158 54 c 0
 173 38 200 30 239 30 c 0
 271 30 299 35 324 45 c 1
 334 7 l 1
 302 -4 269 -10 234 -10 c 0
 180 -10 142 2 121 24 c 0
 100 48 89 88 89 147 c 2
 89 750 l 1
84 790 m 1
 32 790 l 1
 145 1000 l 1
 206 1000 l 1
 84 790 l 1
EndSplineSet
EndChar

StartChar: lcaron
Encoding: 318 318 294
Width: 406
Flags: W
LayerCount: 2
Fore
SplineSet
89 750 m 1
 137 750 l 1
 137 153 l 2
 137 103 144 70 158 54 c 0
 173 38 200 30 239 30 c 0
 271 30 299 35 324 45 c 1
 334 7 l 1
 302 -4 269 -10 234 -10 c 0
 180 -10 142 2 121 24 c 0
 100 48 89 88 89 147 c 2
 89 750 l 1
296 770 m 1
 354 770 l 1
 243 470 l 1
 195 470 l 1
 296 770 l 1
EndSplineSet
EndChar

StartChar: uni013C
Encoding: 316 316 295
Width: 370
Flags: W
LayerCount: 2
Fore
SplineSet
89 750 m 1
 137 750 l 1
 137 153 l 2
 137 103 144 70 158 54 c 0
 173 38 200 30 239 30 c 0
 271 30 299 35 324 45 c 1
 334 7 l 1
 302 -4 269 -10 234 -10 c 0
 180 -10 142 2 121 24 c 0
 100 48 89 88 89 147 c 2
 89 750 l 1
128 -250 m 1
 76 -250 l 1
 189 -40 l 1
 250 -40 l 1
 128 -250 l 1
EndSplineSet
EndChar

StartChar: ldot
Encoding: 320 320 296
Width: 368
Flags: W
LayerCount: 2
Fore
SplineSet
89 750 m 1
 137 750 l 1
 137 153 l 2
 137 103 144 70 158 54 c 0
 173 38 200 30 239 30 c 0
 271 30 299 35 324 45 c 1
 334 7 l 1
 302 -4 269 -10 234 -10 c 0
 180 -10 142 2 121 24 c 0
 100 48 89 88 89 147 c 2
 89 750 l 1
246 416 m 1
 329 416 l 1
 329 333 l 1
 246 333 l 1
 246 416 l 1
EndSplineSet
EndChar

StartChar: uni01C9
Encoding: 457 457 297
Width: 534
Flags: W
LayerCount: 2
Fore
SplineSet
89 750 m 1
 137 750 l 1
 137 153 l 2
 137 103 144 70 158 54 c 0
 173 38 200 30 239 30 c 0
 271 30 299 35 324 45 c 1
 334 7 l 1
 302 -4 269 -10 234 -10 c 0
 180 -10 142 2 121 24 c 0
 100 48 89 88 89 147 c 2
 89 750 l 1
369 733 m 1
 445 733 l 1
 445 657 l 1
 369 657 l 1
 369 733 l 1
300 -172 m 0
 330 -161 352 -142 364 -116 c 0
 376 -88 382 -48 382 7 c 2
 382 520 l 1
 432 520 l 1
 432 7 l 2
 432 -57 424 -106 408 -139 c 0
 392 -172 365 -196 326 -210 c 0
 288 -223 232 -230 159 -230 c 1
 158 -187 l 1
 221 -187 268 -182 300 -172 c 0
EndSplineSet
EndChar

StartChar: lslash
Encoding: 322 322 298
Width: 400
Flags: W
LayerCount: 2
Fore
SplineSet
385 423 m 1
 32 267 l 1
 15 307 l 1
 368 463 l 1
 385 423 l 1
175 750 m 1
 223 750 l 1
 223 153 l 2
 223 103 230 70 244 54 c 0
 259 38 286 30 325 30 c 0
 357 30 385 35 410 45 c 1
 420 7 l 1
 388 -4 355 -10 320 -10 c 0
 266 -10 228 2 207 24 c 0
 186 48 175 88 175 147 c 2
 175 750 l 1
EndSplineSet
EndChar

StartChar: m
Encoding: 109 109 299
Width: 798
Flags: W
LayerCount: 2
Fore
SplineSet
725 320 m 2
 725 0 l 1
 677 0 l 1
 677 313 l 2
 677 370 669 414 652 443 c 0
 635 472 610 487 577 487 c 0
 551 487 526 478 504 462 c 0
 480 444 462 422 448 394 c 0
 434 365 427 335 427 302 c 2
 427 0 l 1
 379 0 l 1
 379 313 l 2
 379 370 371 414 354 443 c 0
 337 472 312 487 279 487 c 0
 252 487 226 478 204 459 c 0
 180 440 162 415 149 383 c 0
 136 351 129 316 129 278 c 2
 129 0 l 1
 81 0 l 1
 81 520 l 1
 127 520 l 1
 128 431 l 1
 130 431 l 1
 147 462 169 486 198 504 c 0
 226 521 257 530 290 530 c 0
 353 530 394 497 414 431 c 1
 415 431 l 1
 433 460 458 484 490 502 c 0
 521 521 554 530 589 530 c 0
 680 530 725 460 725 320 c 2
EndSplineSet
EndChar

StartChar: n
Encoding: 110 110 300
Width: 574
Flags: W
LayerCount: 2
Fore
SplineSet
458 477 m 0
 487 442 501 389 501 320 c 2
 501 0 l 1
 451 0 l 1
 451 313 l 2
 451 429 408 487 323 487 c 0
 288 487 256 478 226 459 c 0
 197 440 173 415 156 384 c 0
 139 353 130 319 130 282 c 2
 130 0 l 1
 81 0 l 1
 81 520 l 1
 128 520 l 1
 128 421 l 1
 130 421 l 1
 149 454 177 481 214 500 c 0
 251 520 290 530 333 530 c 0
 388 530 430 512 458 477 c 0
EndSplineSet
EndChar

StartChar: nacute
Encoding: 324 324 301
Width: 574
Flags: W
LayerCount: 2
Fore
SplineSet
458 477 m 0
 487 442 501 389 501 320 c 2
 501 0 l 1
 451 0 l 1
 451 313 l 2
 451 429 408 487 323 487 c 0
 288 487 256 478 226 459 c 0
 197 440 173 415 156 384 c 0
 139 353 130 319 130 282 c 2
 130 0 l 1
 81 0 l 1
 81 520 l 1
 128 520 l 1
 128 421 l 1
 130 421 l 1
 149 454 177 481 214 500 c 0
 251 520 290 530 333 530 c 0
 388 530 430 512 458 477 c 0
257 560 m 1
 205 560 l 1
 318 770 l 1
 379 770 l 1
 257 560 l 1
EndSplineSet
EndChar

StartChar: ncaron
Encoding: 328 328 302
Width: 574
Flags: W
LayerCount: 2
Fore
SplineSet
458 477 m 0
 487 442 501 389 501 320 c 2
 501 0 l 1
 451 0 l 1
 451 313 l 2
 451 429 408 487 323 487 c 0
 288 487 256 478 226 459 c 0
 197 440 173 415 156 384 c 0
 139 353 130 319 130 282 c 2
 130 0 l 1
 81 0 l 1
 81 520 l 1
 128 520 l 1
 128 421 l 1
 130 421 l 1
 149 454 177 481 214 500 c 0
 251 520 290 530 333 530 c 0
 388 530 430 512 458 477 c 0
99 770 m 1
 158 770 l 1
 286 586 l 1
 288 586 l 1
 416 770 l 1
 475 770 l 1
 329 560 l 1
 245 560 l 1
 99 770 l 1
EndSplineSet
EndChar

StartChar: uni0146
Encoding: 326 326 303
Width: 574
Flags: W
LayerCount: 2
Fore
SplineSet
458 477 m 0
 487 442 501 389 501 320 c 2
 501 0 l 1
 451 0 l 1
 451 313 l 2
 451 429 408 487 323 487 c 0
 288 487 256 478 226 459 c 0
 197 440 173 415 156 384 c 0
 139 353 130 319 130 282 c 2
 130 0 l 1
 81 0 l 1
 81 520 l 1
 128 520 l 1
 128 421 l 1
 130 421 l 1
 149 454 177 481 214 500 c 0
 251 520 290 530 333 530 c 0
 388 530 430 512 458 477 c 0
251 -250 m 1
 199 -250 l 1
 312 -40 l 1
 373 -40 l 1
 251 -250 l 1
EndSplineSet
EndChar

StartChar: eng
Encoding: 331 331 304
Width: 574
Flags: W
LayerCount: 2
Fore
SplineSet
458 477 m 0
 487 442 501 389 501 320 c 2
 501 -49 l 2
 501 -106 489 -148 464 -174 c 0
 440 -201 402 -214 349 -214 c 0
 317 -214 286 -209 257 -199 c 1
 268 -156 l 1
 291 -165 315 -170 341 -170 c 0
 380 -170 408 -160 426 -142 c 0
 442 -122 451 -92 451 -49 c 2
 451 313 l 2
 451 429 408 487 323 487 c 0
 288 487 256 478 226 459 c 0
 197 440 173 415 156 384 c 0
 139 353 130 319 130 282 c 2
 130 0 l 1
 81 0 l 1
 81 520 l 1
 128 520 l 1
 128 406 l 1
 130 406 l 1
 149 444 177 474 213 496 c 0
 249 519 289 530 333 530 c 0
 388 530 430 512 458 477 c 0
EndSplineSet
EndChar

StartChar: uni01CC
Encoding: 460 460 305
Width: 881
Flags: W
LayerCount: 2
Fore
SplineSet
458 477 m 0
 487 442 501 389 501 320 c 2
 501 0 l 1
 451 0 l 1
 451 313 l 2
 451 429 408 487 323 487 c 0
 288 487 256 478 226 459 c 0
 197 440 173 415 156 384 c 0
 139 353 130 319 130 282 c 2
 130 0 l 1
 81 0 l 1
 81 520 l 1
 128 520 l 1
 128 421 l 1
 130 421 l 1
 149 454 177 481 214 500 c 0
 251 520 290 530 333 530 c 0
 388 530 430 512 458 477 c 0
716 733 m 1
 792 733 l 1
 792 657 l 1
 716 657 l 1
 716 733 l 1
646 -172 m 0
 678 -161 699 -142 711 -116 c 0
 723 -88 729 -48 729 7 c 2
 729 520 l 1
 779 520 l 1
 779 7 l 2
 779 -57 771 -106 755 -139 c 0
 739 -172 712 -196 674 -210 c 0
 635 -223 579 -230 506 -230 c 1
 505 -187 l 1
 568 -187 616 -182 646 -172 c 0
EndSplineSet
EndChar

StartChar: ntilde
Encoding: 241 241 306
Width: 574
Flags: W
LayerCount: 2
Fore
SplineSet
458 477 m 0
 487 442 501 389 501 320 c 2
 501 0 l 1
 451 0 l 1
 451 313 l 2
 451 429 408 487 323 487 c 0
 288 487 256 478 226 459 c 0
 197 440 173 415 156 384 c 0
 139 353 130 319 130 282 c 2
 130 0 l 1
 81 0 l 1
 81 520 l 1
 128 520 l 1
 128 421 l 1
 130 421 l 1
 149 454 177 481 214 500 c 0
 251 520 290 530 333 530 c 0
 388 530 430 512 458 477 c 0
328 610 m 0
 308 618 290 631 271 647 c 0
 242 673 216 686 194 686 c 0
 183 686 174 680 169 668 c 0
 164 656 161 635 161 606 c 1
 113 606 l 1
 113 691 140 734 194 734 c 0
 210 734 228 730 246 720 c 0
 266 712 284 699 303 683 c 0
 332 657 358 644 380 644 c 0
 391 644 400 650 405 662 c 0
 410 674 413 695 413 724 c 1
 461 724 l 1
 461 639 434 596 380 596 c 0
 364 596 346 600 328 610 c 0
EndSplineSet
EndChar

StartChar: o
Encoding: 111 111 307
Width: 557
Flags: W
LayerCount: 2
Fore
SplineSet
104 62 m 0
 62 109 41 175 41 260 c 0
 41 345 62 411 104 458 c 0
 146 506 204 530 278 530 c 0
 353 530 411 506 453 458 c 0
 495 411 516 345 516 260 c 0
 516 175 495 109 453 62 c 0
 411 14 353 -10 278 -10 c 0
 204 -10 146 14 104 62 c 0
418 92 m 0
 450 132 467 188 467 260 c 0
 467 332 450 388 418 428 c 0
 384 467 338 487 278 487 c 0
 219 487 172 467 140 428 c 0
 106 389 90 333 90 260 c 0
 90 187 106 131 140 92 c 0
 172 53 219 33 278 33 c 0
 338 33 384 53 418 92 c 0
EndSplineSet
EndChar

